<?xml version="1.0" encoding="utf-8"?>
<svg xmlns="http://www.w3.org/2000/svg" xmlns:xlink="http://www.w3.org/1999/xlink" width="600" height="400" viewBox="0 0 2400 1600">
<defs>
  <clipPath id="clip320">
    <rect x="0" y="0" width="2400" height="1600"/>
  </clipPath>
</defs>
<path clip-path="url(#clip320)" d="M0 1600 L2400 1600 L2400 0 L0 0  Z" fill="#ffffff" fill-rule="evenodd" fill-opacity="1"/>
<defs>
  <clipPath id="clip321">
    <rect x="480" y="0" width="1681" height="1600"/>
  </clipPath>
</defs>
<path clip-path="url(#clip320)" d="M205.121 1423.18 L2352.76 1423.18 L2352.76 123.472 L205.121 123.472  Z" fill="#ffffff" fill-rule="evenodd" fill-opacity="1"/>
<defs>
  <clipPath id="clip322">
    <rect x="205" y="123" width="2149" height="1301"/>
  </clipPath>
</defs>
<polyline clip-path="url(#clip322)" style="stroke:#000000; stroke-linecap:round; stroke-linejoin:round; stroke-width:2; stroke-opacity:0.1; fill:none" points="491.022,1423.18 491.022,123.472 "/>
<polyline clip-path="url(#clip322)" style="stroke:#000000; stroke-linecap:round; stroke-linejoin:round; stroke-width:2; stroke-opacity:0.1; fill:none" points="941.26,1423.18 941.26,123.472 "/>
<polyline clip-path="url(#clip322)" style="stroke:#000000; stroke-linecap:round; stroke-linejoin:round; stroke-width:2; stroke-opacity:0.1; fill:none" points="1391.5,1423.18 1391.5,123.472 "/>
<polyline clip-path="url(#clip322)" style="stroke:#000000; stroke-linecap:round; stroke-linejoin:round; stroke-width:2; stroke-opacity:0.1; fill:none" points="1841.74,1423.18 1841.74,123.472 "/>
<polyline clip-path="url(#clip322)" style="stroke:#000000; stroke-linecap:round; stroke-linejoin:round; stroke-width:2; stroke-opacity:0.1; fill:none" points="2291.97,1423.18 2291.97,123.472 "/>
<polyline clip-path="url(#clip320)" style="stroke:#000000; stroke-linecap:round; stroke-linejoin:round; stroke-width:4; stroke-opacity:1; fill:none" points="205.121,1423.18 2352.76,1423.18 "/>
<polyline clip-path="url(#clip320)" style="stroke:#000000; stroke-linecap:round; stroke-linejoin:round; stroke-width:4; stroke-opacity:1; fill:none" points="491.022,1423.18 491.022,1404.28 "/>
<polyline clip-path="url(#clip320)" style="stroke:#000000; stroke-linecap:round; stroke-linejoin:round; stroke-width:4; stroke-opacity:1; fill:none" points="941.26,1423.18 941.26,1404.28 "/>
<polyline clip-path="url(#clip320)" style="stroke:#000000; stroke-linecap:round; stroke-linejoin:round; stroke-width:4; stroke-opacity:1; fill:none" points="1391.5,1423.18 1391.5,1404.28 "/>
<polyline clip-path="url(#clip320)" style="stroke:#000000; stroke-linecap:round; stroke-linejoin:round; stroke-width:4; stroke-opacity:1; fill:none" points="1841.74,1423.18 1841.74,1404.28 "/>
<polyline clip-path="url(#clip320)" style="stroke:#000000; stroke-linecap:round; stroke-linejoin:round; stroke-width:4; stroke-opacity:1; fill:none" points="2291.97,1423.18 2291.97,1404.28 "/>
<path clip-path="url(#clip320)" d="M469.795 1481.64 L486.115 1481.64 L486.115 1485.58 L464.17 1485.58 L464.17 1481.64 Q466.832 1478.89 471.416 1474.26 Q476.022 1469.61 477.203 1468.27 Q479.448 1465.74 480.328 1464.01 Q481.23 1462.25 481.23 1460.56 Q481.23 1457.8 479.286 1456.07 Q477.365 1454.33 474.263 1454.33 Q472.064 1454.33 469.61 1455.09 Q467.18 1455.86 464.402 1457.41 L464.402 1452.69 Q467.226 1451.55 469.68 1450.97 Q472.133 1450.39 474.17 1450.39 Q479.541 1450.39 482.735 1453.08 Q485.929 1455.77 485.929 1460.26 Q485.929 1462.39 485.119 1464.31 Q484.332 1466.2 482.226 1468.8 Q481.647 1469.47 478.545 1472.69 Q475.443 1475.88 469.795 1481.64 Z" fill="#000000" fill-rule="nonzero" fill-opacity="1" /><path clip-path="url(#clip320)" d="M505.929 1454.1 Q502.318 1454.1 500.49 1457.66 Q498.684 1461.2 498.684 1468.33 Q498.684 1475.44 500.49 1479.01 Q502.318 1482.55 505.929 1482.55 Q509.564 1482.55 511.369 1479.01 Q513.198 1475.44 513.198 1468.33 Q513.198 1461.2 511.369 1457.66 Q509.564 1454.1 505.929 1454.1 M505.929 1450.39 Q511.74 1450.39 514.795 1455 Q517.874 1459.58 517.874 1468.33 Q517.874 1477.06 514.795 1481.67 Q511.74 1486.25 505.929 1486.25 Q500.119 1486.25 497.041 1481.67 Q493.985 1477.06 493.985 1468.33 Q493.985 1459.58 497.041 1455 Q500.119 1450.39 505.929 1450.39 Z" fill="#000000" fill-rule="nonzero" fill-opacity="1" /><path clip-path="url(#clip320)" d="M929.431 1455.09 L917.626 1473.54 L929.431 1473.54 L929.431 1455.09 M928.205 1451.02 L934.084 1451.02 L934.084 1473.54 L939.015 1473.54 L939.015 1477.43 L934.084 1477.43 L934.084 1485.58 L929.431 1485.58 L929.431 1477.43 L913.83 1477.43 L913.83 1472.92 L928.205 1451.02 Z" fill="#000000" fill-rule="nonzero" fill-opacity="1" /><path clip-path="url(#clip320)" d="M956.746 1454.1 Q953.135 1454.1 951.306 1457.66 Q949.501 1461.2 949.501 1468.33 Q949.501 1475.44 951.306 1479.01 Q953.135 1482.55 956.746 1482.55 Q960.38 1482.55 962.186 1479.01 Q964.014 1475.44 964.014 1468.33 Q964.014 1461.2 962.186 1457.66 Q960.38 1454.1 956.746 1454.1 M956.746 1450.39 Q962.556 1450.39 965.612 1455 Q968.69 1459.58 968.69 1468.33 Q968.69 1477.06 965.612 1481.67 Q962.556 1486.25 956.746 1486.25 Q950.936 1486.25 947.857 1481.67 Q944.802 1477.06 944.802 1468.33 Q944.802 1459.58 947.857 1455 Q950.936 1450.39 956.746 1450.39 Z" fill="#000000" fill-rule="nonzero" fill-opacity="1" /><path clip-path="url(#clip320)" d="M1376.9 1466.44 Q1373.75 1466.44 1371.9 1468.59 Q1370.07 1470.74 1370.07 1474.49 Q1370.07 1478.22 1371.9 1480.39 Q1373.75 1482.55 1376.9 1482.55 Q1380.05 1482.55 1381.88 1480.39 Q1383.73 1478.22 1383.73 1474.49 Q1383.73 1470.74 1381.88 1468.59 Q1380.05 1466.44 1376.9 1466.44 M1386.19 1451.78 L1386.19 1456.04 Q1384.43 1455.21 1382.62 1454.77 Q1380.84 1454.33 1379.08 1454.33 Q1374.45 1454.33 1372 1457.45 Q1369.57 1460.58 1369.22 1466.9 Q1370.58 1464.89 1372.64 1463.82 Q1374.7 1462.73 1377.18 1462.73 Q1382.39 1462.73 1385.4 1465.9 Q1388.43 1469.05 1388.43 1474.49 Q1388.43 1479.82 1385.28 1483.03 Q1382.13 1486.25 1376.9 1486.25 Q1370.91 1486.25 1367.74 1481.67 Q1364.57 1477.06 1364.57 1468.33 Q1364.57 1460.14 1368.45 1455.28 Q1372.34 1450.39 1378.89 1450.39 Q1380.65 1450.39 1382.44 1450.74 Q1384.24 1451.09 1386.19 1451.78 Z" fill="#000000" fill-rule="nonzero" fill-opacity="1" /><path clip-path="url(#clip320)" d="M1406.49 1454.1 Q1402.88 1454.1 1401.05 1457.66 Q1399.24 1461.2 1399.24 1468.33 Q1399.24 1475.44 1401.05 1479.01 Q1402.88 1482.55 1406.49 1482.55 Q1410.12 1482.55 1411.93 1479.01 Q1413.75 1475.44 1413.75 1468.33 Q1413.75 1461.2 1411.93 1457.66 Q1410.12 1454.1 1406.49 1454.1 M1406.49 1450.39 Q1412.3 1450.39 1415.35 1455 Q1418.43 1459.58 1418.43 1468.33 Q1418.43 1477.06 1415.35 1481.67 Q1412.3 1486.25 1406.49 1486.25 Q1400.68 1486.25 1397.6 1481.67 Q1394.54 1477.06 1394.54 1468.33 Q1394.54 1459.58 1397.6 1455 Q1400.68 1450.39 1406.49 1450.39 Z" fill="#000000" fill-rule="nonzero" fill-opacity="1" /><path clip-path="url(#clip320)" d="M1826.61 1469.17 Q1823.28 1469.17 1821.35 1470.95 Q1819.46 1472.73 1819.46 1475.86 Q1819.46 1478.98 1821.35 1480.77 Q1823.28 1482.55 1826.61 1482.55 Q1829.94 1482.55 1831.86 1480.77 Q1833.78 1478.96 1833.78 1475.86 Q1833.78 1472.73 1831.86 1470.95 Q1829.97 1469.17 1826.61 1469.17 M1821.93 1467.18 Q1818.92 1466.44 1817.23 1464.38 Q1815.57 1462.32 1815.57 1459.35 Q1815.57 1455.21 1818.51 1452.8 Q1821.47 1450.39 1826.61 1450.39 Q1831.77 1450.39 1834.71 1452.8 Q1837.65 1455.21 1837.65 1459.35 Q1837.65 1462.32 1835.96 1464.38 Q1834.29 1466.44 1831.31 1467.18 Q1834.69 1467.96 1836.56 1470.26 Q1838.46 1472.55 1838.46 1475.86 Q1838.46 1480.88 1835.38 1483.57 Q1832.33 1486.25 1826.61 1486.25 Q1820.89 1486.25 1817.81 1483.57 Q1814.76 1480.88 1814.76 1475.86 Q1814.76 1472.55 1816.65 1470.26 Q1818.55 1467.96 1821.93 1467.18 M1820.22 1459.79 Q1820.22 1462.48 1821.89 1463.98 Q1823.58 1465.49 1826.61 1465.49 Q1829.62 1465.49 1831.31 1463.98 Q1833.02 1462.48 1833.02 1459.79 Q1833.02 1457.11 1831.31 1455.6 Q1829.62 1454.1 1826.61 1454.1 Q1823.58 1454.1 1821.89 1455.6 Q1820.22 1457.11 1820.22 1459.79 Z" fill="#000000" fill-rule="nonzero" fill-opacity="1" /><path clip-path="url(#clip320)" d="M1856.77 1454.1 Q1853.16 1454.1 1851.33 1457.66 Q1849.53 1461.2 1849.53 1468.33 Q1849.53 1475.44 1851.33 1479.01 Q1853.16 1482.55 1856.77 1482.55 Q1860.4 1482.55 1862.21 1479.01 Q1864.04 1475.44 1864.04 1468.33 Q1864.04 1461.2 1862.21 1457.66 Q1860.4 1454.1 1856.77 1454.1 M1856.77 1450.39 Q1862.58 1450.39 1865.64 1455 Q1868.71 1459.58 1868.71 1468.33 Q1868.71 1477.06 1865.64 1481.67 Q1862.58 1486.25 1856.77 1486.25 Q1850.96 1486.25 1847.88 1481.67 Q1844.83 1477.06 1844.83 1468.33 Q1844.83 1459.58 1847.88 1455 Q1850.96 1450.39 1856.77 1450.39 Z" fill="#000000" fill-rule="nonzero" fill-opacity="1" /><path clip-path="url(#clip320)" d="M2251.58 1481.64 L2259.22 1481.64 L2259.22 1455.28 L2250.91 1456.95 L2250.91 1452.69 L2259.17 1451.02 L2263.85 1451.02 L2263.85 1481.64 L2271.49 1481.64 L2271.49 1485.58 L2251.58 1485.58 L2251.58 1481.64 Z" fill="#000000" fill-rule="nonzero" fill-opacity="1" /><path clip-path="url(#clip320)" d="M2290.93 1454.1 Q2287.32 1454.1 2285.49 1457.66 Q2283.69 1461.2 2283.69 1468.33 Q2283.69 1475.44 2285.49 1479.01 Q2287.32 1482.55 2290.93 1482.55 Q2294.57 1482.55 2296.37 1479.01 Q2298.2 1475.44 2298.2 1468.33 Q2298.2 1461.2 2296.37 1457.66 Q2294.57 1454.1 2290.93 1454.1 M2290.93 1450.39 Q2296.74 1450.39 2299.8 1455 Q2302.88 1459.58 2302.88 1468.33 Q2302.88 1477.06 2299.8 1481.67 Q2296.74 1486.25 2290.93 1486.25 Q2285.12 1486.25 2282.04 1481.67 Q2278.99 1477.06 2278.99 1468.33 Q2278.99 1459.58 2282.04 1455 Q2285.12 1450.39 2290.93 1450.39 Z" fill="#000000" fill-rule="nonzero" fill-opacity="1" /><path clip-path="url(#clip320)" d="M2321.09 1454.1 Q2317.48 1454.1 2315.65 1457.66 Q2313.85 1461.2 2313.85 1468.33 Q2313.85 1475.44 2315.65 1479.01 Q2317.48 1482.55 2321.09 1482.55 Q2324.73 1482.55 2326.53 1479.01 Q2328.36 1475.44 2328.36 1468.33 Q2328.36 1461.2 2326.53 1457.66 Q2324.73 1454.1 2321.09 1454.1 M2321.09 1450.39 Q2326.9 1450.39 2329.96 1455 Q2333.04 1459.58 2333.04 1468.33 Q2333.04 1477.06 2329.96 1481.67 Q2326.9 1486.25 2321.09 1486.25 Q2315.28 1486.25 2312.21 1481.67 Q2309.15 1477.06 2309.15 1468.33 Q2309.15 1459.58 2312.21 1455 Q2315.28 1450.39 2321.09 1450.39 Z" fill="#000000" fill-rule="nonzero" fill-opacity="1" /><path clip-path="url(#clip320)" d="M1049.57 1525.81 L1049.57 1562.76 L1057.33 1562.76 Q1067.17 1562.76 1071.72 1558.3 Q1076.3 1553.85 1076.3 1544.24 Q1076.3 1534.69 1071.72 1530.26 Q1067.17 1525.81 1057.33 1525.81 L1049.57 1525.81 M1043.14 1520.52 L1056.35 1520.52 Q1070.16 1520.52 1076.62 1526.28 Q1083.08 1532.01 1083.08 1544.24 Q1083.08 1556.52 1076.59 1562.28 Q1070.1 1568.04 1056.35 1568.04 L1043.14 1568.04 L1043.14 1520.52 Z" fill="#000000" fill-rule="nonzero" fill-opacity="1" /><path clip-path="url(#clip320)" d="M1093.08 1532.4 L1098.93 1532.4 L1098.93 1568.04 L1093.08 1568.04 L1093.08 1532.4 M1093.08 1518.52 L1098.93 1518.52 L1098.93 1525.93 L1093.08 1525.93 L1093.08 1518.52 Z" fill="#000000" fill-rule="nonzero" fill-opacity="1" /><path clip-path="url(#clip320)" d="M1133.91 1533.45 L1133.91 1538.98 Q1131.43 1537.71 1128.76 1537.07 Q1126.08 1536.44 1123.22 1536.44 Q1118.86 1536.44 1116.66 1537.77 Q1114.5 1539.11 1114.5 1541.79 Q1114.5 1543.82 1116.06 1545 Q1117.62 1546.15 1122.33 1547.2 L1124.33 1547.64 Q1130.57 1548.98 1133.18 1551.43 Q1135.82 1553.85 1135.82 1558.21 Q1135.82 1563.17 1131.87 1566.07 Q1127.96 1568.97 1121.08 1568.97 Q1118.22 1568.97 1115.1 1568.39 Q1112.01 1567.85 1108.58 1566.74 L1108.58 1560.69 Q1111.82 1562.38 1114.97 1563.24 Q1118.12 1564.07 1121.21 1564.07 Q1125.35 1564.07 1127.58 1562.66 Q1129.81 1561.23 1129.81 1558.65 Q1129.81 1556.27 1128.18 1554.99 Q1126.59 1553.72 1121.15 1552.54 L1119.11 1552.07 Q1113.67 1550.92 1111.25 1548.56 Q1108.83 1546.18 1108.83 1542.04 Q1108.83 1537.01 1112.4 1534.27 Q1115.96 1531.54 1122.52 1531.54 Q1125.76 1531.54 1128.63 1532.01 Q1131.49 1532.49 1133.91 1533.45 Z" fill="#000000" fill-rule="nonzero" fill-opacity="1" /><path clip-path="url(#clip320)" d="M1150.94 1522.27 L1150.94 1532.4 L1163 1532.4 L1163 1536.95 L1150.94 1536.95 L1150.94 1556.3 Q1150.94 1560.66 1152.12 1561.9 Q1153.33 1563.14 1156.99 1563.14 L1163 1563.14 L1163 1568.04 L1156.99 1568.04 Q1150.21 1568.04 1147.63 1565.53 Q1145.05 1562.98 1145.05 1556.3 L1145.05 1536.95 L1140.75 1536.95 L1140.75 1532.4 L1145.05 1532.4 L1145.05 1522.27 L1150.94 1522.27 Z" fill="#000000" fill-rule="nonzero" fill-opacity="1" /><path clip-path="url(#clip320)" d="M1186.91 1550.12 Q1179.81 1550.12 1177.07 1551.75 Q1174.33 1553.37 1174.33 1557.29 Q1174.33 1560.4 1176.37 1562.25 Q1178.44 1564.07 1181.97 1564.07 Q1186.84 1564.07 1189.77 1560.63 Q1192.73 1557.16 1192.73 1551.43 L1192.73 1550.12 L1186.91 1550.12 M1198.59 1547.71 L1198.59 1568.04 L1192.73 1568.04 L1192.73 1562.63 Q1190.73 1565.88 1187.73 1567.44 Q1184.74 1568.97 1180.41 1568.97 Q1174.94 1568.97 1171.69 1565.91 Q1168.48 1562.82 1168.48 1557.67 Q1168.48 1551.65 1172.49 1548.6 Q1176.53 1545.54 1184.52 1545.54 L1192.73 1545.54 L1192.73 1544.97 Q1192.73 1540.93 1190.06 1538.73 Q1187.42 1536.5 1182.61 1536.5 Q1179.55 1536.5 1176.66 1537.23 Q1173.76 1537.97 1171.09 1539.43 L1171.09 1534.02 Q1174.3 1532.78 1177.33 1532.17 Q1180.35 1531.54 1183.21 1531.54 Q1190.95 1531.54 1194.77 1535.55 Q1198.59 1539.56 1198.59 1547.71 Z" fill="#000000" fill-rule="nonzero" fill-opacity="1" /><path clip-path="url(#clip320)" d="M1240.28 1546.53 L1240.28 1568.04 L1234.43 1568.04 L1234.43 1546.72 Q1234.43 1541.66 1232.45 1539.14 Q1230.48 1536.63 1226.53 1536.63 Q1221.79 1536.63 1219.05 1539.65 Q1216.32 1542.68 1216.32 1547.9 L1216.32 1568.04 L1210.43 1568.04 L1210.43 1532.4 L1216.32 1532.4 L1216.32 1537.93 Q1218.42 1534.72 1221.25 1533.13 Q1224.11 1531.54 1227.84 1531.54 Q1233.98 1531.54 1237.13 1535.36 Q1240.28 1539.14 1240.28 1546.53 Z" fill="#000000" fill-rule="nonzero" fill-opacity="1" /><path clip-path="url(#clip320)" d="M1277.62 1533.76 L1277.62 1539.24 Q1275.13 1537.87 1272.62 1537.2 Q1270.14 1536.5 1267.59 1536.5 Q1261.89 1536.5 1258.74 1540.13 Q1255.59 1543.73 1255.59 1550.25 Q1255.59 1556.78 1258.74 1560.4 Q1261.89 1564 1267.59 1564 Q1270.14 1564 1272.62 1563.33 Q1275.13 1562.63 1277.62 1561.26 L1277.62 1566.68 Q1275.17 1567.82 1272.52 1568.39 Q1269.92 1568.97 1266.95 1568.97 Q1258.9 1568.97 1254.16 1563.91 Q1249.42 1558.85 1249.42 1550.25 Q1249.42 1541.53 1254.19 1536.53 Q1259 1531.54 1267.34 1531.54 Q1270.04 1531.54 1272.62 1532.11 Q1275.2 1532.65 1277.62 1533.76 Z" fill="#000000" fill-rule="nonzero" fill-opacity="1" /><path clip-path="url(#clip320)" d="M1318.29 1548.76 L1318.29 1551.62 L1291.37 1551.62 Q1291.75 1557.67 1295 1560.85 Q1298.27 1564 1304.1 1564 Q1307.47 1564 1310.62 1563.17 Q1313.81 1562.35 1316.93 1560.69 L1316.93 1566.23 Q1313.77 1567.57 1310.46 1568.27 Q1307.15 1568.97 1303.75 1568.97 Q1295.22 1568.97 1290.22 1564 Q1285.26 1559.04 1285.26 1550.57 Q1285.26 1541.82 1289.97 1536.69 Q1294.71 1531.54 1302.73 1531.54 Q1309.92 1531.54 1314.09 1536.18 Q1318.29 1540.8 1318.29 1548.76 M1312.44 1547.04 Q1312.37 1542.23 1309.73 1539.37 Q1307.12 1536.5 1302.79 1536.5 Q1297.89 1536.5 1294.93 1539.27 Q1292 1542.04 1291.56 1547.07 L1312.44 1547.04 Z" fill="#000000" fill-rule="nonzero" fill-opacity="1" /><path clip-path="url(#clip320)" d="M1362.7 1518.58 Q1358.43 1525.9 1356.36 1533.06 Q1354.29 1540.23 1354.29 1547.58 Q1354.29 1554.93 1356.36 1562.16 Q1358.46 1569.35 1362.7 1576.64 L1357.6 1576.64 Q1352.83 1569.16 1350.44 1561.93 Q1348.09 1554.71 1348.09 1547.58 Q1348.09 1540.48 1350.44 1533.29 Q1352.8 1526.09 1357.6 1518.58 L1362.7 1518.58 Z" fill="#000000" fill-rule="nonzero" fill-opacity="1" /><path clip-path="url(#clip320)" d="M1401.81 1539.24 Q1404.01 1535.29 1407.06 1533.41 Q1410.12 1531.54 1414.26 1531.54 Q1419.83 1531.54 1422.85 1535.45 Q1425.87 1539.33 1425.87 1546.53 L1425.87 1568.04 L1419.99 1568.04 L1419.99 1546.72 Q1419.99 1541.59 1418.17 1539.11 Q1416.36 1536.63 1412.63 1536.63 Q1408.08 1536.63 1405.44 1539.65 Q1402.8 1542.68 1402.8 1547.9 L1402.8 1568.04 L1396.91 1568.04 L1396.91 1546.72 Q1396.91 1541.56 1395.1 1539.11 Q1393.28 1536.63 1389.49 1536.63 Q1385.01 1536.63 1382.37 1539.68 Q1379.72 1542.71 1379.72 1547.9 L1379.72 1568.04 L1373.84 1568.04 L1373.84 1532.4 L1379.72 1532.4 L1379.72 1537.93 Q1381.73 1534.66 1384.53 1533.1 Q1387.33 1531.54 1391.18 1531.54 Q1395.06 1531.54 1397.77 1533.51 Q1400.51 1535.48 1401.81 1539.24 Z" fill="#000000" fill-rule="nonzero" fill-opacity="1" /><path clip-path="url(#clip320)" d="M1465.31 1539.24 Q1467.51 1535.29 1470.56 1533.41 Q1473.62 1531.54 1477.76 1531.54 Q1483.33 1531.54 1486.35 1535.45 Q1489.37 1539.33 1489.37 1546.53 L1489.37 1568.04 L1483.48 1568.04 L1483.48 1546.72 Q1483.48 1541.59 1481.67 1539.11 Q1479.86 1536.63 1476.13 1536.63 Q1471.58 1536.63 1468.94 1539.65 Q1466.3 1542.68 1466.3 1547.9 L1466.3 1568.04 L1460.41 1568.04 L1460.41 1546.72 Q1460.41 1541.56 1458.59 1539.11 Q1456.78 1536.63 1452.99 1536.63 Q1448.5 1536.63 1445.86 1539.68 Q1443.22 1542.71 1443.22 1547.9 L1443.22 1568.04 L1437.33 1568.04 L1437.33 1532.4 L1443.22 1532.4 L1443.22 1537.93 Q1445.23 1534.66 1448.03 1533.1 Q1450.83 1531.54 1454.68 1531.54 Q1458.56 1531.54 1461.27 1533.51 Q1464.01 1535.48 1465.31 1539.24 Z" fill="#000000" fill-rule="nonzero" fill-opacity="1" /><path clip-path="url(#clip320)" d="M1500.13 1518.58 L1505.22 1518.58 Q1510 1526.09 1512.35 1533.29 Q1514.74 1540.48 1514.74 1547.58 Q1514.74 1554.71 1512.35 1561.93 Q1510 1569.16 1505.22 1576.64 L1500.13 1576.64 Q1504.36 1569.35 1506.43 1562.16 Q1508.53 1554.93 1508.53 1547.58 Q1508.53 1540.23 1506.43 1533.06 Q1504.36 1525.9 1500.13 1518.58 Z" fill="#000000" fill-rule="nonzero" fill-opacity="1" /><polyline clip-path="url(#clip322)" style="stroke:#000000; stroke-linecap:round; stroke-linejoin:round; stroke-width:2; stroke-opacity:0.1; fill:none" points="205.121,1234.05 2352.76,1234.05 "/>
<polyline clip-path="url(#clip322)" style="stroke:#000000; stroke-linecap:round; stroke-linejoin:round; stroke-width:2; stroke-opacity:0.1; fill:none" points="205.121,1038.44 2352.76,1038.44 "/>
<polyline clip-path="url(#clip322)" style="stroke:#000000; stroke-linecap:round; stroke-linejoin:round; stroke-width:2; stroke-opacity:0.1; fill:none" points="205.121,842.831 2352.76,842.831 "/>
<polyline clip-path="url(#clip322)" style="stroke:#000000; stroke-linecap:round; stroke-linejoin:round; stroke-width:2; stroke-opacity:0.1; fill:none" points="205.121,647.221 2352.76,647.221 "/>
<polyline clip-path="url(#clip322)" style="stroke:#000000; stroke-linecap:round; stroke-linejoin:round; stroke-width:2; stroke-opacity:0.1; fill:none" points="205.121,451.612 2352.76,451.612 "/>
<polyline clip-path="url(#clip322)" style="stroke:#000000; stroke-linecap:round; stroke-linejoin:round; stroke-width:2; stroke-opacity:0.1; fill:none" points="205.121,256.002 2352.76,256.002 "/>
<polyline clip-path="url(#clip320)" style="stroke:#000000; stroke-linecap:round; stroke-linejoin:round; stroke-width:4; stroke-opacity:1; fill:none" points="205.121,1423.18 205.121,123.472 "/>
<polyline clip-path="url(#clip320)" style="stroke:#000000; stroke-linecap:round; stroke-linejoin:round; stroke-width:4; stroke-opacity:1; fill:none" points="205.121,1234.05 224.019,1234.05 "/>
<polyline clip-path="url(#clip320)" style="stroke:#000000; stroke-linecap:round; stroke-linejoin:round; stroke-width:4; stroke-opacity:1; fill:none" points="205.121,1038.44 224.019,1038.44 "/>
<polyline clip-path="url(#clip320)" style="stroke:#000000; stroke-linecap:round; stroke-linejoin:round; stroke-width:4; stroke-opacity:1; fill:none" points="205.121,842.831 224.019,842.831 "/>
<polyline clip-path="url(#clip320)" style="stroke:#000000; stroke-linecap:round; stroke-linejoin:round; stroke-width:4; stroke-opacity:1; fill:none" points="205.121,647.221 224.019,647.221 "/>
<polyline clip-path="url(#clip320)" style="stroke:#000000; stroke-linecap:round; stroke-linejoin:round; stroke-width:4; stroke-opacity:1; fill:none" points="205.121,451.612 224.019,451.612 "/>
<polyline clip-path="url(#clip320)" style="stroke:#000000; stroke-linecap:round; stroke-linejoin:round; stroke-width:4; stroke-opacity:1; fill:none" points="205.121,256.002 224.019,256.002 "/>
<path clip-path="url(#clip320)" d="M121.043 1247.4 L137.362 1247.4 L137.362 1251.33 L115.418 1251.33 L115.418 1247.4 Q118.08 1244.64 122.663 1240.01 Q127.269 1235.36 128.45 1234.02 Q130.695 1231.49 131.575 1229.76 Q132.478 1228 132.478 1226.31 Q132.478 1223.55 130.533 1221.82 Q128.612 1220.08 125.51 1220.08 Q123.311 1220.08 120.857 1220.84 Q118.427 1221.61 115.649 1223.16 L115.649 1218.44 Q118.473 1217.3 120.927 1216.72 Q123.38 1216.15 125.418 1216.15 Q130.788 1216.15 133.982 1218.83 Q137.177 1221.52 137.177 1226.01 Q137.177 1228.14 136.367 1230.06 Q135.579 1231.96 133.473 1234.55 Q132.894 1235.22 129.792 1238.44 Q126.691 1241.63 121.043 1247.4 Z" fill="#000000" fill-rule="nonzero" fill-opacity="1" /><path clip-path="url(#clip320)" d="M157.177 1219.85 Q153.566 1219.85 151.737 1223.41 Q149.931 1226.96 149.931 1234.09 Q149.931 1241.19 151.737 1244.76 Q153.566 1248.3 157.177 1248.3 Q160.811 1248.3 162.616 1244.76 Q164.445 1241.19 164.445 1234.09 Q164.445 1226.96 162.616 1223.41 Q160.811 1219.85 157.177 1219.85 M157.177 1216.15 Q162.987 1216.15 166.042 1220.75 Q169.121 1225.34 169.121 1234.09 Q169.121 1242.81 166.042 1247.42 Q162.987 1252 157.177 1252 Q151.366 1252 148.288 1247.42 Q145.232 1242.81 145.232 1234.09 Q145.232 1225.34 148.288 1220.75 Q151.366 1216.15 157.177 1216.15 Z" fill="#000000" fill-rule="nonzero" fill-opacity="1" /><path clip-path="url(#clip320)" d="M131.181 1037.09 Q134.538 1037.8 136.413 1040.07 Q138.311 1042.34 138.311 1045.67 Q138.311 1050.79 134.792 1053.59 Q131.274 1056.39 124.793 1056.39 Q122.617 1056.39 120.302 1055.95 Q118.01 1055.54 115.556 1054.68 L115.556 1050.17 Q117.501 1051.3 119.816 1051.88 Q122.13 1052.46 124.654 1052.46 Q129.052 1052.46 131.343 1050.72 Q133.658 1048.98 133.658 1045.67 Q133.658 1042.62 131.505 1040.91 Q129.376 1039.17 125.556 1039.17 L121.529 1039.17 L121.529 1035.33 L125.742 1035.33 Q129.191 1035.33 131.019 1033.96 Q132.848 1032.57 132.848 1029.98 Q132.848 1027.32 130.95 1025.91 Q129.075 1024.47 125.556 1024.47 Q123.635 1024.47 121.436 1024.89 Q119.237 1025.3 116.598 1026.18 L116.598 1022.02 Q119.26 1021.28 121.575 1020.91 Q123.913 1020.54 125.973 1020.54 Q131.297 1020.54 134.399 1022.97 Q137.501 1025.37 137.501 1029.49 Q137.501 1032.36 135.857 1034.36 Q134.214 1036.32 131.181 1037.09 Z" fill="#000000" fill-rule="nonzero" fill-opacity="1" /><path clip-path="url(#clip320)" d="M157.177 1024.24 Q153.566 1024.24 151.737 1027.8 Q149.931 1031.35 149.931 1038.48 Q149.931 1045.58 151.737 1049.15 Q153.566 1052.69 157.177 1052.69 Q160.811 1052.69 162.616 1049.15 Q164.445 1045.58 164.445 1038.48 Q164.445 1031.35 162.616 1027.8 Q160.811 1024.24 157.177 1024.24 M157.177 1020.54 Q162.987 1020.54 166.042 1025.14 Q169.121 1029.73 169.121 1038.48 Q169.121 1047.2 166.042 1051.81 Q162.987 1056.39 157.177 1056.39 Q151.366 1056.39 148.288 1051.81 Q145.232 1047.2 145.232 1038.48 Q145.232 1029.73 148.288 1025.14 Q151.366 1020.54 157.177 1020.54 Z" fill="#000000" fill-rule="nonzero" fill-opacity="1" /><path clip-path="url(#clip320)" d="M129.862 829.625 L118.056 848.074 L129.862 848.074 L129.862 829.625 M128.635 825.551 L134.515 825.551 L134.515 848.074 L139.445 848.074 L139.445 851.963 L134.515 851.963 L134.515 860.111 L129.862 860.111 L129.862 851.963 L114.26 851.963 L114.26 847.449 L128.635 825.551 Z" fill="#000000" fill-rule="nonzero" fill-opacity="1" /><path clip-path="url(#clip320)" d="M157.177 828.63 Q153.566 828.63 151.737 832.194 Q149.931 835.736 149.931 842.866 Q149.931 849.972 151.737 853.537 Q153.566 857.079 157.177 857.079 Q160.811 857.079 162.616 853.537 Q164.445 849.972 164.445 842.866 Q164.445 835.736 162.616 832.194 Q160.811 828.63 157.177 828.63 M157.177 824.926 Q162.987 824.926 166.042 829.532 Q169.121 834.116 169.121 842.866 Q169.121 851.592 166.042 856.199 Q162.987 860.782 157.177 860.782 Q151.366 860.782 148.288 856.199 Q145.232 851.592 145.232 842.866 Q145.232 834.116 148.288 829.532 Q151.366 824.926 157.177 824.926 Z" fill="#000000" fill-rule="nonzero" fill-opacity="1" /><path clip-path="url(#clip320)" d="M117.061 629.941 L135.417 629.941 L135.417 633.876 L121.343 633.876 L121.343 642.349 Q122.362 642.001 123.38 641.839 Q124.399 641.654 125.418 641.654 Q131.205 641.654 134.584 644.825 Q137.964 647.997 137.964 653.413 Q137.964 658.992 134.492 662.094 Q131.019 665.173 124.7 665.173 Q122.524 665.173 120.255 664.802 Q118.01 664.432 115.603 663.691 L115.603 658.992 Q117.686 660.126 119.908 660.682 Q122.13 661.237 124.607 661.237 Q128.612 661.237 130.95 659.131 Q133.288 657.024 133.288 653.413 Q133.288 649.802 130.95 647.696 Q128.612 645.589 124.607 645.589 Q122.732 645.589 120.857 646.006 Q119.006 646.423 117.061 647.302 L117.061 629.941 Z" fill="#000000" fill-rule="nonzero" fill-opacity="1" /><path clip-path="url(#clip320)" d="M157.177 633.02 Q153.566 633.02 151.737 636.585 Q149.931 640.126 149.931 647.256 Q149.931 654.362 151.737 657.927 Q153.566 661.469 157.177 661.469 Q160.811 661.469 162.616 657.927 Q164.445 654.362 164.445 647.256 Q164.445 640.126 162.616 636.585 Q160.811 633.02 157.177 633.02 M157.177 629.316 Q162.987 629.316 166.042 633.923 Q169.121 638.506 169.121 647.256 Q169.121 655.983 166.042 660.589 Q162.987 665.173 157.177 665.173 Q151.366 665.173 148.288 660.589 Q145.232 655.983 145.232 647.256 Q145.232 638.506 148.288 633.923 Q151.366 629.316 157.177 629.316 Z" fill="#000000" fill-rule="nonzero" fill-opacity="1" /><path clip-path="url(#clip320)" d="M127.593 449.748 Q124.445 449.748 122.593 451.901 Q120.765 454.054 120.765 457.804 Q120.765 461.531 122.593 463.706 Q124.445 465.859 127.593 465.859 Q130.742 465.859 132.57 463.706 Q134.422 461.531 134.422 457.804 Q134.422 454.054 132.57 451.901 Q130.742 449.748 127.593 449.748 M136.876 435.095 L136.876 439.355 Q135.117 438.521 133.311 438.082 Q131.529 437.642 129.769 437.642 Q125.14 437.642 122.686 440.767 Q120.255 443.892 119.908 450.211 Q121.274 448.197 123.334 447.132 Q125.394 446.044 127.871 446.044 Q133.08 446.044 136.089 449.216 Q139.121 452.364 139.121 457.804 Q139.121 463.128 135.973 466.345 Q132.825 469.563 127.593 469.563 Q121.598 469.563 118.427 464.98 Q115.256 460.373 115.256 451.646 Q115.256 443.452 119.144 438.591 Q123.033 433.707 129.584 433.707 Q131.343 433.707 133.126 434.054 Q134.931 434.401 136.876 435.095 Z" fill="#000000" fill-rule="nonzero" fill-opacity="1" /><path clip-path="url(#clip320)" d="M157.177 437.41 Q153.566 437.41 151.737 440.975 Q149.931 444.517 149.931 451.646 Q149.931 458.753 151.737 462.318 Q153.566 465.859 157.177 465.859 Q160.811 465.859 162.616 462.318 Q164.445 458.753 164.445 451.646 Q164.445 444.517 162.616 440.975 Q160.811 437.41 157.177 437.41 M157.177 433.707 Q162.987 433.707 166.042 438.313 Q169.121 442.896 169.121 451.646 Q169.121 460.373 166.042 464.98 Q162.987 469.563 157.177 469.563 Q151.366 469.563 148.288 464.98 Q145.232 460.373 145.232 451.646 Q145.232 442.896 148.288 438.313 Q151.366 433.707 157.177 433.707 Z" fill="#000000" fill-rule="nonzero" fill-opacity="1" /><path clip-path="url(#clip320)" d="M115.834 238.722 L138.056 238.722 L138.056 240.713 L125.51 273.282 L120.626 273.282 L132.431 242.657 L115.834 242.657 L115.834 238.722 Z" fill="#000000" fill-rule="nonzero" fill-opacity="1" /><path clip-path="url(#clip320)" d="M157.177 241.801 Q153.566 241.801 151.737 245.365 Q149.931 248.907 149.931 256.037 Q149.931 263.143 151.737 266.708 Q153.566 270.25 157.177 270.25 Q160.811 270.25 162.616 266.708 Q164.445 263.143 164.445 256.037 Q164.445 248.907 162.616 245.365 Q160.811 241.801 157.177 241.801 M157.177 238.097 Q162.987 238.097 166.042 242.703 Q169.121 247.287 169.121 256.037 Q169.121 264.763 166.042 269.37 Q162.987 273.953 157.177 273.953 Q151.366 273.953 148.288 269.37 Q145.232 264.763 145.232 256.037 Q145.232 247.287 148.288 242.703 Q151.366 238.097 157.177 238.097 Z" fill="#000000" fill-rule="nonzero" fill-opacity="1" /><path clip-path="url(#clip320)" d="M20.1444 1172.01 L26.9239 1172.01 Q23.9002 1175.26 22.4043 1178.95 Q20.9083 1182.61 20.9083 1186.75 Q20.9083 1194.89 25.9054 1199.22 Q30.8707 1203.55 40.2919 1203.55 Q49.6813 1203.55 54.6784 1199.22 Q59.6436 1194.89 59.6436 1186.75 Q59.6436 1182.61 58.1477 1178.95 Q56.6518 1175.26 53.6281 1172.01 L60.3439 1172.01 Q62.6355 1175.38 63.7814 1179.17 Q64.9272 1182.93 64.9272 1187.13 Q64.9272 1197.92 58.3387 1204.13 Q51.7183 1210.33 40.2919 1210.33 Q28.8336 1210.33 22.2451 1204.13 Q15.6248 1197.92 15.6248 1187.13 Q15.6248 1182.86 16.7706 1179.11 Q17.8846 1175.32 20.1444 1172.01 Z" fill="#000000" fill-rule="nonzero" fill-opacity="1" /><path clip-path="url(#clip320)" d="M32.4621 1148.52 Q32.4621 1153.23 36.1542 1155.97 Q39.8145 1158.71 46.212 1158.71 Q52.6095 1158.71 56.3017 1156 Q59.9619 1153.26 59.9619 1148.52 Q59.9619 1143.84 56.2698 1141.1 Q52.5777 1138.37 46.212 1138.37 Q39.8781 1138.37 36.186 1141.1 Q32.4621 1143.84 32.4621 1148.52 M27.4968 1148.52 Q27.4968 1140.88 32.4621 1136.52 Q37.4273 1132.16 46.212 1132.16 Q54.9649 1132.16 59.9619 1136.52 Q64.9272 1140.88 64.9272 1148.52 Q64.9272 1156.19 59.9619 1160.55 Q54.9649 1164.88 46.212 1164.88 Q37.4273 1164.88 32.4621 1160.55 Q27.4968 1156.19 27.4968 1148.52 Z" fill="#000000" fill-rule="nonzero" fill-opacity="1" /><path clip-path="url(#clip320)" d="M49.9359 1123.06 L28.3562 1123.06 L28.3562 1117.2 L49.7131 1117.2 Q54.7739 1117.2 57.3202 1115.23 Q59.8346 1113.25 59.8346 1109.31 Q59.8346 1104.57 56.8109 1101.83 Q53.7872 1099.06 48.5673 1099.06 L28.3562 1099.06 L28.3562 1093.2 L64.0042 1093.2 L64.0042 1099.06 L58.5296 1099.06 Q61.7762 1101.19 63.3676 1104.02 Q64.9272 1106.83 64.9272 1110.55 Q64.9272 1116.69 61.1078 1119.88 Q57.2883 1123.06 49.9359 1123.06 M27.4968 1108.32 L27.4968 1108.32 Z" fill="#000000" fill-rule="nonzero" fill-opacity="1" /><path clip-path="url(#clip320)" d="M42.4881 1051.51 L64.0042 1051.51 L64.0042 1057.36 L42.679 1057.36 Q37.6183 1057.36 35.1038 1059.34 Q32.5894 1061.31 32.5894 1065.26 Q32.5894 1070 35.6131 1072.74 Q38.6368 1075.47 43.8567 1075.47 L64.0042 1075.47 L64.0042 1081.36 L28.3562 1081.36 L28.3562 1075.47 L33.8944 1075.47 Q30.6797 1073.37 29.0883 1070.54 Q27.4968 1067.68 27.4968 1063.95 Q27.4968 1057.81 31.3163 1054.66 Q35.1038 1051.51 42.4881 1051.51 Z" fill="#000000" fill-rule="nonzero" fill-opacity="1" /><path clip-path="url(#clip320)" d="M18.2347 1034.03 L28.3562 1034.03 L28.3562 1021.97 L32.9077 1021.97 L32.9077 1034.03 L52.2594 1034.03 Q56.6199 1034.03 57.8613 1032.86 Q59.1026 1031.65 59.1026 1027.99 L59.1026 1021.97 L64.0042 1021.97 L64.0042 1027.99 Q64.0042 1034.77 61.4897 1037.34 Q58.9434 1039.92 52.2594 1039.92 L32.9077 1039.92 L32.9077 1044.22 L28.3562 1044.22 L28.3562 1039.92 L18.2347 1039.92 L18.2347 1034.03 Z" fill="#000000" fill-rule="nonzero" fill-opacity="1" /><path clip-path="url(#clip320)" d="M33.8307 972.891 Q33.2578 973.878 33.0032 975.055 Q32.7167 976.201 32.7167 977.602 Q32.7167 982.567 35.9632 985.24 Q39.1779 987.882 45.2253 987.882 L64.0042 987.882 L64.0042 993.77 L28.3562 993.77 L28.3562 987.882 L33.8944 987.882 Q30.6479 986.036 29.0883 983.076 Q27.4968 980.116 27.4968 975.883 Q27.4968 975.278 27.5923 974.546 Q27.656 973.814 27.8151 972.923 L33.8307 972.891 Z" fill="#000000" fill-rule="nonzero" fill-opacity="1" /><path clip-path="url(#clip320)" d="M46.0847 950.547 Q46.0847 957.645 47.7079 960.382 Q49.3312 963.12 53.2461 963.12 Q56.3653 963.12 58.2114 961.083 Q60.0256 959.014 60.0256 955.481 Q60.0256 950.611 56.5881 947.683 Q53.1188 944.723 47.3897 944.723 L46.0847 944.723 L46.0847 950.547 M43.6657 938.866 L64.0042 938.866 L64.0042 944.723 L58.5933 944.723 Q61.8398 946.728 63.3994 949.72 Q64.9272 952.712 64.9272 957.04 Q64.9272 962.515 61.8716 965.761 Q58.7843 968.976 53.6281 968.976 Q47.6125 968.976 44.5569 964.966 Q41.5014 960.923 41.5014 952.934 L41.5014 944.723 L40.9285 944.723 Q36.8862 944.723 34.6901 947.396 Q32.4621 950.038 32.4621 954.844 Q32.4621 957.9 33.1941 960.796 Q33.9262 963.692 35.3903 966.366 L29.9795 966.366 Q28.7381 963.151 28.1334 960.128 Q27.4968 957.104 27.4968 954.239 Q27.4968 946.505 31.5072 942.686 Q35.5176 938.866 43.6657 938.866 Z" fill="#000000" fill-rule="nonzero" fill-opacity="1" /><path clip-path="url(#clip320)" d="M18.2347 921.01 L28.3562 921.01 L28.3562 908.947 L32.9077 908.947 L32.9077 921.01 L52.2594 921.01 Q56.6199 921.01 57.8613 919.833 Q59.1026 918.623 59.1026 914.963 L59.1026 908.947 L64.0042 908.947 L64.0042 914.963 Q64.0042 921.742 61.4897 924.321 Q58.9434 926.899 52.2594 926.899 L32.9077 926.899 L32.9077 931.196 L28.3562 931.196 L28.3562 926.899 L18.2347 926.899 L18.2347 921.01 Z" fill="#000000" fill-rule="nonzero" fill-opacity="1" /><path clip-path="url(#clip320)" d="M44.7161 870.753 L47.5806 870.753 L47.5806 897.68 Q53.6281 897.298 56.8109 894.052 Q59.9619 890.773 59.9619 884.949 Q59.9619 881.575 59.1344 878.424 Q58.3069 875.241 56.6518 872.122 L62.1899 872.122 Q63.5267 875.273 64.227 878.583 Q64.9272 881.893 64.9272 885.299 Q64.9272 893.829 59.9619 898.826 Q54.9967 903.791 46.5303 903.791 Q37.7774 903.791 32.6531 899.081 Q27.4968 894.338 27.4968 886.317 Q27.4968 879.124 32.1438 874.954 Q36.7589 870.753 44.7161 870.753 M42.9973 876.61 Q38.1912 876.673 35.3266 879.315 Q32.4621 881.925 32.4621 886.254 Q32.4621 891.155 35.2312 894.115 Q38.0002 897.043 43.0292 897.489 L42.9973 876.61 Z" fill="#000000" fill-rule="nonzero" fill-opacity="1" /><path clip-path="url(#clip320)" d="M14.5426 826.352 Q21.8632 830.617 29.0246 832.686 Q36.186 834.755 43.5384 834.755 Q50.8908 834.755 58.1159 832.686 Q65.3091 830.586 72.5979 826.352 L72.5979 831.445 Q65.1182 836.219 57.8931 838.606 Q50.668 840.962 43.5384 840.962 Q36.4406 840.962 29.2474 838.606 Q22.0542 836.251 14.5426 831.445 L14.5426 826.352 Z" fill="#000000" fill-rule="nonzero" fill-opacity="1" /><path clip-path="url(#clip320)" d="M29.7248 789.336 L35.1993 789.336 Q33.8307 791.818 33.1623 794.333 Q32.4621 796.815 32.4621 799.362 Q32.4621 805.059 36.0905 808.21 Q39.6872 811.361 46.212 811.361 Q52.7369 811.361 56.3653 808.21 Q59.9619 805.059 59.9619 799.362 Q59.9619 796.815 59.2935 794.333 Q58.5933 791.818 57.2247 789.336 L62.6355 789.336 Q63.7814 791.787 64.3543 794.428 Q64.9272 797.038 64.9272 799.998 Q64.9272 808.051 59.8664 812.793 Q54.8057 817.536 46.212 817.536 Q37.491 817.536 32.4939 812.762 Q27.4968 807.955 27.4968 799.616 Q27.4968 796.911 28.0697 794.333 Q28.6108 791.755 29.7248 789.336 Z" fill="#000000" fill-rule="nonzero" fill-opacity="1" /><path clip-path="url(#clip320)" d="M32.4621 765.337 Q32.4621 770.048 36.1542 772.785 Q39.8145 775.522 46.212 775.522 Q52.6095 775.522 56.3017 772.817 Q59.9619 770.079 59.9619 765.337 Q59.9619 760.658 56.2698 757.921 Q52.5777 755.184 46.212 755.184 Q39.8781 755.184 36.186 757.921 Q32.4621 760.658 32.4621 765.337 M27.4968 765.337 Q27.4968 757.698 32.4621 753.338 Q37.4273 748.977 46.212 748.977 Q54.9649 748.977 59.9619 753.338 Q64.9272 757.698 64.9272 765.337 Q64.9272 773.008 59.9619 777.368 Q54.9649 781.697 46.212 781.697 Q37.4273 781.697 32.4621 777.368 Q27.4968 773.008 27.4968 765.337 Z" fill="#000000" fill-rule="nonzero" fill-opacity="1" /><path clip-path="url(#clip320)" d="M49.9359 739.874 L28.3562 739.874 L28.3562 734.018 L49.7131 734.018 Q54.7739 734.018 57.3202 732.044 Q59.8346 730.071 59.8346 726.124 Q59.8346 721.382 56.8109 718.645 Q53.7872 715.875 48.5673 715.875 L28.3562 715.875 L28.3562 710.019 L64.0042 710.019 L64.0042 715.875 L58.5296 715.875 Q61.7762 718.008 63.3676 720.841 Q64.9272 723.642 64.9272 727.366 Q64.9272 733.508 61.1078 736.691 Q57.2883 739.874 49.9359 739.874 M27.4968 725.138 L27.4968 725.138 Z" fill="#000000" fill-rule="nonzero" fill-opacity="1" /><path clip-path="url(#clip320)" d="M42.4881 668.324 L64.0042 668.324 L64.0042 674.18 L42.679 674.18 Q37.6183 674.18 35.1038 676.153 Q32.5894 678.127 32.5894 682.074 Q32.5894 686.816 35.6131 689.553 Q38.6368 692.291 43.8567 692.291 L64.0042 692.291 L64.0042 698.179 L28.3562 698.179 L28.3562 692.291 L33.8944 692.291 Q30.6797 690.19 29.0883 687.357 Q27.4968 684.493 27.4968 680.769 Q27.4968 674.626 31.3163 671.475 Q35.1038 668.324 42.4881 668.324 Z" fill="#000000" fill-rule="nonzero" fill-opacity="1" /><path clip-path="url(#clip320)" d="M18.2347 650.85 L28.3562 650.85 L28.3562 638.787 L32.9077 638.787 L32.9077 650.85 L52.2594 650.85 Q56.6199 650.85 57.8613 649.672 Q59.1026 648.463 59.1026 644.802 L59.1026 638.787 L64.0042 638.787 L64.0042 644.802 Q64.0042 651.582 61.4897 654.16 Q58.9434 656.738 52.2594 656.738 L32.9077 656.738 L32.9077 661.035 L28.3562 661.035 L28.3562 656.738 L18.2347 656.738 L18.2347 650.85 Z" fill="#000000" fill-rule="nonzero" fill-opacity="1" /><path clip-path="url(#clip320)" d="M16.4842 620.676 L16.4842 615.265 L70.0516 631.816 L70.0516 637.227 L16.4842 620.676 Z" fill="#000000" fill-rule="nonzero" fill-opacity="1" /><path clip-path="url(#clip320)" d="M29.4065 586.397 L34.9447 586.397 Q33.6716 588.88 33.035 591.553 Q32.3984 594.227 32.3984 597.091 Q32.3984 601.452 33.7352 603.648 Q35.072 605.812 37.7456 605.812 Q39.7826 605.812 40.9603 604.253 Q42.1061 602.693 43.1565 597.983 L43.6021 595.977 Q44.9389 589.739 47.3897 587.129 Q49.8086 584.487 54.1691 584.487 Q59.1344 584.487 62.0308 588.434 Q64.9272 592.349 64.9272 599.224 Q64.9272 602.088 64.3543 605.208 Q63.8132 608.295 62.6992 611.733 L56.6518 611.733 Q58.3387 608.486 59.198 605.335 Q60.0256 602.184 60.0256 599.097 Q60.0256 594.959 58.6251 592.731 Q57.1929 590.503 54.6147 590.503 Q52.2276 590.503 50.9545 592.126 Q49.6813 593.718 48.5037 599.16 L48.0262 601.197 Q46.8804 606.64 44.5251 609.059 Q42.138 611.478 38.0002 611.478 Q32.9713 611.478 30.2341 607.913 Q27.4968 604.348 27.4968 597.792 Q27.4968 594.545 27.9743 591.681 Q28.4517 588.816 29.4065 586.397 Z" fill="#000000" fill-rule="nonzero" fill-opacity="1" /><path clip-path="url(#clip320)" d="M14.5426 576.085 L14.5426 570.992 Q22.0542 566.218 29.2474 563.862 Q36.4406 561.475 43.5384 561.475 Q50.668 561.475 57.8931 563.862 Q65.1182 566.218 72.5979 570.992 L72.5979 576.085 Q65.3091 571.851 58.1159 569.783 Q50.8908 567.682 43.5384 567.682 Q36.186 567.682 29.0246 569.783 Q21.8632 571.851 14.5426 576.085 Z" fill="#000000" fill-rule="nonzero" fill-opacity="1" /><path clip-path="url(#clip320)" d="M14.5426 514.942 Q21.8632 519.207 29.0246 521.276 Q36.186 523.345 43.5384 523.345 Q50.8908 523.345 58.1159 521.276 Q65.3091 519.175 72.5979 514.942 L72.5979 520.035 Q65.1182 524.809 57.8931 527.196 Q50.668 529.551 43.5384 529.551 Q36.4406 529.551 29.2474 527.196 Q22.0542 524.841 14.5426 520.035 L14.5426 514.942 Z" fill="#000000" fill-rule="nonzero" fill-opacity="1" /><path clip-path="url(#clip320)" d="M29.4065 480.854 L34.9447 480.854 Q33.6716 483.336 33.035 486.01 Q32.3984 488.683 32.3984 491.548 Q32.3984 495.908 33.7352 498.105 Q35.072 500.269 37.7456 500.269 Q39.7826 500.269 40.9603 498.709 Q42.1061 497.15 43.1565 492.439 L43.6021 490.434 Q44.9389 484.196 47.3897 481.586 Q49.8086 478.944 54.1691 478.944 Q59.1344 478.944 62.0308 482.891 Q64.9272 486.806 64.9272 493.68 Q64.9272 496.545 64.3543 499.664 Q63.8132 502.752 62.6992 506.189 L56.6518 506.189 Q58.3387 502.943 59.198 499.792 Q60.0256 496.641 60.0256 493.553 Q60.0256 489.415 58.6251 487.187 Q57.1929 484.959 54.6147 484.959 Q52.2276 484.959 50.9545 486.583 Q49.6813 488.174 48.5037 493.617 L48.0262 495.654 Q46.8804 501.097 44.5251 503.516 Q42.138 505.934 38.0002 505.934 Q32.9713 505.934 30.2341 502.37 Q27.4968 498.805 27.4968 492.248 Q27.4968 489.002 27.9743 486.137 Q28.4517 483.273 29.4065 480.854 Z" fill="#000000" fill-rule="nonzero" fill-opacity="1" /><path clip-path="url(#clip320)" d="M16.4842 445.333 L34.2127 428.05 L34.2127 434.448 L21.6404 448.452 L34.2127 462.457 L34.2127 468.854 L16.4842 451.571 L16.4842 445.333 Z" fill="#000000" fill-rule="nonzero" fill-opacity="1" /><path clip-path="url(#clip320)" d="M43.5384 417.96 L43.5384 400.805 L48.7583 400.805 L48.7583 417.96 L43.5384 417.96 Z" fill="#000000" fill-rule="nonzero" fill-opacity="1" /><path clip-path="url(#clip320)" d="M58.5933 389.538 L58.5933 379.034 L22.3406 379.034 L24.6323 390.461 L18.7758 390.461 L16.4842 379.098 L16.4842 372.668 L58.5933 372.668 L58.5933 362.165 L64.0042 362.165 L64.0042 389.538 L58.5933 389.538 Z" fill="#000000" fill-rule="nonzero" fill-opacity="1" /><path clip-path="url(#clip320)" d="M14.5426 350.93 L14.5426 345.837 Q22.0542 341.063 29.2474 338.707 Q36.4406 336.32 43.5384 336.32 Q50.668 336.32 57.8931 338.707 Q65.1182 341.063 72.5979 345.837 L72.5979 350.93 Q65.3091 346.696 58.1159 344.627 Q50.8908 342.527 43.5384 342.527 Q36.186 342.527 29.0246 344.627 Q21.8632 346.696 14.5426 350.93 Z" fill="#000000" fill-rule="nonzero" fill-opacity="1" /><path clip-path="url(#clip320)" d="M765.77 9.62495 Q760.342 18.942 757.709 28.0566 Q755.076 37.1711 755.076 46.5287 Q755.076 55.8863 757.709 65.0818 Q760.382 74.2369 765.77 83.5134 L759.288 83.5134 Q753.212 73.9938 750.174 64.7983 Q747.176 55.6027 747.176 46.5287 Q747.176 37.4952 750.174 28.3401 Q753.172 19.1851 759.288 9.62495 L765.77 9.62495 Z" fill="#000000" fill-rule="nonzero" fill-opacity="1" /><path clip-path="url(#clip320)" d="M780.232 27.2059 L787.685 27.2059 L787.685 72.576 L780.232 72.576 L780.232 27.2059 M780.232 9.54393 L787.685 9.54393 L787.685 18.9825 L780.232 18.9825 L780.232 9.54393 Z" fill="#000000" fill-rule="nonzero" fill-opacity="1" /><path clip-path="url(#clip320)" d="M803.281 27.2059 L810.735 27.2059 L810.735 72.576 L803.281 72.576 L803.281 27.2059 M803.281 9.54393 L810.735 9.54393 L810.735 18.9825 L803.281 18.9825 L803.281 9.54393 Z" fill="#000000" fill-rule="nonzero" fill-opacity="1" /><path clip-path="url(#clip320)" d="M825.156 9.62495 L831.638 9.62495 Q837.714 19.1851 840.712 28.3401 Q843.75 37.4952 843.75 46.5287 Q843.75 55.6027 840.712 64.7983 Q837.714 73.9938 831.638 83.5134 L825.156 83.5134 Q830.544 74.2369 833.177 65.0818 Q835.851 55.8863 835.851 46.5287 Q835.851 37.1711 833.177 28.0566 Q830.544 18.942 825.156 9.62495 Z" fill="#000000" fill-rule="nonzero" fill-opacity="1" /><path clip-path="url(#clip320)" d="M930.682 16.7545 L930.682 25.383 Q926.55 21.5346 921.851 19.6307 Q917.193 17.7268 911.927 17.7268 Q901.556 17.7268 896.047 24.0867 Q890.538 30.4061 890.538 42.3968 Q890.538 54.3469 896.047 60.7069 Q901.556 67.0263 911.927 67.0263 Q917.193 67.0263 921.851 65.1223 Q926.55 63.2184 930.682 59.3701 L930.682 67.9175 Q926.388 70.8341 921.568 72.2924 Q916.788 73.7508 911.44 73.7508 Q897.708 73.7508 889.809 65.3654 Q881.909 56.9395 881.909 42.3968 Q881.909 27.8135 889.809 19.4281 Q897.708 11.0023 911.44 11.0023 Q916.869 11.0023 921.649 12.4606 Q926.469 13.8784 930.682 16.7545 Z" fill="#000000" fill-rule="nonzero" fill-opacity="1" /><path clip-path="url(#clip320)" d="M960.578 32.4315 Q954.583 32.4315 951.099 37.1306 Q947.615 41.7891 947.615 49.9314 Q947.615 58.0738 951.058 62.7728 Q954.542 67.4314 960.578 67.4314 Q966.533 67.4314 970.016 62.7323 Q973.5 58.0333 973.5 49.9314 Q973.5 41.8701 970.016 37.1711 Q966.533 32.4315 960.578 32.4315 M960.578 26.1121 Q970.3 26.1121 975.85 32.4315 Q981.4 38.7509 981.4 49.9314 Q981.4 61.0714 975.85 67.4314 Q970.3 73.7508 960.578 73.7508 Q950.815 73.7508 945.265 67.4314 Q939.756 61.0714 939.756 49.9314 Q939.756 38.7509 945.265 32.4315 Q950.815 26.1121 960.578 26.1121 Z" fill="#000000" fill-rule="nonzero" fill-opacity="1" /><path clip-path="url(#clip320)" d="M992.985 54.671 L992.985 27.2059 L1000.44 27.2059 L1000.44 54.3874 Q1000.44 60.8284 1002.95 64.0691 Q1005.46 67.2693 1010.49 67.2693 Q1016.52 67.2693 1020 63.421 Q1023.53 59.5726 1023.53 52.9291 L1023.53 27.2059 L1030.98 27.2059 L1030.98 72.576 L1023.53 72.576 L1023.53 65.6084 Q1020.81 69.7404 1017.21 71.7658 Q1013.64 73.7508 1008.91 73.7508 Q1001.09 73.7508 997.036 68.8897 Q992.985 64.0286 992.985 54.671 M1011.74 26.1121 L1011.74 26.1121 Z" fill="#000000" fill-rule="nonzero" fill-opacity="1" /><path clip-path="url(#clip320)" d="M1084.05 45.1919 L1084.05 72.576 L1076.6 72.576 L1076.6 45.4349 Q1076.6 38.994 1074.08 35.7938 Q1071.57 32.5936 1066.55 32.5936 Q1060.51 32.5936 1057.03 36.4419 Q1053.55 40.2903 1053.55 46.9338 L1053.55 72.576 L1046.05 72.576 L1046.05 27.2059 L1053.55 27.2059 L1053.55 34.2544 Q1056.22 30.163 1059.83 28.1376 Q1063.47 26.1121 1068.21 26.1121 Q1076.03 26.1121 1080.04 30.9732 Q1084.05 35.7938 1084.05 45.1919 Z" fill="#000000" fill-rule="nonzero" fill-opacity="1" /><path clip-path="url(#clip320)" d="M1106.29 14.324 L1106.29 27.2059 L1121.64 27.2059 L1121.64 32.9987 L1106.29 32.9987 L1106.29 57.6282 Q1106.29 63.1779 1107.79 64.7578 Q1109.33 66.3376 1113.99 66.3376 L1121.64 66.3376 L1121.64 72.576 L1113.99 72.576 Q1105.36 72.576 1102.08 69.3758 Q1098.79 66.1351 1098.79 57.6282 L1098.79 32.9987 L1093.33 32.9987 L1093.33 27.2059 L1098.79 27.2059 L1098.79 14.324 L1106.29 14.324 Z" fill="#000000" fill-rule="nonzero" fill-opacity="1" /><path clip-path="url(#clip320)" d="M1184.11 34.1734 Q1182.85 33.4443 1181.35 33.1202 Q1179.89 32.7556 1178.11 32.7556 Q1171.79 32.7556 1168.39 36.8875 Q1165.03 40.9789 1165.03 48.6757 L1165.03 72.576 L1157.53 72.576 L1157.53 27.2059 L1165.03 27.2059 L1165.03 34.2544 Q1167.38 30.1225 1171.14 28.1376 Q1174.91 26.1121 1180.3 26.1121 Q1181.07 26.1121 1182 26.2337 Q1182.93 26.3147 1184.07 26.5172 L1184.11 34.1734 Z" fill="#000000" fill-rule="nonzero" fill-opacity="1" /><path clip-path="url(#clip320)" d="M1212.54 49.7694 Q1203.51 49.7694 1200.03 51.8354 Q1196.54 53.9013 1196.54 58.8839 Q1196.54 62.8538 1199.14 65.2034 Q1201.77 67.5124 1206.27 67.5124 Q1212.46 67.5124 1216.19 63.1374 Q1219.96 58.7219 1219.96 51.4303 L1219.96 49.7694 L1212.54 49.7694 M1227.41 46.6907 L1227.41 72.576 L1219.96 72.576 L1219.96 65.6895 Q1217.41 69.8214 1213.6 71.8063 Q1209.79 73.7508 1204.28 73.7508 Q1197.31 73.7508 1193.18 69.8619 Q1189.09 65.9325 1189.09 59.3701 Q1189.09 51.7138 1194.19 47.825 Q1199.34 43.9361 1209.51 43.9361 L1219.96 43.9361 L1219.96 43.2069 Q1219.96 38.0623 1216.55 35.2672 Q1213.19 32.4315 1207.08 32.4315 Q1203.19 32.4315 1199.5 33.3632 Q1195.81 34.295 1192.41 36.1584 L1192.41 29.2718 Q1196.5 27.692 1200.35 26.9223 Q1204.2 26.1121 1207.85 26.1121 Q1217.69 26.1121 1222.55 31.2163 Q1227.41 36.3204 1227.41 46.6907 Z" fill="#000000" fill-rule="nonzero" fill-opacity="1" /><path clip-path="url(#clip320)" d="M1250.14 14.324 L1250.14 27.2059 L1265.49 27.2059 L1265.49 32.9987 L1250.14 32.9987 L1250.14 57.6282 Q1250.14 63.1779 1251.64 64.7578 Q1253.17 66.3376 1257.83 66.3376 L1265.49 66.3376 L1265.49 72.576 L1257.83 72.576 Q1249.2 72.576 1245.92 69.3758 Q1242.64 66.1351 1242.64 57.6282 L1242.64 32.9987 L1237.17 32.9987 L1237.17 27.2059 L1242.64 27.2059 L1242.64 14.324 L1250.14 14.324 Z" fill="#000000" fill-rule="nonzero" fill-opacity="1" /><path clip-path="url(#clip320)" d="M1314.1 48.0275 L1314.1 51.6733 L1279.83 51.6733 Q1280.32 59.3701 1284.45 63.421 Q1288.62 67.4314 1296.03 67.4314 Q1300.33 67.4314 1304.34 66.3781 Q1308.39 65.3249 1312.36 63.2184 L1312.36 70.267 Q1308.35 71.9684 1304.14 72.8596 Q1299.92 73.7508 1295.59 73.7508 Q1284.73 73.7508 1278.37 67.4314 Q1272.05 61.1119 1272.05 50.3365 Q1272.05 39.1965 1278.05 32.6746 Q1284.08 26.1121 1294.29 26.1121 Q1303.45 26.1121 1308.75 32.0264 Q1314.1 37.9003 1314.1 48.0275 M1306.65 45.84 Q1306.57 39.7232 1303.2 36.0774 Q1299.88 32.4315 1294.37 32.4315 Q1288.13 32.4315 1284.37 35.9558 Q1280.64 39.4801 1280.07 45.8805 L1306.65 45.84 Z" fill="#000000" fill-rule="nonzero" fill-opacity="1" /><path clip-path="url(#clip320)" d="M1347.36 27.2059 L1355.26 27.2059 L1369.44 65.2844 L1383.61 27.2059 L1391.51 27.2059 L1374.5 72.576 L1364.37 72.576 L1347.36 27.2059 Z" fill="#000000" fill-rule="nonzero" fill-opacity="1" /><path clip-path="url(#clip320)" d="M1430.73 28.5427 L1430.73 35.5912 Q1427.57 33.9709 1424.16 33.1607 Q1420.76 32.3505 1417.11 32.3505 Q1411.57 32.3505 1408.77 34.0519 Q1406.02 35.7533 1406.02 39.156 Q1406.02 41.7486 1408 43.2475 Q1409.99 44.7058 1415.98 46.0426 L1418.53 46.6097 Q1426.47 48.3111 1429.79 51.4303 Q1433.16 54.509 1433.16 60.0587 Q1433.16 66.3781 1428.13 70.0644 Q1423.15 73.7508 1414.4 73.7508 Q1410.75 73.7508 1406.78 73.0216 Q1402.86 72.3329 1398.48 70.9151 L1398.48 63.2184 Q1402.61 65.3654 1406.62 66.4591 Q1410.63 67.5124 1414.56 67.5124 Q1419.83 67.5124 1422.66 65.73 Q1425.5 63.9071 1425.5 60.6258 Q1425.5 57.5877 1423.43 55.9673 Q1421.41 54.3469 1414.48 52.8481 L1411.89 52.2405 Q1404.96 50.7821 1401.88 47.7845 Q1398.8 44.7463 1398.8 39.4801 Q1398.8 33.0797 1403.34 29.5959 Q1407.88 26.1121 1416.22 26.1121 Q1420.36 26.1121 1424 26.7198 Q1427.65 27.3274 1430.73 28.5427 Z" fill="#000000" fill-rule="nonzero" fill-opacity="1" /><path clip-path="url(#clip320)" d="M1501.25 34.0924 L1501.25 9.54393 L1508.71 9.54393 L1508.71 72.576 L1501.25 72.576 L1501.25 65.7705 Q1498.9 69.8214 1495.3 71.8063 Q1491.73 73.7508 1486.71 73.7508 Q1478.49 73.7508 1473.3 67.1883 Q1468.16 60.6258 1468.16 49.9314 Q1468.16 39.2371 1473.3 32.6746 Q1478.49 26.1121 1486.71 26.1121 Q1491.73 26.1121 1495.3 28.0971 Q1498.9 30.0415 1501.25 34.0924 M1475.85 49.9314 Q1475.85 58.1548 1479.22 62.8538 Q1482.62 67.5124 1488.53 67.5124 Q1494.45 67.5124 1497.85 62.8538 Q1501.25 58.1548 1501.25 49.9314 Q1501.25 41.7081 1497.85 37.0496 Q1494.45 32.3505 1488.53 32.3505 Q1482.62 32.3505 1479.22 37.0496 Q1475.85 41.7081 1475.85 49.9314 Z" fill="#000000" fill-rule="nonzero" fill-opacity="1" /><path clip-path="url(#clip320)" d="M1524.06 27.2059 L1531.51 27.2059 L1531.51 72.576 L1524.06 72.576 L1524.06 27.2059 M1524.06 9.54393 L1531.51 9.54393 L1531.51 18.9825 L1524.06 18.9825 L1524.06 9.54393 Z" fill="#000000" fill-rule="nonzero" fill-opacity="1" /><path clip-path="url(#clip320)" d="M1576.03 28.5427 L1576.03 35.5912 Q1572.87 33.9709 1569.47 33.1607 Q1566.07 32.3505 1562.42 32.3505 Q1556.87 32.3505 1554.08 34.0519 Q1551.32 35.7533 1551.32 39.156 Q1551.32 41.7486 1553.31 43.2475 Q1555.29 44.7058 1561.29 46.0426 L1563.84 46.6097 Q1571.78 48.3111 1575.1 51.4303 Q1578.46 54.509 1578.46 60.0587 Q1578.46 66.3781 1573.44 70.0644 Q1568.46 73.7508 1559.71 73.7508 Q1556.06 73.7508 1552.09 73.0216 Q1548.16 72.3329 1543.79 70.9151 L1543.79 63.2184 Q1547.92 65.3654 1551.93 66.4591 Q1555.94 67.5124 1559.87 67.5124 Q1565.13 67.5124 1567.97 65.73 Q1570.81 63.9071 1570.81 60.6258 Q1570.81 57.5877 1568.74 55.9673 Q1566.71 54.3469 1559.79 52.8481 L1557.2 52.2405 Q1550.27 50.7821 1547.19 47.7845 Q1544.11 44.7463 1544.11 39.4801 Q1544.11 33.0797 1548.65 29.5959 Q1553.18 26.1121 1561.53 26.1121 Q1565.66 26.1121 1569.31 26.7198 Q1572.95 27.3274 1576.03 28.5427 Z" fill="#000000" fill-rule="nonzero" fill-opacity="1" /><path clip-path="url(#clip320)" d="M1597.7 14.324 L1597.7 27.2059 L1613.06 27.2059 L1613.06 32.9987 L1597.7 32.9987 L1597.7 57.6282 Q1597.7 63.1779 1599.2 64.7578 Q1600.74 66.3376 1605.4 66.3376 L1613.06 66.3376 L1613.06 72.576 L1605.4 72.576 Q1596.77 72.576 1593.49 69.3758 Q1590.21 66.1351 1590.21 57.6282 L1590.21 32.9987 L1584.74 32.9987 L1584.74 27.2059 L1590.21 27.2059 L1590.21 14.324 L1597.7 14.324 Z" fill="#000000" fill-rule="nonzero" fill-opacity="1" /><path clip-path="url(#clip320)" d="M1643.48 49.7694 Q1634.45 49.7694 1630.96 51.8354 Q1627.48 53.9013 1627.48 58.8839 Q1627.48 62.8538 1630.07 65.2034 Q1632.7 67.5124 1637.2 67.5124 Q1643.4 67.5124 1647.13 63.1374 Q1650.89 58.7219 1650.89 51.4303 L1650.89 49.7694 L1643.48 49.7694 M1658.35 46.6907 L1658.35 72.576 L1650.89 72.576 L1650.89 65.6895 Q1648.34 69.8214 1644.53 71.8063 Q1640.72 73.7508 1635.22 73.7508 Q1628.25 73.7508 1624.12 69.8619 Q1620.02 65.9325 1620.02 59.3701 Q1620.02 51.7138 1625.13 47.825 Q1630.27 43.9361 1640.44 43.9361 L1650.89 43.9361 L1650.89 43.2069 Q1650.89 38.0623 1647.49 35.2672 Q1644.13 32.4315 1638.01 32.4315 Q1634.12 32.4315 1630.44 33.3632 Q1626.75 34.295 1623.35 36.1584 L1623.35 29.2718 Q1627.44 27.692 1631.29 26.9223 Q1635.13 26.1121 1638.78 26.1121 Q1648.62 26.1121 1653.49 31.2163 Q1658.35 36.3204 1658.35 46.6907 Z" fill="#000000" fill-rule="nonzero" fill-opacity="1" /><path clip-path="url(#clip320)" d="M1711.41 45.1919 L1711.41 72.576 L1703.96 72.576 L1703.96 45.4349 Q1703.96 38.994 1701.45 35.7938 Q1698.94 32.5936 1693.91 32.5936 Q1687.88 32.5936 1684.39 36.4419 Q1680.91 40.2903 1680.91 46.9338 L1680.91 72.576 L1673.42 72.576 L1673.42 27.2059 L1680.91 27.2059 L1680.91 34.2544 Q1683.58 30.163 1687.19 28.1376 Q1690.83 26.1121 1695.57 26.1121 Q1703.39 26.1121 1707.4 30.9732 Q1711.41 35.7938 1711.41 45.1919 Z" fill="#000000" fill-rule="nonzero" fill-opacity="1" /><path clip-path="url(#clip320)" d="M1758.93 28.9478 L1758.93 35.9153 Q1755.77 34.1734 1752.57 33.3227 Q1749.41 32.4315 1746.17 32.4315 Q1738.92 32.4315 1734.91 37.0496 Q1730.9 41.6271 1730.9 49.9314 Q1730.9 58.2358 1734.91 62.8538 Q1738.92 67.4314 1746.17 67.4314 Q1749.41 67.4314 1752.57 66.5807 Q1755.77 65.6895 1758.93 63.9476 L1758.93 70.8341 Q1755.81 72.2924 1752.45 73.0216 Q1749.13 73.7508 1745.36 73.7508 Q1735.11 73.7508 1729.07 67.3098 Q1723.04 60.8689 1723.04 49.9314 Q1723.04 38.832 1729.12 32.472 Q1735.23 26.1121 1745.85 26.1121 Q1749.29 26.1121 1752.57 26.8413 Q1755.85 27.5299 1758.93 28.9478 Z" fill="#000000" fill-rule="nonzero" fill-opacity="1" /><path clip-path="url(#clip320)" d="M1810.7 48.0275 L1810.7 51.6733 L1776.43 51.6733 Q1776.92 59.3701 1781.05 63.421 Q1785.22 67.4314 1792.63 67.4314 Q1796.93 67.4314 1800.94 66.3781 Q1804.99 65.3249 1808.96 63.2184 L1808.96 70.267 Q1804.95 71.9684 1800.74 72.8596 Q1796.52 73.7508 1792.19 73.7508 Q1781.33 73.7508 1774.97 67.4314 Q1768.65 61.1119 1768.65 50.3365 Q1768.65 39.1965 1774.65 32.6746 Q1780.68 26.1121 1790.89 26.1121 Q1800.05 26.1121 1805.35 32.0264 Q1810.7 37.9003 1810.7 48.0275 M1803.25 45.84 Q1803.17 39.7232 1799.8 36.0774 Q1796.48 32.4315 1790.97 32.4315 Q1784.73 32.4315 1780.97 35.9558 Q1777.24 39.4801 1776.67 45.8805 L1803.25 45.84 Z" fill="#000000" fill-rule="nonzero" fill-opacity="1" /><polyline clip-path="url(#clip322)" style="stroke:#000000; stroke-linecap:round; stroke-linejoin:round; stroke-width:4; stroke-opacity:1; fill:none" points="265.903,304.584 265.903,245.238 "/>
<polyline clip-path="url(#clip322)" style="stroke:#000000; stroke-linecap:round; stroke-linejoin:round; stroke-width:4; stroke-opacity:1; fill:none" points="491.022,601.016 491.022,548.675 "/>
<polyline clip-path="url(#clip322)" style="stroke:#000000; stroke-linecap:round; stroke-linejoin:round; stroke-width:4; stroke-opacity:1; fill:none" points="716.141,839.067 716.141,793.128 "/>
<polyline clip-path="url(#clip322)" style="stroke:#000000; stroke-linecap:round; stroke-linejoin:round; stroke-width:4; stroke-opacity:1; fill:none" points="941.26,968.184 941.26,926.129 "/>
<polyline clip-path="url(#clip322)" style="stroke:#000000; stroke-linecap:round; stroke-linejoin:round; stroke-width:4; stroke-opacity:1; fill:none" points="1166.38,1086.21 1166.38,1048.05 "/>
<polyline clip-path="url(#clip322)" style="stroke:#000000; stroke-linecap:round; stroke-linejoin:round; stroke-width:4; stroke-opacity:1; fill:none" points="1391.5,1216.79 1391.5,1183.5 "/>
<polyline clip-path="url(#clip322)" style="stroke:#000000; stroke-linecap:round; stroke-linejoin:round; stroke-width:4; stroke-opacity:1; fill:none" points="1616.62,1250.66 1616.62,1218.74 "/>
<polyline clip-path="url(#clip322)" style="stroke:#000000; stroke-linecap:round; stroke-linejoin:round; stroke-width:4; stroke-opacity:1; fill:none" points="1841.74,1318.93 1841.74,1290.01 "/>
<polyline clip-path="url(#clip322)" style="stroke:#000000; stroke-linecap:round; stroke-linejoin:round; stroke-width:4; stroke-opacity:1; fill:none" points="2066.85,1350.14 2066.85,1322.7 "/>
<polyline clip-path="url(#clip322)" style="stroke:#000000; stroke-linecap:round; stroke-linejoin:round; stroke-width:4; stroke-opacity:1; fill:none" points="2291.97,1386.4 2291.97,1360.77 "/>
<line clip-path="url(#clip322)" x1="281.903" y1="304.584" x2="249.903" y2="304.584" style="stroke:#000000; stroke-width:4; stroke-opacity:1"/>
<line clip-path="url(#clip322)" x1="281.903" y1="245.238" x2="249.903" y2="245.238" style="stroke:#000000; stroke-width:4; stroke-opacity:1"/>
<line clip-path="url(#clip322)" x1="507.022" y1="601.016" x2="475.022" y2="601.016" style="stroke:#000000; stroke-width:4; stroke-opacity:1"/>
<line clip-path="url(#clip322)" x1="507.022" y1="548.675" x2="475.022" y2="548.675" style="stroke:#000000; stroke-width:4; stroke-opacity:1"/>
<line clip-path="url(#clip322)" x1="732.141" y1="839.067" x2="700.141" y2="839.067" style="stroke:#000000; stroke-width:4; stroke-opacity:1"/>
<line clip-path="url(#clip322)" x1="732.141" y1="793.128" x2="700.141" y2="793.128" style="stroke:#000000; stroke-width:4; stroke-opacity:1"/>
<line clip-path="url(#clip322)" x1="957.26" y1="968.184" x2="925.26" y2="968.184" style="stroke:#000000; stroke-width:4; stroke-opacity:1"/>
<line clip-path="url(#clip322)" x1="957.26" y1="926.129" x2="925.26" y2="926.129" style="stroke:#000000; stroke-width:4; stroke-opacity:1"/>
<line clip-path="url(#clip322)" x1="1182.38" y1="1086.21" x2="1150.38" y2="1086.21" style="stroke:#000000; stroke-width:4; stroke-opacity:1"/>
<line clip-path="url(#clip322)" x1="1182.38" y1="1048.05" x2="1150.38" y2="1048.05" style="stroke:#000000; stroke-width:4; stroke-opacity:1"/>
<line clip-path="url(#clip322)" x1="1407.5" y1="1216.79" x2="1375.5" y2="1216.79" style="stroke:#000000; stroke-width:4; stroke-opacity:1"/>
<line clip-path="url(#clip322)" x1="1407.5" y1="1183.5" x2="1375.5" y2="1183.5" style="stroke:#000000; stroke-width:4; stroke-opacity:1"/>
<line clip-path="url(#clip322)" x1="1632.62" y1="1250.66" x2="1600.62" y2="1250.66" style="stroke:#000000; stroke-width:4; stroke-opacity:1"/>
<line clip-path="url(#clip322)" x1="1632.62" y1="1218.74" x2="1600.62" y2="1218.74" style="stroke:#000000; stroke-width:4; stroke-opacity:1"/>
<line clip-path="url(#clip322)" x1="1857.74" y1="1318.93" x2="1825.74" y2="1318.93" style="stroke:#000000; stroke-width:4; stroke-opacity:1"/>
<line clip-path="url(#clip322)" x1="1857.74" y1="1290.01" x2="1825.74" y2="1290.01" style="stroke:#000000; stroke-width:4; stroke-opacity:1"/>
<line clip-path="url(#clip322)" x1="2082.85" y1="1350.14" x2="2050.85" y2="1350.14" style="stroke:#000000; stroke-width:4; stroke-opacity:1"/>
<line clip-path="url(#clip322)" x1="2082.85" y1="1322.7" x2="2050.85" y2="1322.7" style="stroke:#000000; stroke-width:4; stroke-opacity:1"/>
<line clip-path="url(#clip322)" x1="2307.97" y1="1386.4" x2="2275.97" y2="1386.4" style="stroke:#000000; stroke-width:4; stroke-opacity:1"/>
<line clip-path="url(#clip322)" x1="2307.97" y1="1360.77" x2="2275.97" y2="1360.77" style="stroke:#000000; stroke-width:4; stroke-opacity:1"/>
<circle clip-path="url(#clip322)" cx="265.903" cy="274.911" r="14.4" fill="#009af9" fill-rule="evenodd" fill-opacity="1" stroke="#000000" stroke-opacity="1" stroke-width="3.2"/>
<circle clip-path="url(#clip322)" cx="491.022" cy="574.846" r="14.4" fill="#009af9" fill-rule="evenodd" fill-opacity="1" stroke="#000000" stroke-opacity="1" stroke-width="3.2"/>
<circle clip-path="url(#clip322)" cx="716.141" cy="816.098" r="14.4" fill="#009af9" fill-rule="evenodd" fill-opacity="1" stroke="#000000" stroke-opacity="1" stroke-width="3.2"/>
<circle clip-path="url(#clip322)" cx="941.26" cy="947.156" r="14.4" fill="#009af9" fill-rule="evenodd" fill-opacity="1" stroke="#000000" stroke-opacity="1" stroke-width="3.2"/>
<circle clip-path="url(#clip322)" cx="1166.38" cy="1067.13" r="14.4" fill="#009af9" fill-rule="evenodd" fill-opacity="1" stroke="#000000" stroke-opacity="1" stroke-width="3.2"/>
<circle clip-path="url(#clip322)" cx="1391.5" cy="1200.14" r="14.4" fill="#009af9" fill-rule="evenodd" fill-opacity="1" stroke="#000000" stroke-opacity="1" stroke-width="3.2"/>
<circle clip-path="url(#clip322)" cx="1616.62" cy="1234.7" r="14.4" fill="#009af9" fill-rule="evenodd" fill-opacity="1" stroke="#000000" stroke-opacity="1" stroke-width="3.2"/>
<circle clip-path="url(#clip322)" cx="1841.74" cy="1304.47" r="14.4" fill="#009af9" fill-rule="evenodd" fill-opacity="1" stroke="#000000" stroke-opacity="1" stroke-width="3.2"/>
<circle clip-path="url(#clip322)" cx="2066.85" cy="1336.42" r="14.4" fill="#009af9" fill-rule="evenodd" fill-opacity="1" stroke="#000000" stroke-opacity="1" stroke-width="3.2"/>
<circle clip-path="url(#clip322)" cx="2291.97" cy="1373.59" r="14.4" fill="#009af9" fill-rule="evenodd" fill-opacity="1" stroke="#000000" stroke-opacity="1" stroke-width="3.2"/>
<polyline clip-path="url(#clip322)" style="stroke:#e26f46; stroke-linecap:round; stroke-linejoin:round; stroke-width:4; stroke-opacity:1; fill:none" points="265.903,160.256 491.022,917.061 716.141,1057.21 941.26,1106.26 1166.38,1128.97 1391.5,1141.3 1616.62,1148.74 1841.74,1153.56 2066.85,1156.87 2291.97,1159.24 "/>
<path clip-path="url(#clip320)" d="M1417.77 633.356 L2281.17 633.356 L2281.17 166.796 L1417.77 166.796  Z" fill="#ffffff" fill-rule="evenodd" fill-opacity="1"/>
<polyline clip-path="url(#clip320)" style="stroke:#000000; stroke-linecap:round; stroke-linejoin:round; stroke-width:4; stroke-opacity:1; fill:none" points="1417.77,633.356 2281.17,633.356 2281.17,166.796 1417.77,166.796 1417.77,633.356 "/>
<circle clip-path="url(#clip320)" cx="1513.22" cy="322.316" r="20.48" fill="#009af9" fill-rule="evenodd" fill-opacity="1" stroke="#000000" stroke-opacity="1" stroke-width="4.55111"/>
<path clip-path="url(#clip320)" d="M1613.35 308.878 L1613.35 335.753 L1619 335.753 Q1626.15 335.753 1629.46 332.512 Q1632.79 329.272 1632.79 322.281 Q1632.79 315.337 1629.46 312.119 Q1626.15 308.878 1619 308.878 L1613.35 308.878 M1608.67 305.036 L1618.28 305.036 Q1628.33 305.036 1633.03 309.226 Q1637.73 313.392 1637.73 322.281 Q1637.73 331.216 1633 335.406 Q1628.28 339.596 1618.28 339.596 L1608.67 339.596 L1608.67 305.036 Z" fill="#000000" fill-rule="nonzero" fill-opacity="1" /><path clip-path="url(#clip320)" d="M1656.78 326.563 Q1651.61 326.563 1649.62 327.744 Q1647.63 328.924 1647.63 331.772 Q1647.63 334.04 1649.11 335.383 Q1650.62 336.702 1653.19 336.702 Q1656.73 336.702 1658.86 334.202 Q1661.01 331.679 1661.01 327.512 L1661.01 326.563 L1656.78 326.563 M1665.27 324.804 L1665.27 339.596 L1661.01 339.596 L1661.01 335.661 Q1659.55 338.022 1657.38 339.156 Q1655.2 340.267 1652.05 340.267 Q1648.07 340.267 1645.71 338.045 Q1643.37 335.799 1643.37 332.049 Q1643.37 327.674 1646.29 325.452 Q1649.23 323.23 1655.04 323.23 L1661.01 323.23 L1661.01 322.813 Q1661.01 319.874 1659.07 318.276 Q1657.15 316.656 1653.65 316.656 Q1651.43 316.656 1649.32 317.188 Q1647.22 317.721 1645.27 318.786 L1645.27 314.85 Q1647.61 313.948 1649.81 313.508 Q1652.01 313.045 1654.09 313.045 Q1659.72 313.045 1662.49 315.962 Q1665.27 318.878 1665.27 324.804 Z" fill="#000000" fill-rule="nonzero" fill-opacity="1" /><path clip-path="url(#clip320)" d="M1678.26 306.309 L1678.26 313.67 L1687.03 313.67 L1687.03 316.98 L1678.26 316.98 L1678.26 331.054 Q1678.26 334.225 1679.11 335.128 Q1679.99 336.031 1682.66 336.031 L1687.03 336.031 L1687.03 339.596 L1682.66 339.596 Q1677.73 339.596 1675.85 337.767 Q1673.98 335.915 1673.98 331.054 L1673.98 316.98 L1670.85 316.98 L1670.85 313.67 L1673.98 313.67 L1673.98 306.309 L1678.26 306.309 Z" fill="#000000" fill-rule="nonzero" fill-opacity="1" /><path clip-path="url(#clip320)" d="M1704.41 326.563 Q1699.25 326.563 1697.26 327.744 Q1695.27 328.924 1695.27 331.772 Q1695.27 334.04 1696.75 335.383 Q1698.26 336.702 1700.83 336.702 Q1704.37 336.702 1706.5 334.202 Q1708.65 331.679 1708.65 327.512 L1708.65 326.563 L1704.41 326.563 M1712.91 324.804 L1712.91 339.596 L1708.65 339.596 L1708.65 335.661 Q1707.19 338.022 1705.02 339.156 Q1702.84 340.267 1699.69 340.267 Q1695.71 340.267 1693.35 338.045 Q1691.01 335.799 1691.01 332.049 Q1691.01 327.674 1693.93 325.452 Q1696.87 323.23 1702.68 323.23 L1708.65 323.23 L1708.65 322.813 Q1708.65 319.874 1706.71 318.276 Q1704.79 316.656 1701.29 316.656 Q1699.07 316.656 1696.96 317.188 Q1694.85 317.721 1692.91 318.786 L1692.91 314.85 Q1695.25 313.948 1697.45 313.508 Q1699.65 313.045 1701.73 313.045 Q1707.35 313.045 1710.13 315.962 Q1712.91 318.878 1712.91 324.804 Z" fill="#000000" fill-rule="nonzero" fill-opacity="1" /><polyline clip-path="url(#clip320)" style="stroke:#e26f46; stroke-linecap:round; stroke-linejoin:round; stroke-width:4; stroke-opacity:1; fill:none" points="1441.64,477.836 1584.81,477.836 "/>
<path clip-path="url(#clip320)" d="M1608.67 408.716 L1628.54 408.716 L1628.54 412.651 L1613.35 412.651 L1613.35 422.836 L1627.05 422.836 L1627.05 426.771 L1613.35 426.771 L1613.35 443.276 L1608.67 443.276 L1608.67 408.716 Z" fill="#000000" fill-rule="nonzero" fill-opacity="1" /><path clip-path="url(#clip320)" d="M1632.31 417.35 L1636.57 417.35 L1636.57 443.276 L1632.31 443.276 L1632.31 417.35 M1632.31 407.257 L1636.57 407.257 L1636.57 412.651 L1632.31 412.651 L1632.31 407.257 Z" fill="#000000" fill-rule="nonzero" fill-opacity="1" /><path clip-path="url(#clip320)" d="M1649.69 409.989 L1649.69 417.35 L1658.47 417.35 L1658.47 420.66 L1649.69 420.66 L1649.69 434.734 Q1649.69 437.905 1650.55 438.808 Q1651.43 439.711 1654.09 439.711 L1658.47 439.711 L1658.47 443.276 L1654.09 443.276 Q1649.16 443.276 1647.29 441.447 Q1645.41 439.595 1645.41 434.734 L1645.41 420.66 L1642.29 420.66 L1642.29 417.35 L1645.41 417.35 L1645.41 409.989 L1649.69 409.989 Z" fill="#000000" fill-rule="nonzero" fill-opacity="1" /><path clip-path="url(#clip320)" d="M1622.52 497.523 Q1620.71 502.153 1619 503.565 Q1617.29 504.977 1614.42 504.977 L1611.01 504.977 L1611.01 501.412 L1613.51 501.412 Q1615.27 501.412 1616.24 500.579 Q1617.22 499.745 1618.4 496.643 L1619.16 494.699 L1608.67 469.19 L1613.19 469.19 L1621.29 489.468 L1629.39 469.19 L1633.91 469.19 L1622.52 497.523 Z" fill="#000000" fill-rule="nonzero" fill-opacity="1" /><path clip-path="url(#clip320)" d="M1655.41 473.588 L1685.09 473.588 L1685.09 477.477 L1655.41 477.477 L1655.41 473.588 M1655.41 483.032 L1685.09 483.032 L1685.09 486.968 L1655.41 486.968 L1655.41 483.032 Z" fill="#000000" fill-rule="nonzero" fill-opacity="1" /><path clip-path="url(#clip320)" d="M1714.28 491.181 L1730.6 491.181 L1730.6 495.116 L1708.65 495.116 L1708.65 491.181 Q1711.31 488.426 1715.9 483.796 Q1720.5 479.144 1721.68 477.801 Q1723.93 475.278 1724.81 473.542 Q1725.71 471.783 1725.71 470.093 Q1725.71 467.338 1723.77 465.602 Q1721.85 463.866 1718.74 463.866 Q1716.54 463.866 1714.09 464.63 Q1711.66 465.394 1708.88 466.945 L1708.88 462.222 Q1711.71 461.088 1714.16 460.509 Q1716.61 459.931 1718.65 459.931 Q1724.02 459.931 1727.22 462.616 Q1730.41 465.301 1730.41 469.792 Q1730.41 471.921 1729.6 473.843 Q1728.81 475.741 1726.71 478.333 Q1726.13 479.005 1723.03 482.222 Q1719.92 485.417 1714.28 491.181 Z" fill="#000000" fill-rule="nonzero" fill-opacity="1" /><path clip-path="url(#clip320)" d="M1754.58 476.482 Q1757.93 477.199 1759.81 479.468 Q1761.71 481.736 1761.71 485.069 Q1761.71 490.185 1758.19 492.986 Q1754.67 495.787 1748.19 495.787 Q1746.01 495.787 1743.7 495.347 Q1741.41 494.931 1738.95 494.074 L1738.95 489.56 Q1740.9 490.694 1743.21 491.273 Q1745.53 491.852 1748.05 491.852 Q1752.45 491.852 1754.74 490.116 Q1757.05 488.38 1757.05 485.069 Q1757.05 482.014 1754.9 480.301 Q1752.77 478.565 1748.95 478.565 L1744.92 478.565 L1744.92 474.722 L1749.14 474.722 Q1752.59 474.722 1754.41 473.357 Q1756.24 471.968 1756.24 469.375 Q1756.24 466.713 1754.35 465.301 Q1752.47 463.866 1748.95 463.866 Q1747.03 463.866 1744.83 464.283 Q1742.63 464.699 1739.99 465.579 L1739.99 461.412 Q1742.66 460.671 1744.97 460.301 Q1747.31 459.931 1749.37 459.931 Q1754.69 459.931 1757.79 462.361 Q1760.9 464.769 1760.9 468.889 Q1760.9 471.759 1759.25 473.75 Q1757.61 475.718 1754.58 476.482 Z" fill="#000000" fill-rule="nonzero" fill-opacity="1" /><path clip-path="url(#clip320)" d="M1770.57 489.236 L1775.46 489.236 L1775.46 495.116 L1770.57 495.116 L1770.57 489.236 Z" fill="#000000" fill-rule="nonzero" fill-opacity="1" /><path clip-path="url(#clip320)" d="M1799.81 476.482 Q1803.16 477.199 1805.04 479.468 Q1806.94 481.736 1806.94 485.069 Q1806.94 490.185 1803.42 492.986 Q1799.9 495.787 1793.42 495.787 Q1791.24 495.787 1788.93 495.347 Q1786.64 494.931 1784.18 494.074 L1784.18 489.56 Q1786.13 490.694 1788.44 491.273 Q1790.76 491.852 1793.28 491.852 Q1797.68 491.852 1799.97 490.116 Q1802.28 488.38 1802.28 485.069 Q1802.28 482.014 1800.13 480.301 Q1798 478.565 1794.18 478.565 L1790.16 478.565 L1790.16 474.722 L1794.37 474.722 Q1797.82 474.722 1799.65 473.357 Q1801.47 471.968 1801.47 469.375 Q1801.47 466.713 1799.58 465.301 Q1797.7 463.866 1794.18 463.866 Q1792.26 463.866 1790.06 464.283 Q1787.86 464.699 1785.22 465.579 L1785.22 461.412 Q1787.89 460.671 1790.2 460.301 Q1792.54 459.931 1794.6 459.931 Q1799.92 459.931 1803.03 462.361 Q1806.13 464.769 1806.13 468.889 Q1806.13 471.759 1804.48 473.75 Q1802.84 475.718 1799.81 476.482 Z" fill="#000000" fill-rule="nonzero" fill-opacity="1" /><path clip-path="url(#clip320)" d="M1825.8 463.634 Q1822.19 463.634 1820.36 467.199 Q1818.56 470.741 1818.56 477.87 Q1818.56 484.977 1820.36 488.542 Q1822.19 492.083 1825.8 492.083 Q1829.44 492.083 1831.24 488.542 Q1833.07 484.977 1833.07 477.87 Q1833.07 470.741 1831.24 467.199 Q1829.44 463.634 1825.8 463.634 M1825.8 459.931 Q1831.61 459.931 1834.67 464.537 Q1837.75 469.12 1837.75 477.87 Q1837.75 486.597 1834.67 491.204 Q1831.61 495.787 1825.8 495.787 Q1819.99 495.787 1816.91 491.204 Q1813.86 486.597 1813.86 477.87 Q1813.86 469.12 1816.91 464.537 Q1819.99 459.931 1825.8 459.931 Z" fill="#000000" fill-rule="nonzero" fill-opacity="1" /><path clip-path="url(#clip320)" d="M1846.1 494.398 L1846.1 490.139 Q1847.86 490.972 1849.67 491.412 Q1851.47 491.852 1853.21 491.852 Q1857.84 491.852 1860.27 488.75 Q1862.72 485.625 1863.07 479.282 Q1861.73 481.273 1859.67 482.338 Q1857.61 483.403 1855.11 483.403 Q1849.92 483.403 1846.89 480.278 Q1843.88 477.13 1843.88 471.69 Q1843.88 466.366 1847.03 463.148 Q1850.18 459.931 1855.41 459.931 Q1861.4 459.931 1864.55 464.537 Q1867.72 469.12 1867.72 477.87 Q1867.72 486.042 1863.84 490.926 Q1859.97 495.787 1853.42 495.787 Q1851.66 495.787 1849.85 495.44 Q1848.05 495.093 1846.1 494.398 M1855.41 479.745 Q1858.56 479.745 1860.39 477.593 Q1862.24 475.44 1862.24 471.69 Q1862.24 467.963 1860.39 465.81 Q1858.56 463.634 1855.41 463.634 Q1852.26 463.634 1850.41 465.81 Q1848.58 467.963 1848.58 471.69 Q1848.58 475.44 1850.41 477.593 Q1852.26 479.745 1855.41 479.745 Z" fill="#000000" fill-rule="nonzero" fill-opacity="1" /><path clip-path="url(#clip320)" d="M1907.93 465.394 L1907.93 478.287 L1920.83 478.287 L1920.83 482.222 L1907.93 482.222 L1907.93 495.116 L1904.04 495.116 L1904.04 482.222 L1891.15 482.222 L1891.15 478.287 L1904.04 478.287 L1904.04 465.394 L1907.93 465.394 Z" fill="#000000" fill-rule="nonzero" fill-opacity="1" /><path clip-path="url(#clip320)" d="M1946.03 460.556 L1964.39 460.556 L1964.39 464.491 L1950.32 464.491 L1950.32 472.963 Q1951.33 472.616 1952.35 472.454 Q1953.37 472.269 1954.39 472.269 Q1960.18 472.269 1963.56 475.44 Q1966.94 478.611 1966.94 484.028 Q1966.94 489.606 1963.46 492.708 Q1959.99 495.787 1953.67 495.787 Q1951.5 495.787 1949.23 495.417 Q1946.98 495.046 1944.58 494.306 L1944.58 489.606 Q1946.66 490.741 1948.88 491.296 Q1951.1 491.852 1953.58 491.852 Q1957.58 491.852 1959.92 489.745 Q1962.26 487.639 1962.26 484.028 Q1962.26 480.417 1959.92 478.31 Q1957.58 476.204 1953.58 476.204 Q1951.71 476.204 1949.83 476.62 Q1947.98 477.037 1946.03 477.917 L1946.03 460.556 Z" fill="#000000" fill-rule="nonzero" fill-opacity="1" /><path clip-path="url(#clip320)" d="M1976.96 491.181 L1984.6 491.181 L1984.6 464.815 L1976.29 466.482 L1976.29 462.222 L1984.55 460.556 L1989.23 460.556 L1989.23 491.181 L1996.87 491.181 L1996.87 495.116 L1976.96 495.116 L1976.96 491.181 Z" fill="#000000" fill-rule="nonzero" fill-opacity="1" /><path clip-path="url(#clip320)" d="M2006.36 460.556 L2024.71 460.556 L2024.71 464.491 L2010.64 464.491 L2010.64 472.963 Q2011.66 472.616 2012.68 472.454 Q2013.7 472.269 2014.71 472.269 Q2020.5 472.269 2023.88 475.44 Q2027.26 478.611 2027.26 484.028 Q2027.26 489.606 2023.79 492.708 Q2020.32 495.787 2014 495.787 Q2011.82 495.787 2009.55 495.417 Q2007.31 495.046 2004.9 494.306 L2004.9 489.606 Q2006.98 490.741 2009.2 491.296 Q2011.43 491.852 2013.9 491.852 Q2017.91 491.852 2020.25 489.745 Q2022.58 487.639 2022.58 484.028 Q2022.58 480.417 2020.25 478.31 Q2017.91 476.204 2013.9 476.204 Q2012.03 476.204 2010.15 476.62 Q2008.3 477.037 2006.36 477.917 L2006.36 460.556 Z" fill="#000000" fill-rule="nonzero" fill-opacity="1" /><path clip-path="url(#clip320)" d="M2046.47 478.704 Q2043.14 478.704 2041.22 480.486 Q2039.32 482.269 2039.32 485.394 Q2039.32 488.519 2041.22 490.301 Q2043.14 492.083 2046.47 492.083 Q2049.81 492.083 2051.73 490.301 Q2053.65 488.495 2053.65 485.394 Q2053.65 482.269 2051.73 480.486 Q2049.83 478.704 2046.47 478.704 M2041.8 476.713 Q2038.79 475.972 2037.1 473.912 Q2035.43 471.852 2035.43 468.889 Q2035.43 464.746 2038.37 462.338 Q2041.33 459.931 2046.47 459.931 Q2051.64 459.931 2054.58 462.338 Q2057.51 464.746 2057.51 468.889 Q2057.51 471.852 2055.83 473.912 Q2054.16 475.972 2051.17 476.713 Q2054.55 477.5 2056.43 479.792 Q2058.33 482.083 2058.33 485.394 Q2058.33 490.417 2055.25 493.102 Q2052.19 495.787 2046.47 495.787 Q2040.76 495.787 2037.68 493.102 Q2034.62 490.417 2034.62 485.394 Q2034.62 482.083 2036.52 479.792 Q2038.42 477.5 2041.8 476.713 M2040.08 469.329 Q2040.08 472.014 2041.75 473.519 Q2043.44 475.023 2046.47 475.023 Q2049.48 475.023 2051.17 473.519 Q2052.89 472.014 2052.89 469.329 Q2052.89 466.644 2051.17 465.139 Q2049.48 463.634 2046.47 463.634 Q2043.44 463.634 2041.75 465.139 Q2040.08 466.644 2040.08 469.329 Z" fill="#000000" fill-rule="nonzero" fill-opacity="1" /><path clip-path="url(#clip320)" d="M2066.64 489.236 L2071.52 489.236 L2071.52 495.116 L2066.64 495.116 L2066.64 489.236 Z" fill="#000000" fill-rule="nonzero" fill-opacity="1" /><path clip-path="url(#clip320)" d="M2092.28 475.972 Q2089.14 475.972 2087.28 478.125 Q2085.45 480.278 2085.45 484.028 Q2085.45 487.755 2087.28 489.931 Q2089.14 492.083 2092.28 492.083 Q2095.43 492.083 2097.26 489.931 Q2099.11 487.755 2099.11 484.028 Q2099.11 480.278 2097.26 478.125 Q2095.43 475.972 2092.28 475.972 M2101.57 461.32 L2101.57 465.579 Q2099.81 464.746 2098 464.306 Q2096.22 463.866 2094.46 463.866 Q2089.83 463.866 2087.38 466.991 Q2084.95 470.116 2084.6 476.435 Q2085.96 474.421 2088.02 473.357 Q2090.08 472.269 2092.56 472.269 Q2097.77 472.269 2100.78 475.44 Q2103.81 478.588 2103.81 484.028 Q2103.81 489.352 2100.66 492.569 Q2097.51 495.787 2092.28 495.787 Q2086.29 495.787 2083.12 491.204 Q2079.95 486.597 2079.95 477.87 Q2079.95 469.676 2083.83 464.815 Q2087.72 459.931 2094.27 459.931 Q2096.03 459.931 2097.82 460.278 Q2099.62 460.625 2101.57 461.32 Z" fill="#000000" fill-rule="nonzero" fill-opacity="1" /><path clip-path="url(#clip320)" d="M2121.87 463.634 Q2118.26 463.634 2116.43 467.199 Q2114.62 470.741 2114.62 477.87 Q2114.62 484.977 2116.43 488.542 Q2118.26 492.083 2121.87 492.083 Q2125.5 492.083 2127.31 488.542 Q2129.13 484.977 2129.13 477.87 Q2129.13 470.741 2127.31 467.199 Q2125.5 463.634 2121.87 463.634 M2121.87 459.931 Q2127.68 459.931 2130.73 464.537 Q2133.81 469.12 2133.81 477.87 Q2133.81 486.597 2130.73 491.204 Q2127.68 495.787 2121.87 495.787 Q2116.06 495.787 2112.98 491.204 Q2109.92 486.597 2109.92 477.87 Q2109.92 469.12 2112.98 464.537 Q2116.06 459.931 2121.87 459.931 Z" fill="#000000" fill-rule="nonzero" fill-opacity="1" /><path clip-path="url(#clip320)" d="M2156.19 476.482 Q2159.55 477.199 2161.43 479.468 Q2163.32 481.736 2163.32 485.069 Q2163.32 490.185 2159.81 492.986 Q2156.29 495.787 2149.81 495.787 Q2147.63 495.787 2145.32 495.347 Q2143.02 494.931 2140.57 494.074 L2140.57 489.56 Q2142.51 490.694 2144.83 491.273 Q2147.14 491.852 2149.67 491.852 Q2154.07 491.852 2156.36 490.116 Q2158.67 488.38 2158.67 485.069 Q2158.67 482.014 2156.52 480.301 Q2154.39 478.565 2150.57 478.565 L2146.54 478.565 L2146.54 474.722 L2150.76 474.722 Q2154.2 474.722 2156.03 473.357 Q2157.86 471.968 2157.86 469.375 Q2157.86 466.713 2155.96 465.301 Q2154.09 463.866 2150.57 463.866 Q2148.65 463.866 2146.45 464.283 Q2144.25 464.699 2141.61 465.579 L2141.61 461.412 Q2144.27 460.671 2146.59 460.301 Q2148.93 459.931 2150.99 459.931 Q2156.31 459.931 2159.41 462.361 Q2162.51 464.769 2162.51 468.889 Q2162.51 471.759 2160.87 473.75 Q2159.23 475.718 2156.19 476.482 Z" fill="#000000" fill-rule="nonzero" fill-opacity="1" /><path clip-path="url(#clip320)" d="M2194.23 460.556 L2198.16 460.556 L2186.13 499.514 L2182.19 499.514 L2194.23 460.556 Z" fill="#000000" fill-rule="nonzero" fill-opacity="1" /><path clip-path="url(#clip320)" d="M2239.25 469.19 L2229.88 481.806 L2239.74 495.116 L2234.71 495.116 L2227.17 484.931 L2219.62 495.116 L2214.6 495.116 L2224.67 481.551 L2215.45 469.19 L2220.48 469.19 L2227.35 478.426 L2234.23 469.19 L2239.25 469.19 Z" fill="#000000" fill-rule="nonzero" fill-opacity="1" /><path clip-path="url(#clip320)" d="M2247.49 477.014 L2257.31 477.014 L2257.31 479.653 L2243.46 479.653 L2243.46 477.107 Q2244.25 476.389 2245.71 475.093 Q2253.67 468.033 2253.67 465.857 Q2253.67 464.329 2252.47 463.403 Q2251.26 462.454 2249.3 462.454 Q2248.09 462.454 2246.68 462.871 Q2245.27 463.264 2243.6 464.074 L2243.6 461.227 Q2245.38 460.579 2246.91 460.255 Q2248.46 459.931 2249.78 459.931 Q2253.14 459.931 2255.15 461.458 Q2257.17 462.986 2257.17 465.486 Q2257.17 468.704 2249.5 475.278 Q2248.21 476.389 2247.49 477.014 Z" fill="#000000" fill-rule="nonzero" fill-opacity="1" /><path clip-path="url(#clip320)" d="M1619.3 510.984 Q1616.2 516.308 1614.69 521.516 Q1613.19 526.724 1613.19 532.072 Q1613.19 537.419 1614.69 542.673 Q1616.22 547.905 1619.3 553.206 L1615.6 553.206 Q1612.12 547.766 1610.39 542.511 Q1608.67 537.257 1608.67 532.072 Q1608.67 526.91 1610.39 521.678 Q1612.1 516.447 1615.6 510.984 L1619.3 510.984 Z" fill="#000000" fill-rule="nonzero" fill-opacity="1" /><path clip-path="url(#clip320)" d="M1644.14 530.752 Q1645.64 531.261 1647.05 532.928 Q1648.49 534.595 1649.92 537.511 L1654.67 546.956 L1649.65 546.956 L1645.23 538.09 Q1643.51 534.618 1641.89 533.484 Q1640.29 532.349 1637.52 532.349 L1632.42 532.349 L1632.42 546.956 L1627.75 546.956 L1627.75 512.396 L1638.3 512.396 Q1644.23 512.396 1647.15 514.873 Q1650.06 517.349 1650.06 522.349 Q1650.06 525.613 1648.54 527.766 Q1647.03 529.919 1644.14 530.752 M1632.42 516.238 L1632.42 528.507 L1638.3 528.507 Q1641.68 528.507 1643.4 526.956 Q1645.13 525.382 1645.13 522.349 Q1645.13 519.317 1643.4 517.789 Q1641.68 516.238 1638.3 516.238 L1632.42 516.238 Z" fill="#000000" fill-rule="nonzero" fill-opacity="1" /><path clip-path="url(#clip320)" d="M1662.24 528.854 L1672.05 528.854 L1672.05 531.493 L1658.21 531.493 L1658.21 528.947 Q1659 528.229 1660.46 526.933 Q1668.42 519.873 1668.42 517.697 Q1668.42 516.169 1667.22 515.243 Q1666.01 514.294 1664.04 514.294 Q1662.84 514.294 1661.43 514.711 Q1660.02 515.104 1658.35 515.914 L1658.35 513.067 Q1660.13 512.419 1661.66 512.095 Q1663.21 511.771 1664.53 511.771 Q1667.89 511.771 1669.9 513.298 Q1671.92 514.826 1671.92 517.326 Q1671.92 520.544 1664.25 527.118 Q1662.96 528.229 1662.24 528.854 Z" fill="#000000" fill-rule="nonzero" fill-opacity="1" /><path clip-path="url(#clip320)" d="M1695.13 525.428 L1724.81 525.428 L1724.81 529.317 L1695.13 529.317 L1695.13 525.428 M1695.13 534.872 L1724.81 534.872 L1724.81 538.808 L1695.13 538.808 L1695.13 534.872 Z" fill="#000000" fill-rule="nonzero" fill-opacity="1" /><path clip-path="url(#clip320)" d="M1759.97 515.474 Q1756.36 515.474 1754.53 519.039 Q1752.72 522.581 1752.72 529.71 Q1752.72 536.817 1754.53 540.382 Q1756.36 543.923 1759.97 543.923 Q1763.6 543.923 1765.41 540.382 Q1767.24 536.817 1767.24 529.71 Q1767.24 522.581 1765.41 519.039 Q1763.6 515.474 1759.97 515.474 M1759.97 511.771 Q1765.78 511.771 1768.84 516.377 Q1771.91 520.96 1771.91 529.71 Q1771.91 538.437 1768.84 543.044 Q1765.78 547.627 1759.97 547.627 Q1754.16 547.627 1751.08 543.044 Q1748.03 538.437 1748.03 529.71 Q1748.03 520.96 1751.08 516.377 Q1754.16 511.771 1759.97 511.771 Z" fill="#000000" fill-rule="nonzero" fill-opacity="1" /><path clip-path="url(#clip320)" d="M1780.13 541.076 L1785.02 541.076 L1785.02 546.956 L1780.13 546.956 L1780.13 541.076 Z" fill="#000000" fill-rule="nonzero" fill-opacity="1" /><path clip-path="url(#clip320)" d="M1794.02 512.396 L1816.24 512.396 L1816.24 514.386 L1803.7 546.956 L1798.81 546.956 L1810.62 516.331 L1794.02 516.331 L1794.02 512.396 Z" fill="#000000" fill-rule="nonzero" fill-opacity="1" /><path clip-path="url(#clip320)" d="M1829.39 543.021 L1845.71 543.021 L1845.71 546.956 L1823.77 546.956 L1823.77 543.021 Q1826.43 540.266 1831.01 535.636 Q1835.62 530.984 1836.8 529.641 Q1839.04 527.118 1839.92 525.382 Q1840.83 523.623 1840.83 521.933 Q1840.83 519.178 1838.88 517.442 Q1836.96 515.706 1833.86 515.706 Q1831.66 515.706 1829.21 516.47 Q1826.78 517.234 1824 518.785 L1824 514.062 Q1826.82 512.928 1829.28 512.349 Q1831.73 511.771 1833.77 511.771 Q1839.14 511.771 1842.33 514.456 Q1845.53 517.141 1845.53 521.632 Q1845.53 523.761 1844.72 525.683 Q1843.93 527.581 1841.82 530.173 Q1841.24 530.845 1838.14 534.062 Q1835.04 537.257 1829.39 543.021 Z" fill="#000000" fill-rule="nonzero" fill-opacity="1" /><path clip-path="url(#clip320)" d="M1859.55 543.021 L1875.87 543.021 L1875.87 546.956 L1853.93 546.956 L1853.93 543.021 Q1856.59 540.266 1861.17 535.636 Q1865.78 530.984 1866.96 529.641 Q1869.21 527.118 1870.09 525.382 Q1870.99 523.623 1870.99 521.933 Q1870.99 519.178 1869.04 517.442 Q1867.12 515.706 1864.02 515.706 Q1861.82 515.706 1859.37 516.47 Q1856.94 517.234 1854.16 518.785 L1854.16 514.062 Q1856.98 512.928 1859.44 512.349 Q1861.89 511.771 1863.93 511.771 Q1869.3 511.771 1872.49 514.456 Q1875.69 517.141 1875.69 521.632 Q1875.69 523.761 1874.88 525.683 Q1874.09 527.581 1871.98 530.173 Q1871.4 530.845 1868.3 534.062 Q1865.2 537.257 1859.55 543.021 Z" fill="#000000" fill-rule="nonzero" fill-opacity="1" /><path clip-path="url(#clip320)" d="M1898.53 516.47 L1886.73 534.919 L1898.53 534.919 L1898.53 516.47 M1897.31 512.396 L1903.19 512.396 L1903.19 534.919 L1908.12 534.919 L1908.12 538.808 L1903.19 538.808 L1903.19 546.956 L1898.53 546.956 L1898.53 538.808 L1882.93 538.808 L1882.93 534.294 L1897.31 512.396 Z" fill="#000000" fill-rule="nonzero" fill-opacity="1" /><path clip-path="url(#clip320)" d="M1928.7 516.47 L1916.89 534.919 L1928.7 534.919 L1928.7 516.47 M1927.47 512.396 L1933.35 512.396 L1933.35 534.919 L1938.28 534.919 L1938.28 538.808 L1933.35 538.808 L1933.35 546.956 L1928.7 546.956 L1928.7 538.808 L1913.09 538.808 L1913.09 534.294 L1927.47 512.396 Z" fill="#000000" fill-rule="nonzero" fill-opacity="1" /><path clip-path="url(#clip320)" d="M1944.74 510.984 L1948.44 510.984 Q1951.91 516.447 1953.63 521.678 Q1955.36 526.91 1955.36 532.072 Q1955.36 537.257 1953.63 542.511 Q1951.91 547.766 1948.44 553.206 L1944.74 553.206 Q1947.82 547.905 1949.32 542.673 Q1950.85 537.419 1950.85 532.072 Q1950.85 526.724 1949.32 521.516 Q1947.82 516.308 1944.74 510.984 Z" fill="#000000" fill-rule="nonzero" fill-opacity="1" /></svg>
