<?xml version="1.0" encoding="utf-8"?>
<svg xmlns="http://www.w3.org/2000/svg" xmlns:xlink="http://www.w3.org/1999/xlink" width="600" height="400" viewBox="0 0 2400 1600">
<defs>
  <clipPath id="clip600">
    <rect x="0" y="0" width="2400" height="1600"/>
  </clipPath>
</defs>
<path clip-path="url(#clip600)" d="M0 1600 L2400 1600 L2400 0 L0 0  Z" fill="#ffffff" fill-rule="evenodd" fill-opacity="1"/>
<defs>
  <clipPath id="clip601">
    <rect x="480" y="0" width="1681" height="1600"/>
  </clipPath>
</defs>
<path clip-path="url(#clip600)" d="M249.542 1423.18 L2352.76 1423.18 L2352.76 123.472 L249.542 123.472  Z" fill="#ffffff" fill-rule="evenodd" fill-opacity="1"/>
<defs>
  <clipPath id="clip602">
    <rect x="249" y="123" width="2104" height="1301"/>
  </clipPath>
</defs>
<polyline clip-path="url(#clip602)" style="stroke:#000000; stroke-linecap:round; stroke-linejoin:round; stroke-width:2; stroke-opacity:0.1; fill:none" points="441.625,1423.18 441.625,123.472 "/>
<polyline clip-path="url(#clip602)" style="stroke:#000000; stroke-linecap:round; stroke-linejoin:round; stroke-width:2; stroke-opacity:0.1; fill:none" points="632.63,1423.18 632.63,123.472 "/>
<polyline clip-path="url(#clip602)" style="stroke:#000000; stroke-linecap:round; stroke-linejoin:round; stroke-width:2; stroke-opacity:0.1; fill:none" points="823.635,1423.18 823.635,123.472 "/>
<polyline clip-path="url(#clip602)" style="stroke:#000000; stroke-linecap:round; stroke-linejoin:round; stroke-width:2; stroke-opacity:0.1; fill:none" points="1014.64,1423.18 1014.64,123.472 "/>
<polyline clip-path="url(#clip602)" style="stroke:#000000; stroke-linecap:round; stroke-linejoin:round; stroke-width:2; stroke-opacity:0.1; fill:none" points="1205.65,1423.18 1205.65,123.472 "/>
<polyline clip-path="url(#clip602)" style="stroke:#000000; stroke-linecap:round; stroke-linejoin:round; stroke-width:2; stroke-opacity:0.1; fill:none" points="1396.65,1423.18 1396.65,123.472 "/>
<polyline clip-path="url(#clip602)" style="stroke:#000000; stroke-linecap:round; stroke-linejoin:round; stroke-width:2; stroke-opacity:0.1; fill:none" points="1587.66,1423.18 1587.66,123.472 "/>
<polyline clip-path="url(#clip602)" style="stroke:#000000; stroke-linecap:round; stroke-linejoin:round; stroke-width:2; stroke-opacity:0.1; fill:none" points="1778.66,1423.18 1778.66,123.472 "/>
<polyline clip-path="url(#clip602)" style="stroke:#000000; stroke-linecap:round; stroke-linejoin:round; stroke-width:2; stroke-opacity:0.1; fill:none" points="1969.67,1423.18 1969.67,123.472 "/>
<polyline clip-path="url(#clip602)" style="stroke:#000000; stroke-linecap:round; stroke-linejoin:round; stroke-width:2; stroke-opacity:0.1; fill:none" points="2160.67,1423.18 2160.67,123.472 "/>
<polyline clip-path="url(#clip600)" style="stroke:#000000; stroke-linecap:round; stroke-linejoin:round; stroke-width:4; stroke-opacity:1; fill:none" points="249.542,1423.18 2352.76,1423.18 "/>
<polyline clip-path="url(#clip600)" style="stroke:#000000; stroke-linecap:round; stroke-linejoin:round; stroke-width:4; stroke-opacity:1; fill:none" points="441.625,1423.18 441.625,1404.28 "/>
<polyline clip-path="url(#clip600)" style="stroke:#000000; stroke-linecap:round; stroke-linejoin:round; stroke-width:4; stroke-opacity:1; fill:none" points="632.63,1423.18 632.63,1404.28 "/>
<polyline clip-path="url(#clip600)" style="stroke:#000000; stroke-linecap:round; stroke-linejoin:round; stroke-width:4; stroke-opacity:1; fill:none" points="823.635,1423.18 823.635,1404.28 "/>
<polyline clip-path="url(#clip600)" style="stroke:#000000; stroke-linecap:round; stroke-linejoin:round; stroke-width:4; stroke-opacity:1; fill:none" points="1014.64,1423.18 1014.64,1404.28 "/>
<polyline clip-path="url(#clip600)" style="stroke:#000000; stroke-linecap:round; stroke-linejoin:round; stroke-width:4; stroke-opacity:1; fill:none" points="1205.65,1423.18 1205.65,1404.28 "/>
<polyline clip-path="url(#clip600)" style="stroke:#000000; stroke-linecap:round; stroke-linejoin:round; stroke-width:4; stroke-opacity:1; fill:none" points="1396.65,1423.18 1396.65,1404.28 "/>
<polyline clip-path="url(#clip600)" style="stroke:#000000; stroke-linecap:round; stroke-linejoin:round; stroke-width:4; stroke-opacity:1; fill:none" points="1587.66,1423.18 1587.66,1404.28 "/>
<polyline clip-path="url(#clip600)" style="stroke:#000000; stroke-linecap:round; stroke-linejoin:round; stroke-width:4; stroke-opacity:1; fill:none" points="1778.66,1423.18 1778.66,1404.28 "/>
<polyline clip-path="url(#clip600)" style="stroke:#000000; stroke-linecap:round; stroke-linejoin:round; stroke-width:4; stroke-opacity:1; fill:none" points="1969.67,1423.18 1969.67,1404.28 "/>
<polyline clip-path="url(#clip600)" style="stroke:#000000; stroke-linecap:round; stroke-linejoin:round; stroke-width:4; stroke-opacity:1; fill:none" points="2160.67,1423.18 2160.67,1404.28 "/>
<path clip-path="url(#clip600)" d="M401.324 1481.64 L408.963 1481.64 L408.963 1455.28 L400.653 1456.95 L400.653 1452.69 L408.917 1451.02 L413.592 1451.02 L413.592 1481.64 L421.231 1481.64 L421.231 1485.58 L401.324 1485.58 L401.324 1481.64 Z" fill="#000000" fill-rule="nonzero" fill-opacity="1" /><path clip-path="url(#clip600)" d="M434.703 1481.64 L451.023 1481.64 L451.023 1485.58 L429.078 1485.58 L429.078 1481.64 Q431.74 1478.89 436.324 1474.26 Q440.93 1469.61 442.111 1468.27 Q444.356 1465.74 445.236 1464.01 Q446.139 1462.25 446.139 1460.56 Q446.139 1457.8 444.194 1456.07 Q442.273 1454.33 439.171 1454.33 Q436.972 1454.33 434.518 1455.09 Q432.088 1455.86 429.31 1457.41 L429.31 1452.69 Q432.134 1451.55 434.588 1450.97 Q437.041 1450.39 439.078 1450.39 Q444.449 1450.39 447.643 1453.08 Q450.838 1455.77 450.838 1460.26 Q450.838 1462.39 450.027 1464.31 Q449.24 1466.2 447.134 1468.8 Q446.555 1469.47 443.453 1472.69 Q440.352 1475.88 434.703 1481.64 Z" fill="#000000" fill-rule="nonzero" fill-opacity="1" /><path clip-path="url(#clip600)" d="M460.976 1484.86 L460.976 1480.6 Q462.736 1481.44 464.541 1481.88 Q466.347 1482.32 468.083 1482.32 Q472.712 1482.32 475.143 1479.21 Q477.597 1476.09 477.944 1469.75 Q476.601 1471.74 474.541 1472.8 Q472.481 1473.87 469.981 1473.87 Q464.796 1473.87 461.763 1470.74 Q458.754 1467.59 458.754 1462.15 Q458.754 1456.83 461.902 1453.61 Q465.05 1450.39 470.282 1450.39 Q476.277 1450.39 479.425 1455 Q482.597 1459.58 482.597 1468.33 Q482.597 1476.51 478.708 1481.39 Q474.842 1486.25 468.291 1486.25 Q466.532 1486.25 464.726 1485.9 Q462.921 1485.56 460.976 1484.86 M470.282 1470.21 Q473.43 1470.21 475.259 1468.06 Q477.111 1465.9 477.111 1462.15 Q477.111 1458.43 475.259 1456.27 Q473.43 1454.1 470.282 1454.1 Q467.134 1454.1 465.282 1456.27 Q463.453 1458.43 463.453 1462.15 Q463.453 1465.9 465.282 1468.06 Q467.134 1470.21 470.282 1470.21 Z" fill="#000000" fill-rule="nonzero" fill-opacity="1" /><path clip-path="url(#clip600)" d="M592.237 1481.64 L599.876 1481.64 L599.876 1455.28 L591.565 1456.95 L591.565 1452.69 L599.829 1451.02 L604.505 1451.02 L604.505 1481.64 L612.144 1481.64 L612.144 1485.58 L592.237 1485.58 L592.237 1481.64 Z" fill="#000000" fill-rule="nonzero" fill-opacity="1" /><path clip-path="url(#clip600)" d="M635.755 1466.95 Q639.112 1467.66 640.987 1469.93 Q642.885 1472.2 642.885 1475.53 Q642.885 1480.65 639.366 1483.45 Q635.848 1486.25 629.366 1486.25 Q627.19 1486.25 624.876 1485.81 Q622.584 1485.39 620.13 1484.54 L620.13 1480.02 Q622.075 1481.16 624.389 1481.74 Q626.704 1482.32 629.227 1482.32 Q633.625 1482.32 635.917 1480.58 Q638.232 1478.84 638.232 1475.53 Q638.232 1472.48 636.079 1470.77 Q633.95 1469.03 630.13 1469.03 L626.102 1469.03 L626.102 1465.19 L630.315 1465.19 Q633.764 1465.19 635.593 1463.82 Q637.422 1462.43 637.422 1459.84 Q637.422 1457.18 635.524 1455.77 Q633.649 1454.33 630.13 1454.33 Q628.209 1454.33 626.01 1454.75 Q623.811 1455.16 621.172 1456.04 L621.172 1451.88 Q623.834 1451.14 626.149 1450.77 Q628.487 1450.39 630.547 1450.39 Q635.871 1450.39 638.973 1452.83 Q642.074 1455.23 642.074 1459.35 Q642.074 1462.22 640.431 1464.21 Q638.787 1466.18 635.755 1466.95 Z" fill="#000000" fill-rule="nonzero" fill-opacity="1" /><path clip-path="url(#clip600)" d="M661.75 1454.1 Q658.139 1454.1 656.311 1457.66 Q654.505 1461.2 654.505 1468.33 Q654.505 1475.44 656.311 1479.01 Q658.139 1482.55 661.75 1482.55 Q665.385 1482.55 667.19 1479.01 Q669.019 1475.44 669.019 1468.33 Q669.019 1461.2 667.19 1457.66 Q665.385 1454.1 661.75 1454.1 M661.75 1450.39 Q667.56 1450.39 670.616 1455 Q673.695 1459.58 673.695 1468.33 Q673.695 1477.06 670.616 1481.67 Q667.56 1486.25 661.75 1486.25 Q655.94 1486.25 652.861 1481.67 Q649.806 1477.06 649.806 1468.33 Q649.806 1459.58 652.861 1455 Q655.94 1450.39 661.75 1450.39 Z" fill="#000000" fill-rule="nonzero" fill-opacity="1" /><path clip-path="url(#clip600)" d="M783.856 1481.64 L791.494 1481.64 L791.494 1455.28 L783.184 1456.95 L783.184 1452.69 L791.448 1451.02 L796.124 1451.02 L796.124 1481.64 L803.763 1481.64 L803.763 1485.58 L783.856 1485.58 L783.856 1481.64 Z" fill="#000000" fill-rule="nonzero" fill-opacity="1" /><path clip-path="url(#clip600)" d="M827.374 1466.95 Q830.73 1467.66 832.605 1469.93 Q834.503 1472.2 834.503 1475.53 Q834.503 1480.65 830.985 1483.45 Q827.466 1486.25 820.985 1486.25 Q818.809 1486.25 816.494 1485.81 Q814.203 1485.39 811.749 1484.54 L811.749 1480.02 Q813.693 1481.16 816.008 1481.74 Q818.323 1482.32 820.846 1482.32 Q825.244 1482.32 827.536 1480.58 Q829.851 1478.84 829.851 1475.53 Q829.851 1472.48 827.698 1470.77 Q825.568 1469.03 821.749 1469.03 L817.721 1469.03 L817.721 1465.19 L821.934 1465.19 Q825.383 1465.19 827.212 1463.82 Q829.041 1462.43 829.041 1459.84 Q829.041 1457.18 827.142 1455.77 Q825.267 1454.33 821.749 1454.33 Q819.828 1454.33 817.629 1454.75 Q815.43 1455.16 812.791 1456.04 L812.791 1451.88 Q815.453 1451.14 817.767 1450.77 Q820.105 1450.39 822.166 1450.39 Q827.49 1450.39 830.591 1452.83 Q833.693 1455.23 833.693 1459.35 Q833.693 1462.22 832.05 1464.21 Q830.406 1466.18 827.374 1466.95 Z" fill="#000000" fill-rule="nonzero" fill-opacity="1" /><path clip-path="url(#clip600)" d="M844.179 1481.64 L851.818 1481.64 L851.818 1455.28 L843.508 1456.95 L843.508 1452.69 L851.772 1451.02 L856.448 1451.02 L856.448 1481.64 L864.087 1481.64 L864.087 1485.58 L844.179 1485.58 L844.179 1481.64 Z" fill="#000000" fill-rule="nonzero" fill-opacity="1" /><path clip-path="url(#clip600)" d="M975.046 1481.64 L982.685 1481.64 L982.685 1455.28 L974.375 1456.95 L974.375 1452.69 L982.639 1451.02 L987.315 1451.02 L987.315 1481.64 L994.953 1481.64 L994.953 1485.58 L975.046 1485.58 L975.046 1481.64 Z" fill="#000000" fill-rule="nonzero" fill-opacity="1" /><path clip-path="url(#clip600)" d="M1018.56 1466.95 Q1021.92 1467.66 1023.8 1469.93 Q1025.69 1472.2 1025.69 1475.53 Q1025.69 1480.65 1022.18 1483.45 Q1018.66 1486.25 1012.18 1486.25 Q1010 1486.25 1007.68 1485.81 Q1005.39 1485.39 1002.94 1484.54 L1002.94 1480.02 Q1004.88 1481.16 1007.2 1481.74 Q1009.51 1482.32 1012.04 1482.32 Q1016.43 1482.32 1018.73 1480.58 Q1021.04 1478.84 1021.04 1475.53 Q1021.04 1472.48 1018.89 1470.77 Q1016.76 1469.03 1012.94 1469.03 L1008.91 1469.03 L1008.91 1465.19 L1013.12 1465.19 Q1016.57 1465.19 1018.4 1463.82 Q1020.23 1462.43 1020.23 1459.84 Q1020.23 1457.18 1018.33 1455.77 Q1016.46 1454.33 1012.94 1454.33 Q1011.02 1454.33 1008.82 1454.75 Q1006.62 1455.16 1003.98 1456.04 L1003.98 1451.88 Q1006.64 1451.14 1008.96 1450.77 Q1011.3 1450.39 1013.36 1450.39 Q1018.68 1450.39 1021.78 1452.83 Q1024.88 1455.23 1024.88 1459.35 Q1024.88 1462.22 1023.24 1464.21 Q1021.6 1466.18 1018.56 1466.95 Z" fill="#000000" fill-rule="nonzero" fill-opacity="1" /><path clip-path="url(#clip600)" d="M1038.59 1481.64 L1054.91 1481.64 L1054.91 1485.58 L1032.96 1485.58 L1032.96 1481.64 Q1035.62 1478.89 1040.21 1474.26 Q1044.81 1469.61 1045.99 1468.27 Q1048.24 1465.74 1049.12 1464.01 Q1050.02 1462.25 1050.02 1460.56 Q1050.02 1457.8 1048.08 1456.07 Q1046.16 1454.33 1043.06 1454.33 Q1040.86 1454.33 1038.4 1455.09 Q1035.97 1455.86 1033.19 1457.41 L1033.19 1452.69 Q1036.02 1451.55 1038.47 1450.97 Q1040.93 1450.39 1042.96 1450.39 Q1048.33 1450.39 1051.53 1453.08 Q1054.72 1455.77 1054.72 1460.26 Q1054.72 1462.39 1053.91 1464.31 Q1053.12 1466.2 1051.02 1468.8 Q1050.44 1469.47 1047.34 1472.69 Q1044.24 1475.88 1038.59 1481.64 Z" fill="#000000" fill-rule="nonzero" fill-opacity="1" /><path clip-path="url(#clip600)" d="M1165.58 1481.64 L1173.22 1481.64 L1173.22 1455.28 L1164.91 1456.95 L1164.91 1452.69 L1173.17 1451.02 L1177.85 1451.02 L1177.85 1481.64 L1185.48 1481.64 L1185.48 1485.58 L1165.58 1485.58 L1165.58 1481.64 Z" fill="#000000" fill-rule="nonzero" fill-opacity="1" /><path clip-path="url(#clip600)" d="M1209.1 1466.95 Q1212.45 1467.66 1214.33 1469.93 Q1216.22 1472.2 1216.22 1475.53 Q1216.22 1480.65 1212.71 1483.45 Q1209.19 1486.25 1202.71 1486.25 Q1200.53 1486.25 1198.22 1485.81 Q1195.92 1485.39 1193.47 1484.54 L1193.47 1480.02 Q1195.41 1481.16 1197.73 1481.74 Q1200.04 1482.32 1202.57 1482.32 Q1206.97 1482.32 1209.26 1480.58 Q1211.57 1478.84 1211.57 1475.53 Q1211.57 1472.48 1209.42 1470.77 Q1207.29 1469.03 1203.47 1469.03 L1199.44 1469.03 L1199.44 1465.19 L1203.66 1465.19 Q1207.1 1465.19 1208.93 1463.82 Q1210.76 1462.43 1210.76 1459.84 Q1210.76 1457.18 1208.86 1455.77 Q1206.99 1454.33 1203.47 1454.33 Q1201.55 1454.33 1199.35 1454.75 Q1197.15 1455.16 1194.51 1456.04 L1194.51 1451.88 Q1197.17 1451.14 1199.49 1450.77 Q1201.83 1450.39 1203.89 1450.39 Q1209.21 1450.39 1212.31 1452.83 Q1215.41 1455.23 1215.41 1459.35 Q1215.41 1462.22 1213.77 1464.21 Q1212.13 1466.18 1209.1 1466.95 Z" fill="#000000" fill-rule="nonzero" fill-opacity="1" /><path clip-path="url(#clip600)" d="M1239.26 1466.95 Q1242.61 1467.66 1244.49 1469.93 Q1246.39 1472.2 1246.39 1475.53 Q1246.39 1480.65 1242.87 1483.45 Q1239.35 1486.25 1232.87 1486.25 Q1230.69 1486.25 1228.38 1485.81 Q1226.09 1485.39 1223.63 1484.54 L1223.63 1480.02 Q1225.58 1481.16 1227.89 1481.74 Q1230.21 1482.32 1232.73 1482.32 Q1237.13 1482.32 1239.42 1480.58 Q1241.73 1478.84 1241.73 1475.53 Q1241.73 1472.48 1239.58 1470.77 Q1237.45 1469.03 1233.63 1469.03 L1229.6 1469.03 L1229.6 1465.19 L1233.82 1465.19 Q1237.27 1465.19 1239.1 1463.82 Q1240.92 1462.43 1240.92 1459.84 Q1240.92 1457.18 1239.03 1455.77 Q1237.15 1454.33 1233.63 1454.33 Q1231.71 1454.33 1229.51 1454.75 Q1227.31 1455.16 1224.67 1456.04 L1224.67 1451.88 Q1227.34 1451.14 1229.65 1450.77 Q1231.99 1450.39 1234.05 1450.39 Q1239.37 1450.39 1242.47 1452.83 Q1245.58 1455.23 1245.58 1459.35 Q1245.58 1462.22 1243.93 1464.21 Q1242.29 1466.18 1239.26 1466.95 Z" fill="#000000" fill-rule="nonzero" fill-opacity="1" /><path clip-path="url(#clip600)" d="M1356.02 1481.64 L1363.65 1481.64 L1363.65 1455.28 L1355.34 1456.95 L1355.34 1452.69 L1363.61 1451.02 L1368.28 1451.02 L1368.28 1481.64 L1375.92 1481.64 L1375.92 1485.58 L1356.02 1485.58 L1356.02 1481.64 Z" fill="#000000" fill-rule="nonzero" fill-opacity="1" /><path clip-path="url(#clip600)" d="M1399.53 1466.95 Q1402.89 1467.66 1404.77 1469.93 Q1406.66 1472.2 1406.66 1475.53 Q1406.66 1480.65 1403.14 1483.45 Q1399.63 1486.25 1393.14 1486.25 Q1390.97 1486.25 1388.65 1485.81 Q1386.36 1485.39 1383.91 1484.54 L1383.91 1480.02 Q1385.85 1481.16 1388.17 1481.74 Q1390.48 1482.32 1393.01 1482.32 Q1397.4 1482.32 1399.7 1480.58 Q1402.01 1478.84 1402.01 1475.53 Q1402.01 1472.48 1399.86 1470.77 Q1397.73 1469.03 1393.91 1469.03 L1389.88 1469.03 L1389.88 1465.19 L1394.09 1465.19 Q1397.54 1465.19 1399.37 1463.82 Q1401.2 1462.43 1401.2 1459.84 Q1401.2 1457.18 1399.3 1455.77 Q1397.43 1454.33 1393.91 1454.33 Q1391.99 1454.33 1389.79 1454.75 Q1387.59 1455.16 1384.95 1456.04 L1384.95 1451.88 Q1387.61 1451.14 1389.93 1450.77 Q1392.27 1450.39 1394.33 1450.39 Q1399.65 1450.39 1402.75 1452.83 Q1405.85 1455.23 1405.85 1459.35 Q1405.85 1462.22 1404.21 1464.21 Q1402.57 1466.18 1399.53 1466.95 Z" fill="#000000" fill-rule="nonzero" fill-opacity="1" /><path clip-path="url(#clip600)" d="M1428.38 1455.09 L1416.57 1473.54 L1428.38 1473.54 L1428.38 1455.09 M1427.15 1451.02 L1433.03 1451.02 L1433.03 1473.54 L1437.96 1473.54 L1437.96 1477.43 L1433.03 1477.43 L1433.03 1485.58 L1428.38 1485.58 L1428.38 1477.43 L1412.77 1477.43 L1412.77 1472.92 L1427.15 1451.02 Z" fill="#000000" fill-rule="nonzero" fill-opacity="1" /><path clip-path="url(#clip600)" d="M1547.76 1481.64 L1555.4 1481.64 L1555.4 1455.28 L1547.09 1456.95 L1547.09 1452.69 L1555.35 1451.02 L1560.03 1451.02 L1560.03 1481.64 L1567.67 1481.64 L1567.67 1485.58 L1547.76 1485.58 L1547.76 1481.64 Z" fill="#000000" fill-rule="nonzero" fill-opacity="1" /><path clip-path="url(#clip600)" d="M1591.28 1466.95 Q1594.64 1467.66 1596.51 1469.93 Q1598.41 1472.2 1598.41 1475.53 Q1598.41 1480.65 1594.89 1483.45 Q1591.37 1486.25 1584.89 1486.25 Q1582.71 1486.25 1580.4 1485.81 Q1578.11 1485.39 1575.65 1484.54 L1575.65 1480.02 Q1577.6 1481.16 1579.91 1481.74 Q1582.23 1482.32 1584.75 1482.32 Q1589.15 1482.32 1591.44 1480.58 Q1593.76 1478.84 1593.76 1475.53 Q1593.76 1472.48 1591.6 1470.77 Q1589.47 1469.03 1585.65 1469.03 L1581.63 1469.03 L1581.63 1465.19 L1585.84 1465.19 Q1589.29 1465.19 1591.12 1463.82 Q1592.95 1462.43 1592.95 1459.84 Q1592.95 1457.18 1591.05 1455.77 Q1589.17 1454.33 1585.65 1454.33 Q1583.73 1454.33 1581.53 1454.75 Q1579.34 1455.16 1576.7 1456.04 L1576.7 1451.88 Q1579.36 1451.14 1581.67 1450.77 Q1584.01 1450.39 1586.07 1450.39 Q1591.4 1450.39 1594.5 1452.83 Q1597.6 1455.23 1597.6 1459.35 Q1597.6 1462.22 1595.96 1464.21 Q1594.31 1466.18 1591.28 1466.95 Z" fill="#000000" fill-rule="nonzero" fill-opacity="1" /><path clip-path="url(#clip600)" d="M1607.32 1451.02 L1625.68 1451.02 L1625.68 1454.96 L1611.6 1454.96 L1611.6 1463.43 Q1612.62 1463.08 1613.64 1462.92 Q1614.66 1462.73 1615.68 1462.73 Q1621.46 1462.73 1624.84 1465.9 Q1628.22 1469.08 1628.22 1474.49 Q1628.22 1480.07 1624.75 1483.17 Q1621.28 1486.25 1614.96 1486.25 Q1612.78 1486.25 1610.52 1485.88 Q1608.27 1485.51 1605.86 1484.77 L1605.86 1480.07 Q1607.95 1481.2 1610.17 1481.76 Q1612.39 1482.32 1614.87 1482.32 Q1618.87 1482.32 1621.21 1480.21 Q1623.55 1478.1 1623.55 1474.49 Q1623.55 1470.88 1621.21 1468.77 Q1618.87 1466.67 1614.87 1466.67 Q1612.99 1466.67 1611.12 1467.08 Q1609.27 1467.5 1607.32 1468.38 L1607.32 1451.02 Z" fill="#000000" fill-rule="nonzero" fill-opacity="1" /><path clip-path="url(#clip600)" d="M1738.19 1481.64 L1745.83 1481.64 L1745.83 1455.28 L1737.52 1456.95 L1737.52 1452.69 L1745.78 1451.02 L1750.46 1451.02 L1750.46 1481.64 L1758.1 1481.64 L1758.1 1485.58 L1738.19 1485.58 L1738.19 1481.64 Z" fill="#000000" fill-rule="nonzero" fill-opacity="1" /><path clip-path="url(#clip600)" d="M1781.71 1466.95 Q1785.06 1467.66 1786.94 1469.93 Q1788.84 1472.2 1788.84 1475.53 Q1788.84 1480.65 1785.32 1483.45 Q1781.8 1486.25 1775.32 1486.25 Q1773.14 1486.25 1770.83 1485.81 Q1768.54 1485.39 1766.08 1484.54 L1766.08 1480.02 Q1768.03 1481.16 1770.34 1481.74 Q1772.66 1482.32 1775.18 1482.32 Q1779.58 1482.32 1781.87 1480.58 Q1784.18 1478.84 1784.18 1475.53 Q1784.18 1472.48 1782.03 1470.77 Q1779.9 1469.03 1776.08 1469.03 L1772.05 1469.03 L1772.05 1465.19 L1776.27 1465.19 Q1779.72 1465.19 1781.54 1463.82 Q1783.37 1462.43 1783.37 1459.84 Q1783.37 1457.18 1781.47 1455.77 Q1779.6 1454.33 1776.08 1454.33 Q1774.16 1454.33 1771.96 1454.75 Q1769.76 1455.16 1767.12 1456.04 L1767.12 1451.88 Q1769.79 1451.14 1772.1 1450.77 Q1774.44 1450.39 1776.5 1450.39 Q1781.82 1450.39 1784.92 1452.83 Q1788.03 1455.23 1788.03 1459.35 Q1788.03 1462.22 1786.38 1464.21 Q1784.74 1466.18 1781.71 1466.95 Z" fill="#000000" fill-rule="nonzero" fill-opacity="1" /><path clip-path="url(#clip600)" d="M1808.28 1466.44 Q1805.13 1466.44 1803.28 1468.59 Q1801.45 1470.74 1801.45 1474.49 Q1801.45 1478.22 1803.28 1480.39 Q1805.13 1482.55 1808.28 1482.55 Q1811.43 1482.55 1813.26 1480.39 Q1815.11 1478.22 1815.11 1474.49 Q1815.11 1470.74 1813.26 1468.59 Q1811.43 1466.44 1808.28 1466.44 M1817.56 1451.78 L1817.56 1456.04 Q1815.8 1455.21 1814 1454.77 Q1812.22 1454.33 1810.46 1454.33 Q1805.83 1454.33 1803.37 1457.45 Q1800.94 1460.58 1800.6 1466.9 Q1801.96 1464.89 1804.02 1463.82 Q1806.08 1462.73 1808.56 1462.73 Q1813.77 1462.73 1816.78 1465.9 Q1819.81 1469.05 1819.81 1474.49 Q1819.81 1479.82 1816.66 1483.03 Q1813.51 1486.25 1808.28 1486.25 Q1802.29 1486.25 1799.11 1481.67 Q1795.94 1477.06 1795.94 1468.33 Q1795.94 1460.14 1799.83 1455.28 Q1803.72 1450.39 1810.27 1450.39 Q1812.03 1450.39 1813.81 1450.74 Q1815.62 1451.09 1817.56 1451.78 Z" fill="#000000" fill-rule="nonzero" fill-opacity="1" /><path clip-path="url(#clip600)" d="M1929.73 1481.64 L1937.36 1481.64 L1937.36 1455.28 L1929.05 1456.95 L1929.05 1452.69 L1937.32 1451.02 L1941.99 1451.02 L1941.99 1481.64 L1949.63 1481.64 L1949.63 1485.58 L1929.73 1485.58 L1929.73 1481.64 Z" fill="#000000" fill-rule="nonzero" fill-opacity="1" /><path clip-path="url(#clip600)" d="M1973.24 1466.95 Q1976.6 1467.66 1978.48 1469.93 Q1980.37 1472.2 1980.37 1475.53 Q1980.37 1480.65 1976.86 1483.45 Q1973.34 1486.25 1966.86 1486.25 Q1964.68 1486.25 1962.36 1485.81 Q1960.07 1485.39 1957.62 1484.54 L1957.62 1480.02 Q1959.56 1481.16 1961.88 1481.74 Q1964.19 1482.32 1966.72 1482.32 Q1971.11 1482.32 1973.41 1480.58 Q1975.72 1478.84 1975.72 1475.53 Q1975.72 1472.48 1973.57 1470.77 Q1971.44 1469.03 1967.62 1469.03 L1963.59 1469.03 L1963.59 1465.19 L1967.8 1465.19 Q1971.25 1465.19 1973.08 1463.82 Q1974.91 1462.43 1974.91 1459.84 Q1974.91 1457.18 1973.01 1455.77 Q1971.14 1454.33 1967.62 1454.33 Q1965.7 1454.33 1963.5 1454.75 Q1961.3 1455.16 1958.66 1456.04 L1958.66 1451.88 Q1961.32 1451.14 1963.64 1450.77 Q1965.98 1450.39 1968.04 1450.39 Q1973.36 1450.39 1976.46 1452.83 Q1979.56 1455.23 1979.56 1459.35 Q1979.56 1462.22 1977.92 1464.21 Q1976.28 1466.18 1973.24 1466.95 Z" fill="#000000" fill-rule="nonzero" fill-opacity="1" /><path clip-path="url(#clip600)" d="M1988.06 1451.02 L2010.28 1451.02 L2010.28 1453.01 L1997.73 1485.58 L1992.85 1485.58 L2004.66 1454.96 L1988.06 1454.96 L1988.06 1451.02 Z" fill="#000000" fill-rule="nonzero" fill-opacity="1" /><path clip-path="url(#clip600)" d="M2120.33 1481.64 L2127.97 1481.64 L2127.97 1455.28 L2119.65 1456.95 L2119.65 1452.69 L2127.92 1451.02 L2132.59 1451.02 L2132.59 1481.64 L2140.23 1481.64 L2140.23 1485.58 L2120.33 1485.58 L2120.33 1481.64 Z" fill="#000000" fill-rule="nonzero" fill-opacity="1" /><path clip-path="url(#clip600)" d="M2163.84 1466.95 Q2167.2 1467.66 2169.08 1469.93 Q2170.97 1472.2 2170.97 1475.53 Q2170.97 1480.65 2167.46 1483.45 Q2163.94 1486.25 2157.46 1486.25 Q2155.28 1486.25 2152.96 1485.81 Q2150.67 1485.39 2148.22 1484.54 L2148.22 1480.02 Q2150.16 1481.16 2152.48 1481.74 Q2154.79 1482.32 2157.32 1482.32 Q2161.71 1482.32 2164.01 1480.58 Q2166.32 1478.84 2166.32 1475.53 Q2166.32 1472.48 2164.17 1470.77 Q2162.04 1469.03 2158.22 1469.03 L2154.19 1469.03 L2154.19 1465.19 L2158.4 1465.19 Q2161.85 1465.19 2163.68 1463.82 Q2165.51 1462.43 2165.51 1459.84 Q2165.51 1457.18 2163.61 1455.77 Q2161.74 1454.33 2158.22 1454.33 Q2156.3 1454.33 2154.1 1454.75 Q2151.9 1455.16 2149.26 1456.04 L2149.26 1451.88 Q2151.92 1451.14 2154.24 1450.77 Q2156.58 1450.39 2158.64 1450.39 Q2163.96 1450.39 2167.06 1452.83 Q2170.16 1455.23 2170.16 1459.35 Q2170.16 1462.22 2168.52 1464.21 Q2166.88 1466.18 2163.84 1466.95 Z" fill="#000000" fill-rule="nonzero" fill-opacity="1" /><path clip-path="url(#clip600)" d="M2189.84 1469.17 Q2186.51 1469.17 2184.59 1470.95 Q2182.69 1472.73 2182.69 1475.86 Q2182.69 1478.98 2184.59 1480.77 Q2186.51 1482.55 2189.84 1482.55 Q2193.17 1482.55 2195.09 1480.77 Q2197.02 1478.96 2197.02 1475.86 Q2197.02 1472.73 2195.09 1470.95 Q2193.2 1469.17 2189.84 1469.17 M2185.16 1467.18 Q2182.15 1466.44 2180.46 1464.38 Q2178.8 1462.32 2178.8 1459.35 Q2178.8 1455.21 2181.74 1452.8 Q2184.7 1450.39 2189.84 1450.39 Q2195 1450.39 2197.94 1452.8 Q2200.88 1455.21 2200.88 1459.35 Q2200.88 1462.32 2199.19 1464.38 Q2197.52 1466.44 2194.54 1467.18 Q2197.92 1467.96 2199.79 1470.26 Q2201.69 1472.55 2201.69 1475.86 Q2201.69 1480.88 2198.61 1483.57 Q2195.56 1486.25 2189.84 1486.25 Q2184.12 1486.25 2181.04 1483.57 Q2177.99 1480.88 2177.99 1475.86 Q2177.99 1472.55 2179.89 1470.26 Q2181.78 1467.96 2185.16 1467.18 M2183.45 1459.79 Q2183.45 1462.48 2185.12 1463.98 Q2186.81 1465.49 2189.84 1465.49 Q2192.85 1465.49 2194.54 1463.98 Q2196.25 1462.48 2196.25 1459.79 Q2196.25 1457.11 2194.54 1455.6 Q2192.85 1454.1 2189.84 1454.1 Q2186.81 1454.1 2185.12 1455.6 Q2183.45 1457.11 2183.45 1459.79 Z" fill="#000000" fill-rule="nonzero" fill-opacity="1" /><path clip-path="url(#clip600)" d="M957.146 1524.18 L957.146 1530.96 Q953.9 1527.94 950.208 1526.44 Q946.547 1524.95 942.41 1524.95 Q934.261 1524.95 929.933 1529.95 Q925.604 1534.91 925.604 1544.33 Q925.604 1553.72 929.933 1558.72 Q934.261 1563.68 942.41 1563.68 Q946.547 1563.68 950.208 1562.19 Q953.9 1560.69 957.146 1557.67 L957.146 1564.38 Q953.772 1566.68 949.985 1567.82 Q946.229 1568.97 942.028 1568.97 Q931.238 1568.97 925.031 1562.38 Q918.825 1555.76 918.825 1544.33 Q918.825 1532.87 925.031 1526.28 Q931.238 1519.66 942.028 1519.66 Q946.293 1519.66 950.048 1520.81 Q953.836 1521.92 957.146 1524.18 Z" fill="#000000" fill-rule="nonzero" fill-opacity="1" /><path clip-path="url(#clip600)" d="M980.636 1536.5 Q975.925 1536.5 973.188 1540.19 Q970.451 1543.85 970.451 1550.25 Q970.451 1556.65 973.156 1560.34 Q975.893 1564 980.636 1564 Q985.314 1564 988.052 1560.31 Q990.789 1556.62 990.789 1550.25 Q990.789 1543.92 988.052 1540.23 Q985.314 1536.5 980.636 1536.5 M980.636 1531.54 Q988.274 1531.54 992.635 1536.5 Q996.996 1541.47 996.996 1550.25 Q996.996 1559 992.635 1564 Q988.274 1568.97 980.636 1568.97 Q972.965 1568.97 968.604 1564 Q964.276 1559 964.276 1550.25 Q964.276 1541.47 968.604 1536.5 Q972.965 1531.54 980.636 1531.54 Z" fill="#000000" fill-rule="nonzero" fill-opacity="1" /><path clip-path="url(#clip600)" d="M1006.1 1553.98 L1006.1 1532.4 L1011.95 1532.4 L1011.95 1553.75 Q1011.95 1558.81 1013.93 1561.36 Q1015.9 1563.87 1019.85 1563.87 Q1024.59 1563.87 1027.33 1560.85 Q1030.1 1557.83 1030.1 1552.61 L1030.1 1532.4 L1035.95 1532.4 L1035.95 1568.04 L1030.1 1568.04 L1030.1 1562.57 Q1027.96 1565.82 1025.13 1567.41 Q1022.33 1568.97 1018.61 1568.97 Q1012.46 1568.97 1009.28 1565.15 Q1006.1 1561.33 1006.1 1553.98 M1020.84 1531.54 L1020.84 1531.54 Z" fill="#000000" fill-rule="nonzero" fill-opacity="1" /><path clip-path="url(#clip600)" d="M1077.65 1546.53 L1077.65 1568.04 L1071.79 1568.04 L1071.79 1546.72 Q1071.79 1541.66 1069.82 1539.14 Q1067.85 1536.63 1063.9 1536.63 Q1059.16 1536.63 1056.42 1539.65 Q1053.68 1542.68 1053.68 1547.9 L1053.68 1568.04 L1047.79 1568.04 L1047.79 1532.4 L1053.68 1532.4 L1053.68 1537.93 Q1055.78 1534.72 1058.62 1533.13 Q1061.48 1531.54 1065.2 1531.54 Q1071.35 1531.54 1074.5 1535.36 Q1077.65 1539.14 1077.65 1546.53 Z" fill="#000000" fill-rule="nonzero" fill-opacity="1" /><path clip-path="url(#clip600)" d="M1095.12 1522.27 L1095.12 1532.4 L1107.19 1532.4 L1107.19 1536.95 L1095.12 1536.95 L1095.12 1556.3 Q1095.12 1560.66 1096.3 1561.9 Q1097.51 1563.14 1101.17 1563.14 L1107.19 1563.14 L1107.19 1568.04 L1101.17 1568.04 Q1094.39 1568.04 1091.81 1565.53 Q1089.23 1562.98 1089.23 1556.3 L1089.23 1536.95 L1084.94 1536.95 L1084.94 1532.4 L1089.23 1532.4 L1089.23 1522.27 L1095.12 1522.27 Z" fill="#000000" fill-rule="nonzero" fill-opacity="1" /><path clip-path="url(#clip600)" d="M1114.89 1532.4 L1120.74 1532.4 L1120.74 1568.04 L1114.89 1568.04 L1114.89 1532.4 M1114.89 1518.52 L1120.74 1518.52 L1120.74 1525.93 L1114.89 1525.93 L1114.89 1518.52 Z" fill="#000000" fill-rule="nonzero" fill-opacity="1" /><path clip-path="url(#clip600)" d="M1162.63 1546.53 L1162.63 1568.04 L1156.77 1568.04 L1156.77 1546.72 Q1156.77 1541.66 1154.8 1539.14 Q1152.83 1536.63 1148.88 1536.63 Q1144.14 1536.63 1141.4 1539.65 Q1138.66 1542.68 1138.66 1547.9 L1138.66 1568.04 L1132.78 1568.04 L1132.78 1532.4 L1138.66 1532.4 L1138.66 1537.93 Q1140.76 1534.72 1143.6 1533.13 Q1146.46 1531.54 1150.19 1531.54 Q1156.33 1531.54 1159.48 1535.36 Q1162.63 1539.14 1162.63 1546.53 Z" fill="#000000" fill-rule="nonzero" fill-opacity="1" /><path clip-path="url(#clip600)" d="M1197.77 1549.81 Q1197.77 1543.44 1195.13 1539.94 Q1192.52 1536.44 1187.78 1536.44 Q1183.07 1536.44 1180.42 1539.94 Q1177.81 1543.44 1177.81 1549.81 Q1177.81 1556.14 1180.42 1559.64 Q1183.07 1563.14 1187.78 1563.14 Q1192.52 1563.14 1195.13 1559.64 Q1197.77 1556.14 1197.77 1549.81 M1203.63 1563.62 Q1203.63 1572.72 1199.58 1577.15 Q1195.54 1581.6 1187.2 1581.6 Q1184.12 1581.6 1181.38 1581.13 Q1178.64 1580.68 1176.06 1579.72 L1176.06 1574.03 Q1178.64 1575.43 1181.16 1576.1 Q1183.67 1576.76 1186.28 1576.76 Q1192.04 1576.76 1194.91 1573.74 Q1197.77 1570.75 1197.77 1564.67 L1197.77 1561.77 Q1195.96 1564.92 1193.12 1566.48 Q1190.29 1568.04 1186.34 1568.04 Q1179.79 1568.04 1175.78 1563.05 Q1171.77 1558.05 1171.77 1549.81 Q1171.77 1541.53 1175.78 1536.53 Q1179.79 1531.54 1186.34 1531.54 Q1190.29 1531.54 1193.12 1533.1 Q1195.96 1534.66 1197.77 1537.81 L1197.77 1532.4 L1203.63 1532.4 L1203.63 1563.62 Z" fill="#000000" fill-rule="nonzero" fill-opacity="1" /><path clip-path="url(#clip600)" d="M1264.16 1539.24 Q1266.36 1535.29 1269.42 1533.41 Q1272.47 1531.54 1276.61 1531.54 Q1282.18 1531.54 1285.2 1535.45 Q1288.23 1539.33 1288.23 1546.53 L1288.23 1568.04 L1282.34 1568.04 L1282.34 1546.72 Q1282.34 1541.59 1280.52 1539.11 Q1278.71 1536.63 1274.99 1536.63 Q1270.43 1536.63 1267.79 1539.65 Q1265.15 1542.68 1265.15 1547.9 L1265.15 1568.04 L1259.26 1568.04 L1259.26 1546.72 Q1259.26 1541.56 1257.45 1539.11 Q1255.63 1536.63 1251.85 1536.63 Q1247.36 1536.63 1244.72 1539.68 Q1242.08 1542.71 1242.08 1547.9 L1242.08 1568.04 L1236.19 1568.04 L1236.19 1532.4 L1242.08 1532.4 L1242.08 1537.93 Q1244.08 1534.66 1246.88 1533.1 Q1249.68 1531.54 1253.53 1531.54 Q1257.42 1531.54 1260.12 1533.51 Q1262.86 1535.48 1264.16 1539.24 Z" fill="#000000" fill-rule="nonzero" fill-opacity="1" /><path clip-path="url(#clip600)" d="M1330.4 1548.76 L1330.4 1551.62 L1303.47 1551.62 Q1303.85 1557.67 1307.1 1560.85 Q1310.38 1564 1316.2 1564 Q1319.58 1564 1322.73 1563.17 Q1325.91 1562.35 1329.03 1560.69 L1329.03 1566.23 Q1325.88 1567.57 1322.57 1568.27 Q1319.26 1568.97 1315.85 1568.97 Q1307.32 1568.97 1302.33 1564 Q1297.36 1559.04 1297.36 1550.57 Q1297.36 1541.82 1302.07 1536.69 Q1306.81 1531.54 1314.84 1531.54 Q1322.03 1531.54 1326.2 1536.18 Q1330.4 1540.8 1330.4 1548.76 M1324.54 1547.04 Q1324.48 1542.23 1321.84 1539.37 Q1319.23 1536.5 1314.9 1536.5 Q1310 1536.5 1307.04 1539.27 Q1304.11 1542.04 1303.66 1547.07 L1324.54 1547.04 Z" fill="#000000" fill-rule="nonzero" fill-opacity="1" /><path clip-path="url(#clip600)" d="M1356.21 1550.12 Q1349.11 1550.12 1346.38 1551.75 Q1343.64 1553.37 1343.64 1557.29 Q1343.64 1560.4 1345.68 1562.25 Q1347.75 1564.07 1351.28 1564.07 Q1356.15 1564.07 1359.08 1560.63 Q1362.04 1557.16 1362.04 1551.43 L1362.04 1550.12 L1356.21 1550.12 M1367.89 1547.71 L1367.89 1568.04 L1362.04 1568.04 L1362.04 1562.63 Q1360.03 1565.88 1357.04 1567.44 Q1354.05 1568.97 1349.72 1568.97 Q1344.24 1568.97 1341 1565.91 Q1337.78 1562.82 1337.78 1557.67 Q1337.78 1551.65 1341.79 1548.6 Q1345.84 1545.54 1353.83 1545.54 L1362.04 1545.54 L1362.04 1544.97 Q1362.04 1540.93 1359.36 1538.73 Q1356.72 1536.5 1351.92 1536.5 Q1348.86 1536.5 1345.96 1537.23 Q1343.07 1537.97 1340.39 1539.43 L1340.39 1534.02 Q1343.61 1532.78 1346.63 1532.17 Q1349.66 1531.54 1352.52 1531.54 Q1360.25 1531.54 1364.07 1535.55 Q1367.89 1539.56 1367.89 1547.71 Z" fill="#000000" fill-rule="nonzero" fill-opacity="1" /><path clip-path="url(#clip600)" d="M1402.68 1533.45 L1402.68 1538.98 Q1400.2 1537.71 1397.53 1537.07 Q1394.85 1536.44 1391.99 1536.44 Q1387.63 1536.44 1385.43 1537.77 Q1383.27 1539.11 1383.27 1541.79 Q1383.27 1543.82 1384.83 1545 Q1386.39 1546.15 1391.1 1547.2 L1393.1 1547.64 Q1399.34 1548.98 1401.95 1551.43 Q1404.59 1553.85 1404.59 1558.21 Q1404.59 1563.17 1400.64 1566.07 Q1396.73 1568.97 1389.86 1568.97 Q1386.99 1568.97 1383.87 1568.39 Q1380.78 1567.85 1377.35 1566.74 L1377.35 1560.69 Q1380.59 1562.38 1383.74 1563.24 Q1386.9 1564.07 1389.98 1564.07 Q1394.12 1564.07 1396.35 1562.66 Q1398.58 1561.23 1398.58 1558.65 Q1398.58 1556.27 1396.95 1554.99 Q1395.36 1553.72 1389.92 1552.54 L1387.88 1552.07 Q1382.44 1550.92 1380.02 1548.56 Q1377.6 1546.18 1377.6 1542.04 Q1377.6 1537.01 1381.17 1534.27 Q1384.73 1531.54 1391.29 1531.54 Q1394.53 1531.54 1397.4 1532.01 Q1400.26 1532.49 1402.68 1533.45 Z" fill="#000000" fill-rule="nonzero" fill-opacity="1" /><path clip-path="url(#clip600)" d="M1413.31 1553.98 L1413.31 1532.4 L1419.17 1532.4 L1419.17 1553.75 Q1419.17 1558.81 1421.14 1561.36 Q1423.12 1563.87 1427.06 1563.87 Q1431.81 1563.87 1434.54 1560.85 Q1437.31 1557.83 1437.31 1552.61 L1437.31 1532.4 L1443.17 1532.4 L1443.17 1568.04 L1437.31 1568.04 L1437.31 1562.57 Q1435.18 1565.82 1432.35 1567.41 Q1429.55 1568.97 1425.82 1568.97 Q1419.68 1568.97 1416.5 1565.15 Q1413.31 1561.33 1413.31 1553.98 M1428.05 1531.54 L1428.05 1531.54 Z" fill="#000000" fill-rule="nonzero" fill-opacity="1" /><path clip-path="url(#clip600)" d="M1475.89 1537.87 Q1474.9 1537.3 1473.72 1537.04 Q1472.58 1536.76 1471.18 1536.76 Q1466.21 1536.76 1463.54 1540 Q1460.9 1543.22 1460.9 1549.27 L1460.9 1568.04 L1455.01 1568.04 L1455.01 1532.4 L1460.9 1532.4 L1460.9 1537.93 Q1462.74 1534.69 1465.7 1533.13 Q1468.66 1531.54 1472.9 1531.54 Q1473.5 1531.54 1474.23 1531.63 Q1474.96 1531.7 1475.86 1531.85 L1475.89 1537.87 Z" fill="#000000" fill-rule="nonzero" fill-opacity="1" /><path clip-path="url(#clip600)" d="M1511.09 1548.76 L1511.09 1551.62 L1484.16 1551.62 Q1484.54 1557.67 1487.79 1560.85 Q1491.07 1564 1496.89 1564 Q1500.27 1564 1503.42 1563.17 Q1506.6 1562.35 1509.72 1560.69 L1509.72 1566.23 Q1506.57 1567.57 1503.26 1568.27 Q1499.95 1568.97 1496.54 1568.97 Q1488.01 1568.97 1483.02 1564 Q1478.05 1559.04 1478.05 1550.57 Q1478.05 1541.82 1482.76 1536.69 Q1487.51 1531.54 1495.53 1531.54 Q1502.72 1531.54 1506.89 1536.18 Q1511.09 1540.8 1511.09 1548.76 M1505.23 1547.04 Q1505.17 1542.23 1502.53 1539.37 Q1499.92 1536.5 1495.59 1536.5 Q1490.69 1536.5 1487.73 1539.27 Q1484.8 1542.04 1484.35 1547.07 L1505.23 1547.04 Z" fill="#000000" fill-rule="nonzero" fill-opacity="1" /><path clip-path="url(#clip600)" d="M1548.46 1539.24 Q1550.65 1535.29 1553.71 1533.41 Q1556.76 1531.54 1560.9 1531.54 Q1566.47 1531.54 1569.5 1535.45 Q1572.52 1539.33 1572.52 1546.53 L1572.52 1568.04 L1566.63 1568.04 L1566.63 1546.72 Q1566.63 1541.59 1564.82 1539.11 Q1563 1536.63 1559.28 1536.63 Q1554.73 1536.63 1552.09 1539.65 Q1549.44 1542.68 1549.44 1547.9 L1549.44 1568.04 L1543.56 1568.04 L1543.56 1546.72 Q1543.56 1541.56 1541.74 1539.11 Q1539.93 1536.63 1536.14 1536.63 Q1531.65 1536.63 1529.01 1539.68 Q1526.37 1542.71 1526.37 1547.9 L1526.37 1568.04 L1520.48 1568.04 L1520.48 1532.4 L1526.37 1532.4 L1526.37 1537.93 Q1528.37 1534.66 1531.17 1533.1 Q1533.97 1531.54 1537.83 1531.54 Q1541.71 1531.54 1544.41 1533.51 Q1547.15 1535.48 1548.46 1539.24 Z" fill="#000000" fill-rule="nonzero" fill-opacity="1" /><path clip-path="url(#clip600)" d="M1614.69 1548.76 L1614.69 1551.62 L1587.76 1551.62 Q1588.15 1557.67 1591.39 1560.85 Q1594.67 1564 1600.5 1564 Q1603.87 1564 1607.02 1563.17 Q1610.2 1562.35 1613.32 1560.69 L1613.32 1566.23 Q1610.17 1567.57 1606.86 1568.27 Q1603.55 1568.97 1600.15 1568.97 Q1591.62 1568.97 1586.62 1564 Q1581.65 1559.04 1581.65 1550.57 Q1581.65 1541.82 1586.36 1536.69 Q1591.11 1531.54 1599.13 1531.54 Q1606.32 1531.54 1610.49 1536.18 Q1614.69 1540.8 1614.69 1548.76 M1608.84 1547.04 Q1608.77 1542.23 1606.13 1539.37 Q1603.52 1536.5 1599.19 1536.5 Q1594.29 1536.5 1591.33 1539.27 Q1588.4 1542.04 1587.96 1547.07 L1608.84 1547.04 Z" fill="#000000" fill-rule="nonzero" fill-opacity="1" /><path clip-path="url(#clip600)" d="M1653.94 1546.53 L1653.94 1568.04 L1648.08 1568.04 L1648.08 1546.72 Q1648.08 1541.66 1646.11 1539.14 Q1644.13 1536.63 1640.19 1536.63 Q1635.44 1536.63 1632.71 1539.65 Q1629.97 1542.68 1629.97 1547.9 L1629.97 1568.04 L1624.08 1568.04 L1624.08 1532.4 L1629.97 1532.4 L1629.97 1537.93 Q1632.07 1534.72 1634.9 1533.13 Q1637.77 1531.54 1641.49 1531.54 Q1647.63 1531.54 1650.79 1535.36 Q1653.94 1539.14 1653.94 1546.53 Z" fill="#000000" fill-rule="nonzero" fill-opacity="1" /><path clip-path="url(#clip600)" d="M1671.41 1522.27 L1671.41 1532.4 L1683.47 1532.4 L1683.47 1536.95 L1671.41 1536.95 L1671.41 1556.3 Q1671.41 1560.66 1672.59 1561.9 Q1673.8 1563.14 1677.46 1563.14 L1683.47 1563.14 L1683.47 1568.04 L1677.46 1568.04 Q1670.68 1568.04 1668.1 1565.53 Q1665.52 1562.98 1665.52 1556.3 L1665.52 1536.95 L1661.23 1536.95 L1661.23 1532.4 L1665.52 1532.4 L1665.52 1522.27 L1671.41 1522.27 Z" fill="#000000" fill-rule="nonzero" fill-opacity="1" /><polyline clip-path="url(#clip602)" style="stroke:#000000; stroke-linecap:round; stroke-linejoin:round; stroke-width:2; stroke-opacity:0.1; fill:none" points="249.542,1423.18 2352.76,1423.18 "/>
<polyline clip-path="url(#clip602)" style="stroke:#000000; stroke-linecap:round; stroke-linejoin:round; stroke-width:2; stroke-opacity:0.1; fill:none" points="249.542,1163.24 2352.76,1163.24 "/>
<polyline clip-path="url(#clip602)" style="stroke:#000000; stroke-linecap:round; stroke-linejoin:round; stroke-width:2; stroke-opacity:0.1; fill:none" points="249.542,903.297 2352.76,903.297 "/>
<polyline clip-path="url(#clip602)" style="stroke:#000000; stroke-linecap:round; stroke-linejoin:round; stroke-width:2; stroke-opacity:0.1; fill:none" points="249.542,643.355 2352.76,643.355 "/>
<polyline clip-path="url(#clip602)" style="stroke:#000000; stroke-linecap:round; stroke-linejoin:round; stroke-width:2; stroke-opacity:0.1; fill:none" points="249.542,383.414 2352.76,383.414 "/>
<polyline clip-path="url(#clip600)" style="stroke:#000000; stroke-linecap:round; stroke-linejoin:round; stroke-width:4; stroke-opacity:1; fill:none" points="249.542,1423.18 249.542,123.472 "/>
<polyline clip-path="url(#clip600)" style="stroke:#000000; stroke-linecap:round; stroke-linejoin:round; stroke-width:4; stroke-opacity:1; fill:none" points="249.542,1423.18 268.44,1423.18 "/>
<polyline clip-path="url(#clip600)" style="stroke:#000000; stroke-linecap:round; stroke-linejoin:round; stroke-width:4; stroke-opacity:1; fill:none" points="249.542,1163.24 268.44,1163.24 "/>
<polyline clip-path="url(#clip600)" style="stroke:#000000; stroke-linecap:round; stroke-linejoin:round; stroke-width:4; stroke-opacity:1; fill:none" points="249.542,903.297 268.44,903.297 "/>
<polyline clip-path="url(#clip600)" style="stroke:#000000; stroke-linecap:round; stroke-linejoin:round; stroke-width:4; stroke-opacity:1; fill:none" points="249.542,643.355 268.44,643.355 "/>
<polyline clip-path="url(#clip600)" style="stroke:#000000; stroke-linecap:round; stroke-linejoin:round; stroke-width:4; stroke-opacity:1; fill:none" points="249.542,383.414 268.44,383.414 "/>
<path clip-path="url(#clip600)" d="M126.205 1408.98 Q122.593 1408.98 120.765 1412.54 Q118.959 1416.08 118.959 1423.21 Q118.959 1430.32 120.765 1433.89 Q122.593 1437.43 126.205 1437.43 Q129.839 1437.43 131.644 1433.89 Q133.473 1430.32 133.473 1423.21 Q133.473 1416.08 131.644 1412.54 Q129.839 1408.98 126.205 1408.98 M126.205 1405.27 Q132.015 1405.27 135.07 1409.88 Q138.149 1414.46 138.149 1423.21 Q138.149 1431.94 135.07 1436.55 Q132.015 1441.13 126.205 1441.13 Q120.394 1441.13 117.316 1436.55 Q114.26 1431.94 114.26 1423.21 Q114.26 1414.46 117.316 1409.88 Q120.394 1405.27 126.205 1405.27 Z" fill="#000000" fill-rule="nonzero" fill-opacity="1" /><path clip-path="url(#clip600)" d="M146.366 1434.58 L151.251 1434.58 L151.251 1440.46 L146.366 1440.46 L146.366 1434.58 Z" fill="#000000" fill-rule="nonzero" fill-opacity="1" /><path clip-path="url(#clip600)" d="M171.436 1408.98 Q167.825 1408.98 165.996 1412.54 Q164.19 1416.08 164.19 1423.21 Q164.19 1430.32 165.996 1433.89 Q167.825 1437.43 171.436 1437.43 Q175.07 1437.43 176.876 1433.89 Q178.704 1430.32 178.704 1423.21 Q178.704 1416.08 176.876 1412.54 Q175.07 1408.98 171.436 1408.98 M171.436 1405.27 Q177.246 1405.27 180.301 1409.88 Q183.38 1414.46 183.38 1423.21 Q183.38 1431.94 180.301 1436.55 Q177.246 1441.13 171.436 1441.13 Q165.626 1441.13 162.547 1436.55 Q159.491 1431.94 159.491 1423.21 Q159.491 1414.46 162.547 1409.88 Q165.626 1405.27 171.436 1405.27 Z" fill="#000000" fill-rule="nonzero" fill-opacity="1" /><path clip-path="url(#clip600)" d="M201.598 1408.98 Q197.987 1408.98 196.158 1412.54 Q194.352 1416.08 194.352 1423.21 Q194.352 1430.32 196.158 1433.89 Q197.987 1437.43 201.598 1437.43 Q205.232 1437.43 207.037 1433.89 Q208.866 1430.32 208.866 1423.21 Q208.866 1416.08 207.037 1412.54 Q205.232 1408.98 201.598 1408.98 M201.598 1405.27 Q207.408 1405.27 210.463 1409.88 Q213.542 1414.46 213.542 1423.21 Q213.542 1431.94 210.463 1436.55 Q207.408 1441.13 201.598 1441.13 Q195.787 1441.13 192.709 1436.55 Q189.653 1431.94 189.653 1423.21 Q189.653 1414.46 192.709 1409.88 Q195.787 1405.27 201.598 1405.27 Z" fill="#000000" fill-rule="nonzero" fill-opacity="1" /><path clip-path="url(#clip600)" d="M127.2 1149.04 Q123.589 1149.04 121.76 1152.6 Q119.955 1156.14 119.955 1163.27 Q119.955 1170.38 121.76 1173.94 Q123.589 1177.49 127.2 1177.49 Q130.834 1177.49 132.64 1173.94 Q134.468 1170.38 134.468 1163.27 Q134.468 1156.14 132.64 1152.6 Q130.834 1149.04 127.2 1149.04 M127.2 1145.33 Q133.01 1145.33 136.066 1149.94 Q139.144 1154.52 139.144 1163.27 Q139.144 1172 136.066 1176.61 Q133.01 1181.19 127.2 1181.19 Q121.39 1181.19 118.311 1176.61 Q115.256 1172 115.256 1163.27 Q115.256 1154.52 118.311 1149.94 Q121.39 1145.33 127.2 1145.33 Z" fill="#000000" fill-rule="nonzero" fill-opacity="1" /><path clip-path="url(#clip600)" d="M147.362 1174.64 L152.246 1174.64 L152.246 1180.52 L147.362 1180.52 L147.362 1174.64 Z" fill="#000000" fill-rule="nonzero" fill-opacity="1" /><path clip-path="url(#clip600)" d="M172.431 1149.04 Q168.82 1149.04 166.991 1152.6 Q165.186 1156.14 165.186 1163.27 Q165.186 1170.38 166.991 1173.94 Q168.82 1177.49 172.431 1177.49 Q176.065 1177.49 177.871 1173.94 Q179.7 1170.38 179.7 1163.27 Q179.7 1156.14 177.871 1152.6 Q176.065 1149.04 172.431 1149.04 M172.431 1145.33 Q178.241 1145.33 181.297 1149.94 Q184.376 1154.52 184.376 1163.27 Q184.376 1172 181.297 1176.61 Q178.241 1181.19 172.431 1181.19 Q166.621 1181.19 163.542 1176.61 Q160.487 1172 160.487 1163.27 Q160.487 1154.52 163.542 1149.94 Q166.621 1145.33 172.431 1145.33 Z" fill="#000000" fill-rule="nonzero" fill-opacity="1" /><path clip-path="url(#clip600)" d="M192.639 1145.96 L210.996 1145.96 L210.996 1149.89 L196.922 1149.89 L196.922 1158.37 Q197.94 1158.02 198.959 1157.86 Q199.977 1157.67 200.996 1157.67 Q206.783 1157.67 210.162 1160.84 Q213.542 1164.01 213.542 1169.43 Q213.542 1175.01 210.07 1178.11 Q206.598 1181.19 200.278 1181.19 Q198.102 1181.19 195.834 1180.82 Q193.588 1180.45 191.181 1179.71 L191.181 1175.01 Q193.264 1176.14 195.487 1176.7 Q197.709 1177.25 200.186 1177.25 Q204.19 1177.25 206.528 1175.15 Q208.866 1173.04 208.866 1169.43 Q208.866 1165.82 206.528 1163.71 Q204.19 1161.61 200.186 1161.61 Q198.311 1161.61 196.436 1162.02 Q194.584 1162.44 192.639 1163.32 L192.639 1145.96 Z" fill="#000000" fill-rule="nonzero" fill-opacity="1" /><path clip-path="url(#clip600)" d="M126.205 889.095 Q122.593 889.095 120.765 892.66 Q118.959 896.202 118.959 903.331 Q118.959 910.438 120.765 914.003 Q122.593 917.544 126.205 917.544 Q129.839 917.544 131.644 914.003 Q133.473 910.438 133.473 903.331 Q133.473 896.202 131.644 892.66 Q129.839 889.095 126.205 889.095 M126.205 885.392 Q132.015 885.392 135.07 889.998 Q138.149 894.582 138.149 903.331 Q138.149 912.058 135.07 916.665 Q132.015 921.248 126.205 921.248 Q120.394 921.248 117.316 916.665 Q114.26 912.058 114.26 903.331 Q114.26 894.582 117.316 889.998 Q120.394 885.392 126.205 885.392 Z" fill="#000000" fill-rule="nonzero" fill-opacity="1" /><path clip-path="url(#clip600)" d="M146.366 914.697 L151.251 914.697 L151.251 920.577 L146.366 920.577 L146.366 914.697 Z" fill="#000000" fill-rule="nonzero" fill-opacity="1" /><path clip-path="url(#clip600)" d="M162.246 916.642 L169.885 916.642 L169.885 890.276 L161.575 891.943 L161.575 887.683 L169.839 886.017 L174.514 886.017 L174.514 916.642 L182.153 916.642 L182.153 920.577 L162.246 920.577 L162.246 916.642 Z" fill="#000000" fill-rule="nonzero" fill-opacity="1" /><path clip-path="url(#clip600)" d="M201.598 889.095 Q197.987 889.095 196.158 892.66 Q194.352 896.202 194.352 903.331 Q194.352 910.438 196.158 914.003 Q197.987 917.544 201.598 917.544 Q205.232 917.544 207.037 914.003 Q208.866 910.438 208.866 903.331 Q208.866 896.202 207.037 892.66 Q205.232 889.095 201.598 889.095 M201.598 885.392 Q207.408 885.392 210.463 889.998 Q213.542 894.582 213.542 903.331 Q213.542 912.058 210.463 916.665 Q207.408 921.248 201.598 921.248 Q195.787 921.248 192.709 916.665 Q189.653 912.058 189.653 903.331 Q189.653 894.582 192.709 889.998 Q195.787 885.392 201.598 885.392 Z" fill="#000000" fill-rule="nonzero" fill-opacity="1" /><path clip-path="url(#clip600)" d="M127.2 629.154 Q123.589 629.154 121.76 632.719 Q119.955 636.26 119.955 643.39 Q119.955 650.496 121.76 654.061 Q123.589 657.603 127.2 657.603 Q130.834 657.603 132.64 654.061 Q134.468 650.496 134.468 643.39 Q134.468 636.26 132.64 632.719 Q130.834 629.154 127.2 629.154 M127.2 625.45 Q133.01 625.45 136.066 630.057 Q139.144 634.64 139.144 643.39 Q139.144 652.117 136.066 656.723 Q133.01 661.307 127.2 661.307 Q121.39 661.307 118.311 656.723 Q115.256 652.117 115.256 643.39 Q115.256 634.64 118.311 630.057 Q121.39 625.45 127.2 625.45 Z" fill="#000000" fill-rule="nonzero" fill-opacity="1" /><path clip-path="url(#clip600)" d="M147.362 654.756 L152.246 654.756 L152.246 660.635 L147.362 660.635 L147.362 654.756 Z" fill="#000000" fill-rule="nonzero" fill-opacity="1" /><path clip-path="url(#clip600)" d="M163.241 656.7 L170.88 656.7 L170.88 630.334 L162.57 632.001 L162.57 627.742 L170.834 626.075 L175.51 626.075 L175.51 656.7 L183.149 656.7 L183.149 660.635 L163.241 660.635 L163.241 656.7 Z" fill="#000000" fill-rule="nonzero" fill-opacity="1" /><path clip-path="url(#clip600)" d="M192.639 626.075 L210.996 626.075 L210.996 630.01 L196.922 630.01 L196.922 638.483 Q197.94 638.135 198.959 637.973 Q199.977 637.788 200.996 637.788 Q206.783 637.788 210.162 640.959 Q213.542 644.131 213.542 649.547 Q213.542 655.126 210.07 658.228 Q206.598 661.307 200.278 661.307 Q198.102 661.307 195.834 660.936 Q193.588 660.566 191.181 659.825 L191.181 655.126 Q193.264 656.26 195.487 656.816 Q197.709 657.371 200.186 657.371 Q204.19 657.371 206.528 655.265 Q208.866 653.158 208.866 649.547 Q208.866 645.936 206.528 643.83 Q204.19 641.723 200.186 641.723 Q198.311 641.723 196.436 642.14 Q194.584 642.557 192.639 643.436 L192.639 626.075 Z" fill="#000000" fill-rule="nonzero" fill-opacity="1" /><path clip-path="url(#clip600)" d="M126.205 369.212 Q122.593 369.212 120.765 372.777 Q118.959 376.319 118.959 383.448 Q118.959 390.555 120.765 394.12 Q122.593 397.661 126.205 397.661 Q129.839 397.661 131.644 394.12 Q133.473 390.555 133.473 383.448 Q133.473 376.319 131.644 372.777 Q129.839 369.212 126.205 369.212 M126.205 365.509 Q132.015 365.509 135.07 370.115 Q138.149 374.698 138.149 383.448 Q138.149 392.175 135.07 396.782 Q132.015 401.365 126.205 401.365 Q120.394 401.365 117.316 396.782 Q114.26 392.175 114.26 383.448 Q114.26 374.698 117.316 370.115 Q120.394 365.509 126.205 365.509 Z" fill="#000000" fill-rule="nonzero" fill-opacity="1" /><path clip-path="url(#clip600)" d="M146.366 394.814 L151.251 394.814 L151.251 400.694 L146.366 400.694 L146.366 394.814 Z" fill="#000000" fill-rule="nonzero" fill-opacity="1" /><path clip-path="url(#clip600)" d="M165.464 396.759 L181.783 396.759 L181.783 400.694 L159.839 400.694 L159.839 396.759 Q162.501 394.004 167.084 389.374 Q171.69 384.722 172.871 383.379 Q175.116 380.856 175.996 379.12 Q176.899 377.36 176.899 375.671 Q176.899 372.916 174.954 371.18 Q173.033 369.444 169.931 369.444 Q167.732 369.444 165.278 370.208 Q162.848 370.972 160.07 372.523 L160.07 367.8 Q162.894 366.666 165.348 366.087 Q167.802 365.509 169.839 365.509 Q175.209 365.509 178.403 368.194 Q181.598 370.879 181.598 375.37 Q181.598 377.499 180.788 379.421 Q180.001 381.319 177.894 383.911 Q177.315 384.583 174.214 387.8 Q171.112 390.995 165.464 396.759 Z" fill="#000000" fill-rule="nonzero" fill-opacity="1" /><path clip-path="url(#clip600)" d="M201.598 369.212 Q197.987 369.212 196.158 372.777 Q194.352 376.319 194.352 383.448 Q194.352 390.555 196.158 394.12 Q197.987 397.661 201.598 397.661 Q205.232 397.661 207.037 394.12 Q208.866 390.555 208.866 383.448 Q208.866 376.319 207.037 372.777 Q205.232 369.212 201.598 369.212 M201.598 365.509 Q207.408 365.509 210.463 370.115 Q213.542 374.698 213.542 383.448 Q213.542 392.175 210.463 396.782 Q207.408 401.365 201.598 401.365 Q195.787 401.365 192.709 396.782 Q189.653 392.175 189.653 383.448 Q189.653 374.698 192.709 370.115 Q195.787 365.509 201.598 365.509 Z" fill="#000000" fill-rule="nonzero" fill-opacity="1" /><path clip-path="url(#clip600)" d="M21.7677 935.015 L39.6235 935.015 L39.6235 926.93 Q39.6235 922.443 37.3 919.992 Q34.9765 917.541 30.6797 917.541 Q26.4147 917.541 24.0912 919.992 Q21.7677 922.443 21.7677 926.93 L21.7677 935.015 M16.4842 941.444 L16.4842 926.93 Q16.4842 918.942 20.1126 914.867 Q23.7092 910.762 30.6797 910.762 Q37.7138 910.762 41.3104 914.867 Q44.907 918.942 44.907 926.93 L44.907 935.015 L64.0042 935.015 L64.0042 941.444 L16.4842 941.444 Z" fill="#000000" fill-rule="nonzero" fill-opacity="1" /><path clip-path="url(#clip600)" d="M33.8307 882.88 Q33.2578 883.866 33.0032 885.044 Q32.7167 886.19 32.7167 887.59 Q32.7167 892.556 35.9632 895.229 Q39.1779 897.871 45.2253 897.871 L64.0042 897.871 L64.0042 903.759 L28.3562 903.759 L28.3562 897.871 L33.8944 897.871 Q30.6479 896.025 29.0883 893.065 Q27.4968 890.105 27.4968 885.872 Q27.4968 885.267 27.5923 884.535 Q27.656 883.803 27.8151 882.912 L33.8307 882.88 Z" fill="#000000" fill-rule="nonzero" fill-opacity="1" /><path clip-path="url(#clip600)" d="M32.4621 864.356 Q32.4621 869.066 36.1542 871.803 Q39.8145 874.541 46.212 874.541 Q52.6095 874.541 56.3017 871.835 Q59.9619 869.098 59.9619 864.356 Q59.9619 859.677 56.2698 856.94 Q52.5777 854.202 46.212 854.202 Q39.8781 854.202 36.186 856.94 Q32.4621 859.677 32.4621 864.356 M27.4968 864.356 Q27.4968 856.717 32.4621 852.356 Q37.4273 847.996 46.212 847.996 Q54.9649 847.996 59.9619 852.356 Q64.9272 856.717 64.9272 864.356 Q64.9272 872.026 59.9619 876.387 Q54.9649 880.715 46.212 880.715 Q37.4273 880.715 32.4621 876.387 Q27.4968 872.026 27.4968 864.356 Z" fill="#000000" fill-rule="nonzero" fill-opacity="1" /><path clip-path="url(#clip600)" d="M46.212 812.698 Q39.7508 812.698 36.0905 815.371 Q32.3984 818.013 32.3984 822.66 Q32.3984 827.307 36.0905 829.981 Q39.7508 832.623 46.212 832.623 Q52.6732 832.623 56.3653 829.981 Q60.0256 827.307 60.0256 822.66 Q60.0256 818.013 56.3653 815.371 Q52.6732 812.698 46.212 812.698 M33.7671 832.623 Q30.5842 830.776 29.0564 827.976 Q27.4968 825.143 27.4968 821.228 Q27.4968 814.735 32.6531 810.693 Q37.8093 806.619 46.212 806.619 Q54.6147 806.619 59.771 810.693 Q64.9272 814.735 64.9272 821.228 Q64.9272 825.143 63.3994 827.976 Q61.8398 830.776 58.657 832.623 L64.0042 832.623 L64.0042 838.511 L14.479 838.511 L14.479 832.623 L33.7671 832.623 Z" fill="#000000" fill-rule="nonzero" fill-opacity="1" /><path clip-path="url(#clip600)" d="M46.0847 780.71 Q46.0847 787.808 47.7079 790.545 Q49.3312 793.282 53.2461 793.282 Q56.3653 793.282 58.2114 791.245 Q60.0256 789.177 60.0256 785.644 Q60.0256 780.774 56.5881 777.846 Q53.1188 774.886 47.3897 774.886 L46.0847 774.886 L46.0847 780.71 M43.6657 769.029 L64.0042 769.029 L64.0042 774.886 L58.5933 774.886 Q61.8398 776.891 63.3994 779.883 Q64.9272 782.875 64.9272 787.203 Q64.9272 792.678 61.8716 795.924 Q58.7843 799.139 53.6281 799.139 Q47.6125 799.139 44.5569 795.129 Q41.5014 791.086 41.5014 783.097 L41.5014 774.886 L40.9285 774.886 Q36.8862 774.886 34.6901 777.559 Q32.4621 780.201 32.4621 785.007 Q32.4621 788.063 33.1941 790.959 Q33.9262 793.855 35.3903 796.529 L29.9795 796.529 Q28.7381 793.314 28.1334 790.291 Q27.4968 787.267 27.4968 784.402 Q27.4968 776.668 31.5072 772.849 Q35.5176 769.029 43.6657 769.029 Z" fill="#000000" fill-rule="nonzero" fill-opacity="1" /><path clip-path="url(#clip600)" d="M46.212 731.376 Q39.7508 731.376 36.0905 734.05 Q32.3984 736.691 32.3984 741.338 Q32.3984 745.985 36.0905 748.659 Q39.7508 751.301 46.212 751.301 Q52.6732 751.301 56.3653 748.659 Q60.0256 745.985 60.0256 741.338 Q60.0256 736.691 56.3653 734.05 Q52.6732 731.376 46.212 731.376 M33.7671 751.301 Q30.5842 749.455 29.0564 746.654 Q27.4968 743.821 27.4968 739.906 Q27.4968 733.413 32.6531 729.371 Q37.8093 725.297 46.212 725.297 Q54.6147 725.297 59.771 729.371 Q64.9272 733.413 64.9272 739.906 Q64.9272 743.821 63.3994 746.654 Q61.8398 749.455 58.657 751.301 L64.0042 751.301 L64.0042 757.189 L14.479 757.189 L14.479 751.301 L33.7671 751.301 Z" fill="#000000" fill-rule="nonzero" fill-opacity="1" /><path clip-path="url(#clip600)" d="M28.3562 715.589 L28.3562 709.733 L64.0042 709.733 L64.0042 715.589 L28.3562 715.589 M14.479 715.589 L14.479 709.733 L21.895 709.733 L21.895 715.589 L14.479 715.589 Z" fill="#000000" fill-rule="nonzero" fill-opacity="1" /><path clip-path="url(#clip600)" d="M14.479 697.479 L14.479 691.622 L64.0042 691.622 L64.0042 697.479 L14.479 697.479 Z" fill="#000000" fill-rule="nonzero" fill-opacity="1" /><path clip-path="url(#clip600)" d="M28.3562 679.368 L28.3562 673.512 L64.0042 673.512 L64.0042 679.368 L28.3562 679.368 M14.479 679.368 L14.479 673.512 L21.895 673.512 L21.895 679.368 L14.479 679.368 Z" fill="#000000" fill-rule="nonzero" fill-opacity="1" /><path clip-path="url(#clip600)" d="M18.2347 655.465 L28.3562 655.465 L28.3562 643.402 L32.9077 643.402 L32.9077 655.465 L52.2594 655.465 Q56.6199 655.465 57.8613 654.287 Q59.1026 653.078 59.1026 649.418 L59.1026 643.402 L64.0042 643.402 L64.0042 649.418 Q64.0042 656.197 61.4897 658.775 Q58.9434 661.353 52.2594 661.353 L32.9077 661.353 L32.9077 665.65 L28.3562 665.65 L28.3562 661.353 L18.2347 661.353 L18.2347 655.465 Z" fill="#000000" fill-rule="nonzero" fill-opacity="1" /><path clip-path="url(#clip600)" d="M67.3143 620.867 Q73.68 623.35 75.6216 625.705 Q77.5631 628.061 77.5631 632.007 L77.5631 636.686 L72.6615 636.686 L72.6615 633.249 Q72.6615 630.83 71.5157 629.493 Q70.3699 628.156 66.1048 626.533 L63.4312 625.482 L28.3562 639.901 L28.3562 633.694 L56.238 622.554 L28.3562 611.414 L28.3562 605.208 L67.3143 620.867 Z" fill="#000000" fill-rule="nonzero" fill-opacity="1" /><path clip-path="url(#clip600)" d="M870.477 9.62495 Q865.049 18.942 862.416 28.0566 Q859.783 37.1711 859.783 46.5287 Q859.783 55.8863 862.416 65.0818 Q865.089 74.2369 870.477 83.5134 L863.996 83.5134 Q857.919 73.9938 854.881 64.7983 Q851.883 55.6027 851.883 46.5287 Q851.883 37.4952 854.881 28.3401 Q857.879 19.1851 863.996 9.62495 L870.477 9.62495 Z" fill="#000000" fill-rule="nonzero" fill-opacity="1" /><path clip-path="url(#clip600)" d="M884.939 27.2059 L892.392 27.2059 L892.392 72.576 L884.939 72.576 L884.939 27.2059 M884.939 9.54393 L892.392 9.54393 L892.392 18.9825 L884.939 18.9825 L884.939 9.54393 Z" fill="#000000" fill-rule="nonzero" fill-opacity="1" /><path clip-path="url(#clip600)" d="M902.641 27.2059 L910.541 27.2059 L924.719 65.2844 L938.897 27.2059 L946.796 27.2059 L929.782 72.576 L919.655 72.576 L902.641 27.2059 Z" fill="#000000" fill-rule="nonzero" fill-opacity="1" /><path clip-path="url(#clip600)" d="M955.911 9.62495 L962.392 9.62495 Q968.468 19.1851 971.466 28.3401 Q974.504 37.4952 974.504 46.5287 Q974.504 55.6027 971.466 64.7983 Q968.468 73.9938 962.392 83.5134 L955.911 83.5134 Q961.298 74.2369 963.931 65.0818 Q966.605 55.8863 966.605 46.5287 Q966.605 37.1711 963.931 28.0566 Q961.298 18.942 955.911 9.62495 Z" fill="#000000" fill-rule="nonzero" fill-opacity="1" /><path clip-path="url(#clip600)" d="M1016.15 12.096 L1024.33 12.096 L1024.33 36.8875 L1054.06 36.8875 L1054.06 12.096 L1062.25 12.096 L1062.25 72.576 L1054.06 72.576 L1054.06 43.7741 L1024.33 43.7741 L1024.33 72.576 L1016.15 72.576 L1016.15 12.096 Z" fill="#000000" fill-rule="nonzero" fill-opacity="1" /><path clip-path="url(#clip600)" d="M1078.21 27.2059 L1085.66 27.2059 L1085.66 72.576 L1078.21 72.576 L1078.21 27.2059 M1078.21 9.54393 L1085.66 9.54393 L1085.66 18.9825 L1078.21 18.9825 L1078.21 9.54393 Z" fill="#000000" fill-rule="nonzero" fill-opacity="1" /><path clip-path="url(#clip600)" d="M1130.18 28.5427 L1130.18 35.5912 Q1127.02 33.9709 1123.62 33.1607 Q1120.22 32.3505 1116.57 32.3505 Q1111.02 32.3505 1108.22 34.0519 Q1105.47 35.7533 1105.47 39.156 Q1105.47 41.7486 1107.45 43.2475 Q1109.44 44.7058 1115.44 46.0426 L1117.99 46.6097 Q1125.93 48.3111 1129.25 51.4303 Q1132.61 54.509 1132.61 60.0587 Q1132.61 66.3781 1127.59 70.0644 Q1122.61 73.7508 1113.86 73.7508 Q1110.21 73.7508 1106.24 73.0216 Q1102.31 72.3329 1097.94 70.9151 L1097.94 63.2184 Q1102.07 65.3654 1106.08 66.4591 Q1110.09 67.5124 1114.02 67.5124 Q1119.28 67.5124 1122.12 65.73 Q1124.95 63.9071 1124.95 60.6258 Q1124.95 57.5877 1122.89 55.9673 Q1120.86 54.3469 1113.94 52.8481 L1111.34 52.2405 Q1104.42 50.7821 1101.34 47.7845 Q1098.26 44.7463 1098.26 39.4801 Q1098.26 33.0797 1102.8 29.5959 Q1107.33 26.1121 1115.68 26.1121 Q1119.81 26.1121 1123.46 26.7198 Q1127.1 27.3274 1130.18 28.5427 Z" fill="#000000" fill-rule="nonzero" fill-opacity="1" /><path clip-path="url(#clip600)" d="M1151.85 14.324 L1151.85 27.2059 L1167.21 27.2059 L1167.21 32.9987 L1151.85 32.9987 L1151.85 57.6282 Q1151.85 63.1779 1153.35 64.7578 Q1154.89 66.3376 1159.55 66.3376 L1167.21 66.3376 L1167.21 72.576 L1159.55 72.576 Q1150.92 72.576 1147.64 69.3758 Q1144.36 66.1351 1144.36 57.6282 L1144.36 32.9987 L1138.89 32.9987 L1138.89 27.2059 L1144.36 27.2059 L1144.36 14.324 L1151.85 14.324 Z" fill="#000000" fill-rule="nonzero" fill-opacity="1" /><path clip-path="url(#clip600)" d="M1194.59 32.4315 Q1188.59 32.4315 1185.11 37.1306 Q1181.63 41.7891 1181.63 49.9314 Q1181.63 58.0738 1185.07 62.7728 Q1188.55 67.4314 1194.59 67.4314 Q1200.54 67.4314 1204.03 62.7323 Q1207.51 58.0333 1207.51 49.9314 Q1207.51 41.8701 1204.03 37.1711 Q1200.54 32.4315 1194.59 32.4315 M1194.59 26.1121 Q1204.31 26.1121 1209.86 32.4315 Q1215.41 38.7509 1215.41 49.9314 Q1215.41 61.0714 1209.86 67.4314 Q1204.31 73.7508 1194.59 73.7508 Q1184.83 73.7508 1179.28 67.4314 Q1173.77 61.0714 1173.77 49.9314 Q1173.77 38.7509 1179.28 32.4315 Q1184.83 26.1121 1194.59 26.1121 Z" fill="#000000" fill-rule="nonzero" fill-opacity="1" /><path clip-path="url(#clip600)" d="M1257.62 49.3643 Q1257.62 41.2625 1254.26 36.8065 Q1250.94 32.3505 1244.9 32.3505 Q1238.91 32.3505 1235.54 36.8065 Q1232.22 41.2625 1232.22 49.3643 Q1232.22 57.4256 1235.54 61.8816 Q1238.91 66.3376 1244.9 66.3376 Q1250.94 66.3376 1254.26 61.8816 Q1257.62 57.4256 1257.62 49.3643 M1265.08 66.9452 Q1265.08 78.5308 1259.93 84.1616 Q1254.79 89.8329 1244.17 89.8329 Q1240.24 89.8329 1236.76 89.2252 Q1233.28 88.6581 1229.99 87.4428 L1229.99 80.1917 Q1233.28 81.9741 1236.48 82.8248 Q1239.68 83.6755 1243 83.6755 Q1250.33 83.6755 1253.98 79.8271 Q1257.62 76.0193 1257.62 68.282 L1257.62 64.5957 Q1255.31 68.6061 1251.71 70.5911 Q1248.1 72.576 1243.08 72.576 Q1234.73 72.576 1229.63 66.2161 Q1224.53 59.8562 1224.53 49.3643 Q1224.53 38.832 1229.63 32.472 Q1234.73 26.1121 1243.08 26.1121 Q1248.1 26.1121 1251.71 28.0971 Q1255.31 30.082 1257.62 34.0924 L1257.62 27.2059 L1265.08 27.2059 L1265.08 66.9452 Z" fill="#000000" fill-rule="nonzero" fill-opacity="1" /><path clip-path="url(#clip600)" d="M1306.72 34.1734 Q1305.46 33.4443 1303.96 33.1202 Q1302.51 32.7556 1300.72 32.7556 Q1294.4 32.7556 1291 36.8875 Q1287.64 40.9789 1287.64 48.6757 L1287.64 72.576 L1280.15 72.576 L1280.15 27.2059 L1287.64 27.2059 L1287.64 34.2544 Q1289.99 30.1225 1293.76 28.1376 Q1297.52 26.1121 1302.91 26.1121 Q1303.68 26.1121 1304.61 26.2337 Q1305.54 26.3147 1306.68 26.5172 L1306.72 34.1734 Z" fill="#000000" fill-rule="nonzero" fill-opacity="1" /><path clip-path="url(#clip600)" d="M1335.16 49.7694 Q1326.12 49.7694 1322.64 51.8354 Q1319.16 53.9013 1319.16 58.8839 Q1319.16 62.8538 1321.75 65.2034 Q1324.38 67.5124 1328.88 67.5124 Q1335.08 67.5124 1338.8 63.1374 Q1342.57 58.7219 1342.57 51.4303 L1342.57 49.7694 L1335.16 49.7694 M1350.02 46.6907 L1350.02 72.576 L1342.57 72.576 L1342.57 65.6895 Q1340.02 69.8214 1336.21 71.8063 Q1332.4 73.7508 1326.89 73.7508 Q1319.92 73.7508 1315.79 69.8619 Q1311.7 65.9325 1311.7 59.3701 Q1311.7 51.7138 1316.81 47.825 Q1321.95 43.9361 1332.12 43.9361 L1342.57 43.9361 L1342.57 43.2069 Q1342.57 38.0623 1339.17 35.2672 Q1335.8 32.4315 1329.69 32.4315 Q1325.8 32.4315 1322.11 33.3632 Q1318.43 34.295 1315.02 36.1584 L1315.02 29.2718 Q1319.11 27.692 1322.96 26.9223 Q1326.81 26.1121 1330.46 26.1121 Q1340.3 26.1121 1345.16 31.2163 Q1350.02 36.3204 1350.02 46.6907 Z" fill="#000000" fill-rule="nonzero" fill-opacity="1" /><path clip-path="url(#clip600)" d="M1400.7 35.9153 Q1403.5 30.8922 1407.38 28.5022 Q1411.27 26.1121 1416.54 26.1121 Q1423.63 26.1121 1427.48 31.0947 Q1431.32 36.0368 1431.32 45.1919 L1431.32 72.576 L1423.83 72.576 L1423.83 45.4349 Q1423.83 38.913 1421.52 35.7533 Q1419.21 32.5936 1414.47 32.5936 Q1408.68 32.5936 1405.32 36.4419 Q1401.96 40.2903 1401.96 46.9338 L1401.96 72.576 L1394.46 72.576 L1394.46 45.4349 Q1394.46 38.8725 1392.15 35.7533 Q1389.84 32.5936 1385.02 32.5936 Q1379.31 32.5936 1375.95 36.4824 Q1372.59 40.3308 1372.59 46.9338 L1372.59 72.576 L1365.09 72.576 L1365.09 27.2059 L1372.59 27.2059 L1372.59 34.2544 Q1375.14 30.082 1378.7 28.0971 Q1382.27 26.1121 1387.17 26.1121 Q1392.11 26.1121 1395.56 28.6237 Q1399.04 31.1352 1400.7 35.9153 Z" fill="#000000" fill-rule="nonzero" fill-opacity="1" /><path clip-path="url(#clip600)" d="M1490.14 32.4315 Q1484.15 32.4315 1480.66 37.1306 Q1477.18 41.7891 1477.18 49.9314 Q1477.18 58.0738 1480.62 62.7728 Q1484.11 67.4314 1490.14 67.4314 Q1496.1 67.4314 1499.58 62.7323 Q1503.07 58.0333 1503.07 49.9314 Q1503.07 41.8701 1499.58 37.1711 Q1496.1 32.4315 1490.14 32.4315 M1490.14 26.1121 Q1499.87 26.1121 1505.42 32.4315 Q1510.97 38.7509 1510.97 49.9314 Q1510.97 61.0714 1505.42 67.4314 Q1499.87 73.7508 1490.14 73.7508 Q1480.38 73.7508 1474.83 67.4314 Q1469.32 61.0714 1469.32 49.9314 Q1469.32 38.7509 1474.83 32.4315 Q1480.38 26.1121 1490.14 26.1121 Z" fill="#000000" fill-rule="nonzero" fill-opacity="1" /><path clip-path="url(#clip600)" d="M1546.29 9.54393 L1546.29 15.7418 L1539.16 15.7418 Q1535.15 15.7418 1533.57 17.3622 Q1532.03 18.9825 1532.03 23.1955 L1532.03 27.2059 L1544.3 27.2059 L1544.3 32.9987 L1532.03 32.9987 L1532.03 72.576 L1524.54 72.576 L1524.54 32.9987 L1517.41 32.9987 L1517.41 27.2059 L1524.54 27.2059 L1524.54 24.0462 Q1524.54 16.471 1528.06 13.0277 Q1531.58 9.54393 1539.24 9.54393 L1546.29 9.54393 Z" fill="#000000" fill-rule="nonzero" fill-opacity="1" /><path clip-path="url(#clip600)" d="M1608.75 34.0924 L1608.75 9.54393 L1616.21 9.54393 L1616.21 72.576 L1608.75 72.576 L1608.75 65.7705 Q1606.4 69.8214 1602.8 71.8063 Q1599.23 73.7508 1594.21 73.7508 Q1585.99 73.7508 1580.8 67.1883 Q1575.66 60.6258 1575.66 49.9314 Q1575.66 39.2371 1580.8 32.6746 Q1585.99 26.1121 1594.21 26.1121 Q1599.23 26.1121 1602.8 28.0971 Q1606.4 30.0415 1608.75 34.0924 M1583.36 49.9314 Q1583.36 58.1548 1586.72 62.8538 Q1590.12 67.5124 1596.03 67.5124 Q1601.95 67.5124 1605.35 62.8538 Q1608.75 58.1548 1608.75 49.9314 Q1608.75 41.7081 1605.35 37.0496 Q1601.95 32.3505 1596.03 32.3505 Q1590.12 32.3505 1586.72 37.0496 Q1583.36 41.7081 1583.36 49.9314 Z" fill="#000000" fill-rule="nonzero" fill-opacity="1" /><path clip-path="url(#clip600)" d="M1652.18 49.7694 Q1643.15 49.7694 1639.66 51.8354 Q1636.18 53.9013 1636.18 58.8839 Q1636.18 62.8538 1638.77 65.2034 Q1641.4 67.5124 1645.9 67.5124 Q1652.1 67.5124 1655.83 63.1374 Q1659.59 58.7219 1659.59 51.4303 L1659.59 49.7694 L1652.18 49.7694 M1667.05 46.6907 L1667.05 72.576 L1659.59 72.576 L1659.59 65.6895 Q1657.04 69.8214 1653.23 71.8063 Q1649.43 73.7508 1643.92 73.7508 Q1636.95 73.7508 1632.82 69.8619 Q1628.73 65.9325 1628.73 59.3701 Q1628.73 51.7138 1633.83 47.825 Q1638.97 43.9361 1649.14 43.9361 L1659.59 43.9361 L1659.59 43.2069 Q1659.59 38.0623 1656.19 35.2672 Q1652.83 32.4315 1646.71 32.4315 Q1642.82 32.4315 1639.14 33.3632 Q1635.45 34.295 1632.05 36.1584 L1632.05 29.2718 Q1636.14 27.692 1639.99 26.9223 Q1643.84 26.1121 1647.48 26.1121 Q1657.32 26.1121 1662.19 31.2163 Q1667.05 36.3204 1667.05 46.6907 Z" fill="#000000" fill-rule="nonzero" fill-opacity="1" /><path clip-path="url(#clip600)" d="M1689.77 14.324 L1689.77 27.2059 L1705.13 27.2059 L1705.13 32.9987 L1689.77 32.9987 L1689.77 57.6282 Q1689.77 63.1779 1691.27 64.7578 Q1692.81 66.3376 1697.47 66.3376 L1705.13 66.3376 L1705.13 72.576 L1697.47 72.576 Q1688.84 72.576 1685.56 69.3758 Q1682.28 66.1351 1682.28 57.6282 L1682.28 32.9987 L1676.81 32.9987 L1676.81 27.2059 L1682.28 27.2059 L1682.28 14.324 L1689.77 14.324 Z" fill="#000000" fill-rule="nonzero" fill-opacity="1" /><path clip-path="url(#clip600)" d="M1735.55 49.7694 Q1726.51 49.7694 1723.03 51.8354 Q1719.55 53.9013 1719.55 58.8839 Q1719.55 62.8538 1722.14 65.2034 Q1724.77 67.5124 1729.27 67.5124 Q1735.47 67.5124 1739.19 63.1374 Q1742.96 58.7219 1742.96 51.4303 L1742.96 49.7694 L1735.55 49.7694 M1750.41 46.6907 L1750.41 72.576 L1742.96 72.576 L1742.96 65.6895 Q1740.41 69.8214 1736.6 71.8063 Q1732.79 73.7508 1727.28 73.7508 Q1720.32 73.7508 1716.18 69.8619 Q1712.09 65.9325 1712.09 59.3701 Q1712.09 51.7138 1717.2 47.825 Q1722.34 43.9361 1732.51 43.9361 L1742.96 43.9361 L1742.96 43.2069 Q1742.96 38.0623 1739.56 35.2672 Q1736.2 32.4315 1730.08 32.4315 Q1726.19 32.4315 1722.5 33.3632 Q1718.82 34.295 1715.41 36.1584 L1715.41 29.2718 Q1719.51 27.692 1723.35 26.9223 Q1727.2 26.1121 1730.85 26.1121 Q1740.69 26.1121 1745.55 31.2163 Q1750.41 36.3204 1750.41 46.6907 Z" fill="#000000" fill-rule="nonzero" fill-opacity="1" /><path clip-path="url(#clip602)" d="M1702.26 1163.24 L1702.26 1423.18 L1855.06 1423.18 L1855.06 1163.24 L1702.26 1163.24 L1702.26 1163.24  Z" fill="#009af9" fill-rule="evenodd" fill-opacity="1"/>
<polyline clip-path="url(#clip602)" style="stroke:#000000; stroke-linecap:round; stroke-linejoin:round; stroke-width:4; stroke-opacity:1; fill:none" points="1702.26,1163.24 1702.26,1423.18 1855.06,1423.18 1855.06,1163.24 1702.26,1163.24 "/>
<path clip-path="url(#clip602)" d="M1129.24 643.355 L1129.24 1423.18 L1282.05 1423.18 L1282.05 643.355 L1129.24 643.355 L1129.24 643.355  Z" fill="#009af9" fill-rule="evenodd" fill-opacity="1"/>
<polyline clip-path="url(#clip602)" style="stroke:#000000; stroke-linecap:round; stroke-linejoin:round; stroke-width:4; stroke-opacity:1; fill:none" points="1129.24,643.355 1129.24,1423.18 1282.05,1423.18 1282.05,643.355 1129.24,643.355 "/>
<path clip-path="url(#clip602)" d="M1511.25 1163.24 L1511.25 1423.18 L1664.06 1423.18 L1664.06 1163.24 L1511.25 1163.24 L1511.25 1163.24  Z" fill="#009af9" fill-rule="evenodd" fill-opacity="1"/>
<polyline clip-path="url(#clip602)" style="stroke:#000000; stroke-linecap:round; stroke-linejoin:round; stroke-width:4; stroke-opacity:1; fill:none" points="1511.25,1163.24 1511.25,1423.18 1664.06,1423.18 1664.06,1163.24 1511.25,1163.24 "/>
<path clip-path="url(#clip602)" d="M365.223 1163.24 L365.223 1423.18 L518.027 1423.18 L518.027 1163.24 L365.223 1163.24 L365.223 1163.24  Z" fill="#009af9" fill-rule="evenodd" fill-opacity="1"/>
<polyline clip-path="url(#clip602)" style="stroke:#000000; stroke-linecap:round; stroke-linejoin:round; stroke-width:4; stroke-opacity:1; fill:none" points="365.223,1163.24 365.223,1423.18 518.027,1423.18 518.027,1163.24 365.223,1163.24 "/>
<path clip-path="url(#clip602)" d="M747.233 643.355 L747.233 1423.18 L900.038 1423.18 L900.038 643.355 L747.233 643.355 L747.233 643.355  Z" fill="#009af9" fill-rule="evenodd" fill-opacity="1"/>
<polyline clip-path="url(#clip602)" style="stroke:#000000; stroke-linecap:round; stroke-linejoin:round; stroke-width:4; stroke-opacity:1; fill:none" points="747.233,643.355 747.233,1423.18 900.038,1423.18 900.038,643.355 747.233,643.355 "/>
<path clip-path="url(#clip602)" d="M938.239 903.297 L938.239 1423.18 L1091.04 1423.18 L1091.04 903.297 L938.239 903.297 L938.239 903.297  Z" fill="#009af9" fill-rule="evenodd" fill-opacity="1"/>
<polyline clip-path="url(#clip602)" style="stroke:#000000; stroke-linecap:round; stroke-linejoin:round; stroke-width:4; stroke-opacity:1; fill:none" points="938.239,903.297 938.239,1423.18 1091.04,1423.18 1091.04,903.297 938.239,903.297 "/>
<path clip-path="url(#clip602)" d="M2084.27 1163.24 L2084.27 1423.18 L2237.08 1423.18 L2237.08 1163.24 L2084.27 1163.24 L2084.27 1163.24  Z" fill="#009af9" fill-rule="evenodd" fill-opacity="1"/>
<polyline clip-path="url(#clip602)" style="stroke:#000000; stroke-linecap:round; stroke-linejoin:round; stroke-width:4; stroke-opacity:1; fill:none" points="2084.27,1163.24 2084.27,1423.18 2237.08,1423.18 2237.08,1163.24 2084.27,1163.24 "/>
<path clip-path="url(#clip602)" d="M1320.25 123.472 L1320.25 1423.18 L1473.05 1423.18 L1473.05 123.472 L1320.25 123.472 L1320.25 123.472  Z" fill="#009af9" fill-rule="evenodd" fill-opacity="1"/>
<polyline clip-path="url(#clip602)" style="stroke:#000000; stroke-linecap:round; stroke-linejoin:round; stroke-width:4; stroke-opacity:1; fill:none" points="1320.25,123.472 1320.25,1423.18 1473.05,1423.18 1473.05,123.472 1320.25,123.472 "/>
<path clip-path="url(#clip602)" d="M1893.27 643.355 L1893.27 1423.18 L2046.07 1423.18 L2046.07 643.355 L1893.27 643.355 L1893.27 643.355  Z" fill="#009af9" fill-rule="evenodd" fill-opacity="1"/>
<polyline clip-path="url(#clip602)" style="stroke:#000000; stroke-linecap:round; stroke-linejoin:round; stroke-width:4; stroke-opacity:1; fill:none" points="1893.27,643.355 1893.27,1423.18 2046.07,1423.18 2046.07,643.355 1893.27,643.355 "/>
<circle clip-path="url(#clip602)" style="fill:#009af9; stroke:none; fill-opacity:0" cx="1778.66" cy="1163.24" r="2"/>
<circle clip-path="url(#clip602)" style="fill:#009af9; stroke:none; fill-opacity:0" cx="1205.65" cy="643.355" r="2"/>
<circle clip-path="url(#clip602)" style="fill:#009af9; stroke:none; fill-opacity:0" cx="1587.66" cy="1163.24" r="2"/>
<circle clip-path="url(#clip602)" style="fill:#009af9; stroke:none; fill-opacity:0" cx="441.625" cy="1163.24" r="2"/>
<circle clip-path="url(#clip602)" style="fill:#009af9; stroke:none; fill-opacity:0" cx="823.635" cy="643.355" r="2"/>
<circle clip-path="url(#clip602)" style="fill:#009af9; stroke:none; fill-opacity:0" cx="1014.64" cy="903.297" r="2"/>
<circle clip-path="url(#clip602)" style="fill:#009af9; stroke:none; fill-opacity:0" cx="2160.67" cy="1163.24" r="2"/>
<circle clip-path="url(#clip602)" style="fill:#009af9; stroke:none; fill-opacity:0" cx="1396.65" cy="123.472" r="2"/>
<circle clip-path="url(#clip602)" style="fill:#009af9; stroke:none; fill-opacity:0" cx="1969.67" cy="643.355" r="2"/>
<polyline clip-path="url(#clip602)" style="stroke:#e26f46; stroke-linecap:round; stroke-linejoin:round; stroke-width:8; stroke-opacity:1; fill:none" points="1348.9,2722.89 1348.9,-1176.24 "/>
<path clip-path="url(#clip600)" d="M1402.75 322.316 L2282.65 322.316 L2282.65 166.796 L1402.75 166.796  Z" fill="#ffffff" fill-rule="evenodd" fill-opacity="1"/>
<polyline clip-path="url(#clip600)" style="stroke:#000000; stroke-linecap:round; stroke-linejoin:round; stroke-width:4; stroke-opacity:1; fill:none" points="1402.75,322.316 2282.65,322.316 2282.65,166.796 1402.75,166.796 1402.75,322.316 "/>
<path clip-path="url(#clip600)" d="M1426.12 239.372 L1566.33 239.372 L1566.33 197.9 L1426.12 197.9 L1426.12 239.372  Z" fill="#009af9" fill-rule="evenodd" fill-opacity="1"/>
<polyline clip-path="url(#clip600)" style="stroke:#000000; stroke-linecap:round; stroke-linejoin:round; stroke-width:4; stroke-opacity:1; fill:none" points="1426.12,239.372 1566.33,239.372 1566.33,197.9 1426.12,197.9 1426.12,239.372 "/>
<path clip-path="url(#clip600)" d="M1594.38 205.198 L1594.38 232.073 L1600.02 232.073 Q1607.18 232.073 1610.49 228.832 Q1613.82 225.592 1613.82 218.601 Q1613.82 211.657 1610.49 208.439 Q1607.18 205.198 1600.02 205.198 L1594.38 205.198 M1589.7 201.356 L1599.31 201.356 Q1609.35 201.356 1614.05 205.546 Q1618.75 209.712 1618.75 218.601 Q1618.75 227.536 1614.03 231.726 Q1609.31 235.916 1599.31 235.916 L1589.7 235.916 L1589.7 201.356 Z" fill="#000000" fill-rule="nonzero" fill-opacity="1" /><path clip-path="url(#clip600)" d="M1637.8 222.883 Q1632.64 222.883 1630.65 224.064 Q1628.66 225.244 1628.66 228.092 Q1628.66 230.36 1630.14 231.703 Q1631.64 233.022 1634.21 233.022 Q1637.76 233.022 1639.88 230.522 Q1642.04 227.999 1642.04 223.832 L1642.04 222.883 L1637.8 222.883 M1646.3 221.124 L1646.3 235.916 L1642.04 235.916 L1642.04 231.981 Q1640.58 234.342 1638.4 235.476 Q1636.23 236.587 1633.08 236.587 Q1629.1 236.587 1626.74 234.365 Q1624.4 232.119 1624.4 228.369 Q1624.4 223.994 1627.32 221.772 Q1630.26 219.55 1636.07 219.55 L1642.04 219.55 L1642.04 219.133 Q1642.04 216.194 1640.09 214.596 Q1638.17 212.976 1634.68 212.976 Q1632.45 212.976 1630.35 213.508 Q1628.24 214.041 1626.3 215.106 L1626.3 211.17 Q1628.63 210.268 1630.83 209.828 Q1633.03 209.365 1635.12 209.365 Q1640.74 209.365 1643.52 212.282 Q1646.3 215.198 1646.3 221.124 Z" fill="#000000" fill-rule="nonzero" fill-opacity="1" /><path clip-path="url(#clip600)" d="M1659.28 202.629 L1659.28 209.99 L1668.06 209.99 L1668.06 213.3 L1659.28 213.3 L1659.28 227.374 Q1659.28 230.545 1660.14 231.448 Q1661.02 232.351 1663.68 232.351 L1668.06 232.351 L1668.06 235.916 L1663.68 235.916 Q1658.75 235.916 1656.88 234.087 Q1655 232.235 1655 227.374 L1655 213.3 L1651.88 213.3 L1651.88 209.99 L1655 209.99 L1655 202.629 L1659.28 202.629 Z" fill="#000000" fill-rule="nonzero" fill-opacity="1" /><path clip-path="url(#clip600)" d="M1685.44 222.883 Q1680.28 222.883 1678.29 224.064 Q1676.3 225.244 1676.3 228.092 Q1676.3 230.36 1677.78 231.703 Q1679.28 233.022 1681.85 233.022 Q1685.39 233.022 1687.52 230.522 Q1689.68 227.999 1689.68 223.832 L1689.68 222.883 L1685.44 222.883 M1693.94 221.124 L1693.94 235.916 L1689.68 235.916 L1689.68 231.981 Q1688.22 234.342 1686.04 235.476 Q1683.87 236.587 1680.72 236.587 Q1676.74 236.587 1674.38 234.365 Q1672.04 232.119 1672.04 228.369 Q1672.04 223.994 1674.95 221.772 Q1677.89 219.55 1683.7 219.55 L1689.68 219.55 L1689.68 219.133 Q1689.68 216.194 1687.73 214.596 Q1685.81 212.976 1682.32 212.976 Q1680.09 212.976 1677.99 213.508 Q1675.88 214.041 1673.94 215.106 L1673.94 211.17 Q1676.27 210.268 1678.47 209.828 Q1680.67 209.365 1682.76 209.365 Q1688.38 209.365 1691.16 212.282 Q1693.94 215.198 1693.94 221.124 Z" fill="#000000" fill-rule="nonzero" fill-opacity="1" /><polyline clip-path="url(#clip600)" style="stroke:#e26f46; stroke-linecap:round; stroke-linejoin:round; stroke-width:8; stroke-opacity:1; fill:none" points="1426.12,270.476 1566.33,270.476 "/>
<path clip-path="url(#clip600)" d="M1589.7 253.196 L1611.55 253.196 L1611.55 257.131 L1594.38 257.131 L1594.38 267.362 L1610.83 267.362 L1610.83 271.297 L1594.38 271.297 L1594.38 283.821 L1611.97 283.821 L1611.97 287.756 L1589.7 287.756 L1589.7 253.196 Z" fill="#000000" fill-rule="nonzero" fill-opacity="1" /><path clip-path="url(#clip600)" d="M1641.02 261.83 L1631.64 274.446 L1641.51 287.756 L1636.48 287.756 L1628.94 277.571 L1621.39 287.756 L1616.37 287.756 L1626.44 274.191 L1617.22 261.83 L1622.25 261.83 L1629.12 271.066 L1636 261.83 L1641.02 261.83 Z" fill="#000000" fill-rule="nonzero" fill-opacity="1" /><path clip-path="url(#clip600)" d="M1651.64 283.867 L1651.64 297.617 L1647.36 297.617 L1647.36 261.83 L1651.64 261.83 L1651.64 265.765 Q1652.99 263.45 1655.02 262.339 Q1657.08 261.205 1659.93 261.205 Q1664.65 261.205 1667.59 264.955 Q1670.56 268.705 1670.56 274.816 Q1670.56 280.927 1667.59 284.677 Q1664.65 288.427 1659.93 288.427 Q1657.08 288.427 1655.02 287.316 Q1652.99 286.182 1651.64 283.867 M1666.13 274.816 Q1666.13 270.117 1664.19 267.455 Q1662.27 264.77 1658.89 264.77 Q1655.51 264.77 1653.57 267.455 Q1651.64 270.117 1651.64 274.816 Q1651.64 279.515 1653.57 282.2 Q1655.51 284.862 1658.89 284.862 Q1662.27 284.862 1664.19 282.2 Q1666.13 279.515 1666.13 274.816 Z" fill="#000000" fill-rule="nonzero" fill-opacity="1" /><path clip-path="url(#clip600)" d="M1699.79 273.728 L1699.79 275.811 L1680.21 275.811 Q1680.49 280.209 1682.85 282.524 Q1685.23 284.816 1689.47 284.816 Q1691.92 284.816 1694.21 284.214 Q1696.53 283.612 1698.8 282.409 L1698.8 286.436 Q1696.5 287.408 1694.1 287.918 Q1691.69 288.427 1689.21 288.427 Q1683.01 288.427 1679.38 284.816 Q1675.76 281.205 1675.76 275.047 Q1675.76 268.682 1679.19 264.955 Q1682.64 261.205 1688.47 261.205 Q1693.7 261.205 1696.74 264.585 Q1699.79 267.941 1699.79 273.728 M1695.53 272.478 Q1695.49 268.983 1693.57 266.899 Q1691.67 264.816 1688.52 264.816 Q1684.95 264.816 1682.8 266.83 Q1680.67 268.844 1680.35 272.501 L1695.53 272.478 Z" fill="#000000" fill-rule="nonzero" fill-opacity="1" /><path clip-path="url(#clip600)" d="M1721.81 265.811 Q1721.09 265.395 1720.23 265.21 Q1719.4 265.001 1718.38 265.001 Q1714.77 265.001 1712.82 267.362 Q1710.9 269.7 1710.9 274.098 L1710.9 287.756 L1706.62 287.756 L1706.62 261.83 L1710.9 261.83 L1710.9 265.858 Q1712.25 263.497 1714.4 262.362 Q1716.55 261.205 1719.63 261.205 Q1720.07 261.205 1720.6 261.274 Q1721.13 261.321 1721.78 261.436 L1721.81 265.811 Z" fill="#000000" fill-rule="nonzero" fill-opacity="1" /><path clip-path="url(#clip600)" d="M1726.27 261.83 L1730.53 261.83 L1730.53 287.756 L1726.27 287.756 L1726.27 261.83 M1726.27 251.737 L1730.53 251.737 L1730.53 257.131 L1726.27 257.131 L1726.27 251.737 Z" fill="#000000" fill-rule="nonzero" fill-opacity="1" /><path clip-path="url(#clip600)" d="M1759.63 266.807 Q1761.23 263.936 1763.45 262.571 Q1765.67 261.205 1768.68 261.205 Q1772.73 261.205 1774.93 264.052 Q1777.13 266.876 1777.13 272.108 L1777.13 287.756 L1772.85 287.756 L1772.85 272.247 Q1772.85 268.52 1771.53 266.714 Q1770.21 264.909 1767.5 264.909 Q1764.19 264.909 1762.27 267.108 Q1760.35 269.307 1760.35 273.103 L1760.35 287.756 L1756.06 287.756 L1756.06 272.247 Q1756.06 268.497 1754.75 266.714 Q1753.43 264.909 1750.67 264.909 Q1747.41 264.909 1745.49 267.131 Q1743.56 269.33 1743.56 273.103 L1743.56 287.756 L1739.28 287.756 L1739.28 261.83 L1743.56 261.83 L1743.56 265.858 Q1745.02 263.473 1747.06 262.339 Q1749.1 261.205 1751.9 261.205 Q1754.72 261.205 1756.69 262.64 Q1758.68 264.075 1759.63 266.807 Z" fill="#000000" fill-rule="nonzero" fill-opacity="1" /><path clip-path="url(#clip600)" d="M1807.8 273.728 L1807.8 275.811 L1788.22 275.811 Q1788.5 280.209 1790.86 282.524 Q1793.24 284.816 1797.48 284.816 Q1799.93 284.816 1802.22 284.214 Q1804.54 283.612 1806.81 282.409 L1806.81 286.436 Q1804.51 287.408 1802.11 287.918 Q1799.7 288.427 1797.22 288.427 Q1791.02 288.427 1787.38 284.816 Q1783.77 281.205 1783.77 275.047 Q1783.77 268.682 1787.2 264.955 Q1790.65 261.205 1796.48 261.205 Q1801.71 261.205 1804.75 264.585 Q1807.8 267.941 1807.8 273.728 M1803.54 272.478 Q1803.5 268.983 1801.57 266.899 Q1799.68 264.816 1796.53 264.816 Q1792.96 264.816 1790.81 266.83 Q1788.68 268.844 1788.36 272.501 L1803.54 272.478 Z" fill="#000000" fill-rule="nonzero" fill-opacity="1" /><path clip-path="url(#clip600)" d="M1836.34 272.108 L1836.34 287.756 L1832.08 287.756 L1832.08 272.247 Q1832.08 268.566 1830.65 266.737 Q1829.21 264.909 1826.34 264.909 Q1822.89 264.909 1820.9 267.108 Q1818.91 269.307 1818.91 273.103 L1818.91 287.756 L1814.63 287.756 L1814.63 261.83 L1818.91 261.83 L1818.91 265.858 Q1820.44 263.52 1822.5 262.362 Q1824.58 261.205 1827.29 261.205 Q1831.76 261.205 1834.05 263.983 Q1836.34 266.737 1836.34 272.108 Z" fill="#000000" fill-rule="nonzero" fill-opacity="1" /><path clip-path="url(#clip600)" d="M1849.05 254.469 L1849.05 261.83 L1857.82 261.83 L1857.82 265.14 L1849.05 265.14 L1849.05 279.214 Q1849.05 282.385 1849.91 283.288 Q1850.79 284.191 1853.45 284.191 L1857.82 284.191 L1857.82 287.756 L1853.45 287.756 Q1848.52 287.756 1846.64 285.927 Q1844.77 284.075 1844.77 279.214 L1844.77 265.14 L1841.64 265.14 L1841.64 261.83 L1844.77 261.83 L1844.77 254.469 L1849.05 254.469 Z" fill="#000000" fill-rule="nonzero" fill-opacity="1" /><path clip-path="url(#clip600)" d="M1875.21 274.723 Q1870.05 274.723 1868.05 275.904 Q1866.06 277.084 1866.06 279.932 Q1866.06 282.2 1867.55 283.543 Q1869.05 284.862 1871.62 284.862 Q1875.16 284.862 1877.29 282.362 Q1879.44 279.839 1879.44 275.672 L1879.44 274.723 L1875.21 274.723 M1883.7 272.964 L1883.7 287.756 L1879.44 287.756 L1879.44 283.821 Q1877.99 286.182 1875.81 287.316 Q1873.63 288.427 1870.49 288.427 Q1866.5 288.427 1864.14 286.205 Q1861.81 283.959 1861.81 280.209 Q1861.81 275.834 1864.72 273.612 Q1867.66 271.39 1873.47 271.39 L1879.44 271.39 L1879.44 270.973 Q1879.44 268.034 1877.5 266.436 Q1875.58 264.816 1872.08 264.816 Q1869.86 264.816 1867.75 265.348 Q1865.65 265.881 1863.7 266.946 L1863.7 263.01 Q1866.04 262.108 1868.24 261.668 Q1870.44 261.205 1872.52 261.205 Q1878.15 261.205 1880.93 264.122 Q1883.7 267.038 1883.7 272.964 Z" fill="#000000" fill-rule="nonzero" fill-opacity="1" /><path clip-path="url(#clip600)" d="M1892.48 251.737 L1896.74 251.737 L1896.74 287.756 L1892.48 287.756 L1892.48 251.737 Z" fill="#000000" fill-rule="nonzero" fill-opacity="1" /><path clip-path="url(#clip600)" d="M1920.9 253.196 L1927.87 253.196 L1936.69 276.714 L1945.55 253.196 L1952.52 253.196 L1952.52 287.756 L1947.96 287.756 L1947.96 257.409 L1939.05 281.112 L1934.35 281.112 L1925.44 257.409 L1925.44 287.756 L1920.9 287.756 L1920.9 253.196 Z" fill="#000000" fill-rule="nonzero" fill-opacity="1" /><path clip-path="url(#clip600)" d="M1983.8 273.728 L1983.8 275.811 L1964.21 275.811 Q1964.49 280.209 1966.85 282.524 Q1969.23 284.816 1973.47 284.816 Q1975.92 284.816 1978.22 284.214 Q1980.53 283.612 1982.8 282.409 L1982.8 286.436 Q1980.51 287.408 1978.1 287.918 Q1975.69 288.427 1973.22 288.427 Q1967.01 288.427 1963.38 284.816 Q1959.77 281.205 1959.77 275.047 Q1959.77 268.682 1963.19 264.955 Q1966.64 261.205 1972.48 261.205 Q1977.71 261.205 1980.74 264.585 Q1983.8 267.941 1983.8 273.728 M1979.54 272.478 Q1979.49 268.983 1977.57 266.899 Q1975.67 264.816 1972.52 264.816 Q1968.96 264.816 1966.8 266.83 Q1964.67 268.844 1964.35 272.501 L1979.54 272.478 Z" fill="#000000" fill-rule="nonzero" fill-opacity="1" /><path clip-path="url(#clip600)" d="M2002.57 274.723 Q1997.41 274.723 1995.42 275.904 Q1993.42 277.084 1993.42 279.932 Q1993.42 282.2 1994.91 283.543 Q1996.41 284.862 1998.98 284.862 Q2002.52 284.862 2004.65 282.362 Q2006.8 279.839 2006.8 275.672 L2006.8 274.723 L2002.57 274.723 M2011.06 272.964 L2011.06 287.756 L2006.8 287.756 L2006.8 283.821 Q2005.35 286.182 2003.17 287.316 Q2000.99 288.427 1997.85 288.427 Q1993.86 288.427 1991.5 286.205 Q1989.17 283.959 1989.17 280.209 Q1989.17 275.834 1992.08 273.612 Q1995.02 271.39 2000.83 271.39 L2006.8 271.39 L2006.8 270.973 Q2006.8 268.034 2004.86 266.436 Q2002.94 264.816 1999.44 264.816 Q1997.22 264.816 1995.11 265.348 Q1993.01 265.881 1991.06 266.946 L1991.06 263.01 Q1993.4 262.108 1995.6 261.668 Q1997.8 261.205 1999.88 261.205 Q2005.51 261.205 2008.29 264.122 Q2011.06 267.038 2011.06 272.964 Z" fill="#000000" fill-rule="nonzero" fill-opacity="1" /><path clip-path="url(#clip600)" d="M2041.39 272.108 L2041.39 287.756 L2037.13 287.756 L2037.13 272.247 Q2037.13 268.566 2035.69 266.737 Q2034.26 264.909 2031.39 264.909 Q2027.94 264.909 2025.95 267.108 Q2023.96 269.307 2023.96 273.103 L2023.96 287.756 L2019.67 287.756 L2019.67 261.83 L2023.96 261.83 L2023.96 265.858 Q2025.48 263.52 2027.54 262.362 Q2029.63 261.205 2032.34 261.205 Q2036.8 261.205 2039.1 263.983 Q2041.39 266.737 2041.39 272.108 Z" fill="#000000" fill-rule="nonzero" fill-opacity="1" /><path clip-path="url(#clip600)" d="M2075.18 251.784 Q2072.08 257.108 2070.58 262.316 Q2069.07 267.524 2069.07 272.872 Q2069.07 278.219 2070.58 283.473 Q2072.1 288.705 2075.18 294.006 L2071.48 294.006 Q2068.01 288.566 2066.27 283.311 Q2064.56 278.057 2064.56 272.872 Q2064.56 267.71 2066.27 262.478 Q2067.98 257.247 2071.48 251.784 L2075.18 251.784 Z" fill="#000000" fill-rule="nonzero" fill-opacity="1" /><path clip-path="url(#clip600)" d="M2084.86 283.821 L2092.5 283.821 L2092.5 257.455 L2084.19 259.122 L2084.19 254.862 L2092.45 253.196 L2097.13 253.196 L2097.13 283.821 L2104.77 283.821 L2104.77 287.756 L2084.86 287.756 L2084.86 283.821 Z" fill="#000000" fill-rule="nonzero" fill-opacity="1" /><path clip-path="url(#clip600)" d="M2128.38 269.122 Q2131.73 269.839 2133.61 272.108 Q2135.51 274.376 2135.51 277.709 Q2135.51 282.825 2131.99 285.626 Q2128.47 288.427 2121.99 288.427 Q2119.81 288.427 2117.5 287.987 Q2115.21 287.571 2112.75 286.714 L2112.75 282.2 Q2114.7 283.334 2117.01 283.913 Q2119.33 284.492 2121.85 284.492 Q2126.25 284.492 2128.54 282.756 Q2130.85 281.02 2130.85 277.709 Q2130.85 274.654 2128.7 272.941 Q2126.57 271.205 2122.75 271.205 L2118.72 271.205 L2118.72 267.362 L2122.94 267.362 Q2126.39 267.362 2128.22 265.997 Q2130.04 264.608 2130.04 262.015 Q2130.04 259.353 2128.15 257.941 Q2126.27 256.506 2122.75 256.506 Q2120.83 256.506 2118.63 256.923 Q2116.43 257.339 2113.79 258.219 L2113.79 254.052 Q2116.46 253.311 2118.77 252.941 Q2121.11 252.571 2123.17 252.571 Q2128.49 252.571 2131.6 255.001 Q2134.7 257.409 2134.7 261.529 Q2134.7 264.399 2133.05 266.39 Q2131.41 268.358 2128.38 269.122 Z" fill="#000000" fill-rule="nonzero" fill-opacity="1" /><path clip-path="url(#clip600)" d="M2158.54 269.122 Q2161.9 269.839 2163.77 272.108 Q2165.67 274.376 2165.67 277.709 Q2165.67 282.825 2162.15 285.626 Q2158.63 288.427 2152.15 288.427 Q2149.97 288.427 2147.66 287.987 Q2145.37 287.571 2142.91 286.714 L2142.91 282.2 Q2144.86 283.334 2147.17 283.913 Q2149.49 284.492 2152.01 284.492 Q2156.41 284.492 2158.7 282.756 Q2161.02 281.02 2161.02 277.709 Q2161.02 274.654 2158.86 272.941 Q2156.73 271.205 2152.91 271.205 L2148.89 271.205 L2148.89 267.362 L2153.1 267.362 Q2156.55 267.362 2158.38 265.997 Q2160.21 264.608 2160.21 262.015 Q2160.21 259.353 2158.31 257.941 Q2156.43 256.506 2152.91 256.506 Q2150.99 256.506 2148.79 256.923 Q2146.6 257.339 2143.96 258.219 L2143.96 254.052 Q2146.62 253.311 2148.93 252.941 Q2151.27 252.571 2153.33 252.571 Q2158.66 252.571 2161.76 255.001 Q2164.86 257.409 2164.86 261.529 Q2164.86 264.399 2163.22 266.39 Q2161.57 268.358 2158.54 269.122 Z" fill="#000000" fill-rule="nonzero" fill-opacity="1" /><path clip-path="url(#clip600)" d="M2174.53 281.876 L2179.42 281.876 L2179.42 287.756 L2174.53 287.756 L2174.53 281.876 Z" fill="#000000" fill-rule="nonzero" fill-opacity="1" /><path clip-path="url(#clip600)" d="M2188.42 253.196 L2210.65 253.196 L2210.65 255.186 L2198.1 287.756 L2193.22 287.756 L2205.02 257.131 L2188.42 257.131 L2188.42 253.196 Z" fill="#000000" fill-rule="nonzero" fill-opacity="1" /><path clip-path="url(#clip600)" d="M2219.81 253.196 L2238.17 253.196 L2238.17 257.131 L2224.09 257.131 L2224.09 265.603 Q2225.11 265.256 2226.13 265.094 Q2227.15 264.909 2228.17 264.909 Q2233.96 264.909 2237.34 268.08 Q2240.72 271.251 2240.72 276.668 Q2240.72 282.246 2237.24 285.348 Q2233.77 288.427 2227.45 288.427 Q2225.28 288.427 2223.01 288.057 Q2220.76 287.686 2218.35 286.946 L2218.35 282.246 Q2220.44 283.381 2222.66 283.936 Q2224.88 284.492 2227.36 284.492 Q2231.36 284.492 2233.7 282.385 Q2236.04 280.279 2236.04 276.668 Q2236.04 273.057 2233.7 270.95 Q2231.36 268.844 2227.36 268.844 Q2225.48 268.844 2223.61 269.26 Q2221.76 269.677 2219.81 270.557 L2219.81 253.196 Z" fill="#000000" fill-rule="nonzero" fill-opacity="1" /><path clip-path="url(#clip600)" d="M2248.65 251.784 L2252.36 251.784 Q2255.83 257.247 2257.54 262.478 Q2259.28 267.71 2259.28 272.872 Q2259.28 278.057 2257.54 283.311 Q2255.83 288.566 2252.36 294.006 L2248.65 294.006 Q2251.73 288.705 2253.24 283.473 Q2254.77 278.219 2254.77 272.872 Q2254.77 267.524 2253.24 262.316 Q2251.73 257.108 2248.65 251.784 Z" fill="#000000" fill-rule="nonzero" fill-opacity="1" /></svg>
